<svg width="969" height="1350" viewBox="0 0 969 1350" fill="none" xmlns="http://www.w3.org/2000/svg">
<path d="M535.191 379.41L329.22 509.207L197.025 308.092C160.539 252.584 84.7896 236.609 27.9416 272.433C-28.9063 308.257 -45.432 382.382 -8.94604 437.89L126.905 636.701L-82.7213 768.803C-139.569 804.627 -156.095 878.751 -119.609 934.259C-83.123 989.767 -7.37373 1005.74 49.4742 969.918L256.755 834.247L387.641 1041.24C424.126 1096.74 499.876 1112.72 556.724 1076.89C613.572 1041.07 630.097 966.946 593.611 911.438L459.069 706.753L667.387 580.525C724.235 544.701 740.76 470.577 704.274 415.069C667.788 359.561 592.039 343.586 535.191 379.41Z" fill="url(#paint0_linear_53_37)"/>
<defs>
<linearGradient id="paint0_linear_53_37" x1="234.026" y1="1077.1" x2="296.105" y2="271.172" gradientUnits="userSpaceOnUse">
<stop stop-color="#78CAD6"/>
<stop offset="0.460776" stop-color="#0C667A"/>
<stop offset="0.910178" stop-color="#00171C"/>
</linearGradient>
</defs>
</svg>
