<svg width="749" height="318" viewBox="0 0 749 318" fill="none" xmlns="http://www.w3.org/2000/svg">
<rect width="749" height="318" fill="#CCCCCC"/>
<line x1="149.652" y1="24.718" x2="149.652" y2="294" stroke="#9B9B9B" stroke-width="2"/>
<line x1="373" y1="49.7686" x2="29" y2="49.7686" stroke="#9B9B9B" stroke-width="2"/>
<line x1="373" y1="270.949" x2="29" y2="270.949" stroke="#9B9B9B" stroke-width="2"/>
<line x1="373" y1="242.604" x2="29" y2="242.604" stroke="#9B9B9B" stroke-width="2"/>
<line x1="373" y1="208.675" x2="29" y2="208.675" stroke="#9B9B9B" stroke-width="2"/>
<line x1="373" y1="175.176" x2="29" y2="175.176" stroke="#9B9B9B" stroke-width="2"/>
<line x1="373" y1="145.542" x2="29" y2="145.542" stroke="#9B9B9B" stroke-width="2"/>
<line x1="373" y1="115.479" x2="29" y2="115.479" stroke="#9B9B9B" stroke-width="2"/>
<line x1="373" y1="81.55" x2="29" y2="81.55" stroke="#9B9B9B" stroke-width="2"/>
<line x1="359.044" y1="24.718" x2="359.044" y2="294" stroke="#9B9B9B" stroke-width="2"/>
<line x1="328.251" y1="23" x2="328.251" y2="292.282" stroke="#9B9B9B" stroke-width="2"/>
<line x1="46.2764" y1="23" x2="46.2764" y2="292.282" stroke="#9B9B9B" stroke-width="2"/>
<line x1="254.348" y1="23" x2="254.348" y2="292.282" stroke="#9B9B9B" stroke-width="2"/>
<line x1="292.619" y1="23" x2="292.619" y2="292.282" stroke="#9B9B9B" stroke-width="2"/>
<line x1="183.084" y1="24.718" x2="183.084" y2="294" stroke="#9B9B9B" stroke-width="2"/>
<line x1="217.396" y1="24.718" x2="217.396" y2="294" stroke="#9B9B9B" stroke-width="2"/>
<line x1="113.141" y1="23" x2="113.141" y2="292.282" stroke="#9B9B9B" stroke-width="2"/>
<line x1="79.708" y1="23" x2="79.708" y2="292.282" stroke="#9B9B9B" stroke-width="2"/>
<line x1="493.652" y1="24.718" x2="493.652" y2="294" stroke="#9B9B9B" stroke-width="2"/>
<line x1="717" y1="49.7686" x2="373" y2="49.7686" stroke="#9B9B9B" stroke-width="2"/>
<line x1="717" y1="270.949" x2="373" y2="270.949" stroke="#9B9B9B" stroke-width="2"/>
<line x1="717" y1="242.604" x2="373" y2="242.604" stroke="#9B9B9B" stroke-width="2"/>
<line x1="717" y1="208.675" x2="373" y2="208.675" stroke="#9B9B9B" stroke-width="2"/>
<line x1="717" y1="175.176" x2="373" y2="175.176" stroke="#9B9B9B" stroke-width="2"/>
<line x1="717" y1="145.542" x2="373" y2="145.542" stroke="#9B9B9B" stroke-width="2"/>
<line x1="717" y1="115.479" x2="373" y2="115.479" stroke="#9B9B9B" stroke-width="2"/>
<line x1="717" y1="81.55" x2="373" y2="81.55" stroke="#9B9B9B" stroke-width="2"/>
<line x1="703.044" y1="24.718" x2="703.044" y2="294" stroke="#9B9B9B" stroke-width="2"/>
<line x1="672.251" y1="23" x2="672.251" y2="292.282" stroke="#9B9B9B" stroke-width="2"/>
<line x1="390.276" y1="23" x2="390.276" y2="292.282" stroke="#9B9B9B" stroke-width="2"/>
<line x1="598.348" y1="23" x2="598.348" y2="292.282" stroke="#9B9B9B" stroke-width="2"/>
<line x1="636.619" y1="23" x2="636.619" y2="292.282" stroke="#9B9B9B" stroke-width="2"/>
<line x1="527.084" y1="24.718" x2="527.084" y2="294" stroke="#9B9B9B" stroke-width="2"/>
<line x1="561.396" y1="24.718" x2="561.396" y2="294" stroke="#9B9B9B" stroke-width="2"/>
<line x1="457.141" y1="23" x2="457.141" y2="292.282" stroke="#9B9B9B" stroke-width="2"/>
<line x1="423.708" y1="23" x2="423.708" y2="292.282" stroke="#9B9B9B" stroke-width="2"/>
<rect x="174" y="175" width="199" height="34" fill="#BCA0DF"/>
<path d="M52.6477 82.6818V79.3295L62.5227 63.7273H65.3182V68.5H63.6136L56.9659 79.0341V79.2159H70.75V82.6818H52.6477ZM63.75 87V81.6591L63.7955 80.1591V63.7273H67.7727V87H63.75ZM82.6534 87.3182C80.964 87.3182 79.464 87.0341 78.1534 86.4659C76.8504 85.8977 75.8277 85.1212 75.0852 84.1364C74.3504 83.1439 73.9867 82.0189 73.9943 80.7614C73.9867 79.7841 74.1989 78.8864 74.6307 78.0682C75.0625 77.25 75.6458 76.5682 76.3807 76.0227C77.1231 75.4697 77.9489 75.1174 78.858 74.9659V74.8068C77.661 74.5417 76.6913 73.9318 75.9489 72.9773C75.214 72.0152 74.8504 70.9053 74.858 69.6477C74.8504 68.4508 75.1837 67.3826 75.858 66.4432C76.5322 65.5038 77.4564 64.7652 78.6307 64.2273C79.8049 63.6818 81.1458 63.4091 82.6534 63.4091C84.1458 63.4091 85.4754 63.6818 86.642 64.2273C87.8163 64.7652 88.7405 65.5038 89.4148 66.4432C90.0966 67.3826 90.4375 68.4508 90.4375 69.6477C90.4375 70.9053 90.0625 72.0152 89.3125 72.9773C88.5701 73.9318 87.6117 74.5417 86.4375 74.8068V74.9659C87.3466 75.1174 88.1648 75.4697 88.892 76.0227C89.6269 76.5682 90.2102 77.25 90.642 78.0682C91.0814 78.8864 91.3011 79.7841 91.3011 80.7614C91.3011 82.0189 90.9299 83.1439 90.1875 84.1364C89.4451 85.1212 88.4223 85.8977 87.1193 86.4659C85.8239 87.0341 84.3352 87.3182 82.6534 87.3182ZM82.6534 84.0682C83.5246 84.0682 84.2822 83.9205 84.9261 83.625C85.5701 83.322 86.0701 82.8977 86.4261 82.3523C86.7822 81.8068 86.964 81.178 86.9716 80.4659C86.964 79.7235 86.7708 79.0682 86.392 78.5C86.0208 77.9242 85.5095 77.4735 84.858 77.1477C84.214 76.822 83.4792 76.6591 82.6534 76.6591C81.8201 76.6591 81.0777 76.822 80.4261 77.1477C79.7746 77.4735 79.2595 77.9242 78.8807 78.5C78.5095 79.0682 78.3277 79.7235 78.3352 80.4659C78.3277 81.178 78.5019 81.8068 78.858 82.3523C79.214 82.8902 79.714 83.3106 80.358 83.6136C81.0095 83.9167 81.7746 84.0682 82.6534 84.0682ZM82.6534 73.4659C83.3655 73.4659 83.9943 73.322 84.5398 73.0341C85.0928 72.7462 85.5284 72.3447 85.8466 71.8295C86.1648 71.3144 86.3277 70.7197 86.3352 70.0455C86.3277 69.3788 86.1686 68.7955 85.858 68.2955C85.5473 67.7879 85.1155 67.3977 84.5625 67.125C84.0095 66.8447 83.3731 66.7045 82.6534 66.7045C81.9186 66.7045 81.2708 66.8447 80.7102 67.125C80.1572 67.3977 79.7254 67.7879 79.4148 68.2955C79.1117 68.7955 78.964 69.3788 78.9716 70.0455C78.964 70.7197 79.1155 71.3144 79.4261 71.8295C79.7443 72.3371 80.1799 72.7386 80.733 73.0341C81.2936 73.322 81.9337 73.4659 82.6534 73.4659ZM96.1733 73.4773V69.9773H111.298V73.4773H96.1733ZM96.1733 80.75V77.25H111.298V80.75H96.1733ZM124.506 87V83.9545L132.585 76.0341C133.358 75.2538 134.002 74.5606 134.517 73.9545C135.032 73.3485 135.419 72.7614 135.676 72.1932C135.934 71.625 136.062 71.0189 136.062 70.375C136.062 69.6402 135.896 69.0114 135.562 68.4886C135.229 67.9583 134.771 67.5492 134.188 67.2614C133.604 66.9735 132.941 66.8295 132.199 66.8295C131.434 66.8295 130.763 66.9886 130.188 67.3068C129.612 67.6174 129.165 68.0606 128.847 68.6364C128.536 69.2121 128.381 69.8977 128.381 70.6932H124.369C124.369 69.2159 124.706 67.9318 125.381 66.8409C126.055 65.75 126.983 64.9053 128.165 64.3068C129.354 63.7083 130.718 63.4091 132.256 63.4091C133.816 63.4091 135.188 63.7008 136.369 64.2841C137.551 64.8674 138.468 65.6667 139.119 66.6818C139.778 67.697 140.108 68.8561 140.108 70.1591C140.108 71.0303 139.941 71.8864 139.608 72.7273C139.275 73.5682 138.688 74.5 137.847 75.5227C137.013 76.5455 135.843 77.7841 134.335 79.2386L130.324 83.3182V83.4773H140.46V87H124.506ZM166.398 83.4545L153.068 70.1477L155.636 67.5682L168.955 80.8864L166.398 83.4545ZM155.636 83.4545L153.068 80.8864L166.398 67.5682L168.955 70.1477L155.636 83.4545ZM181.787 87V83.9545L189.866 76.0341C190.639 75.2538 191.283 74.5606 191.798 73.9545C192.313 73.3485 192.7 72.7614 192.957 72.1932C193.215 71.625 193.344 71.0189 193.344 70.375C193.344 69.6402 193.177 69.0114 192.844 68.4886C192.51 67.9583 192.052 67.5492 191.469 67.2614C190.885 66.9735 190.223 66.8295 189.48 66.8295C188.715 66.8295 188.045 66.9886 187.469 67.3068C186.893 67.6174 186.446 68.0606 186.128 68.6364C185.817 69.2121 185.662 69.8977 185.662 70.6932H181.651C181.651 69.2159 181.988 67.9318 182.662 66.8409C183.336 65.75 184.264 64.9053 185.446 64.3068C186.635 63.7083 187.999 63.4091 189.537 63.4091C191.098 63.4091 192.469 63.7008 193.651 64.2841C194.832 64.8674 195.749 65.6667 196.401 66.6818C197.06 67.697 197.389 68.8561 197.389 70.1591C197.389 71.0303 197.223 71.8864 196.889 72.7273C196.556 73.5682 195.969 74.5 195.128 75.5227C194.295 76.5455 193.124 77.7841 191.616 79.2386L187.605 83.3182V83.4773H197.741V87H181.787ZM200.741 82.6818V79.3295L210.616 63.7273H213.412V68.5H211.707L205.06 79.0341V79.2159H218.844V82.6818H200.741ZM211.844 87V81.6591L211.889 80.1591V63.7273H215.866V87H211.844ZM93.892 112.477V108.977H109.017V112.477H93.892ZM93.892 119.75V116.25H109.017V119.75H93.892ZM122.224 126V122.955L130.304 115.034C131.077 114.254 131.721 113.561 132.236 112.955C132.751 112.348 133.137 111.761 133.395 111.193C133.652 110.625 133.781 110.019 133.781 109.375C133.781 108.64 133.615 108.011 133.281 107.489C132.948 106.958 132.49 106.549 131.906 106.261C131.323 105.973 130.66 105.83 129.918 105.83C129.152 105.83 128.482 105.989 127.906 106.307C127.33 106.617 126.884 107.061 126.565 107.636C126.255 108.212 126.099 108.898 126.099 109.693H122.088C122.088 108.216 122.425 106.932 123.099 105.841C123.774 104.75 124.702 103.905 125.884 103.307C127.073 102.708 128.437 102.409 129.974 102.409C131.535 102.409 132.906 102.701 134.088 103.284C135.27 103.867 136.187 104.667 136.838 105.682C137.497 106.697 137.827 107.856 137.827 109.159C137.827 110.03 137.66 110.886 137.327 111.727C136.993 112.568 136.406 113.5 135.565 114.523C134.732 115.545 133.562 116.784 132.054 118.239L128.043 122.318V122.477H138.179V126H122.224ZM164.116 122.455L150.787 109.148L153.355 106.568L166.673 119.886L164.116 122.455ZM153.355 122.455L150.787 119.886L164.116 106.568L166.673 109.148L153.355 122.455ZM179.506 126V122.955L187.585 115.034C188.358 114.254 189.002 113.561 189.517 112.955C190.032 112.348 190.419 111.761 190.676 111.193C190.934 110.625 191.062 110.019 191.062 109.375C191.062 108.64 190.896 108.011 190.562 107.489C190.229 106.958 189.771 106.549 189.188 106.261C188.604 105.973 187.941 105.83 187.199 105.83C186.434 105.83 185.763 105.989 185.188 106.307C184.612 106.617 184.165 107.061 183.847 107.636C183.536 108.212 183.381 108.898 183.381 109.693H179.369C179.369 108.216 179.706 106.932 180.381 105.841C181.055 104.75 181.983 103.905 183.165 103.307C184.354 102.708 185.718 102.409 187.256 102.409C188.816 102.409 190.188 102.701 191.369 103.284C192.551 103.867 193.468 104.667 194.119 105.682C194.778 106.697 195.108 107.856 195.108 109.159C195.108 110.03 194.941 110.886 194.608 111.727C194.275 112.568 193.688 113.5 192.847 114.523C192.013 115.545 190.843 116.784 189.335 118.239L185.324 122.318V122.477H195.46V126H179.506ZM221.398 122.455L208.068 109.148L210.636 106.568L223.955 119.886L221.398 122.455ZM210.636 122.455L208.068 119.886L221.398 106.568L223.955 109.148L210.636 122.455ZM246.253 102.727V126H242.037V106.83H241.901L236.457 110.307V106.443L242.241 102.727H246.253ZM252.162 126V122.955L260.241 115.034C261.014 114.254 261.658 113.561 262.173 112.955C262.688 112.348 263.075 111.761 263.332 111.193C263.59 110.625 263.719 110.019 263.719 109.375C263.719 108.64 263.552 108.011 263.219 107.489C262.885 106.958 262.427 106.549 261.844 106.261C261.26 105.973 260.598 105.83 259.855 105.83C259.09 105.83 258.42 105.989 257.844 106.307C257.268 106.617 256.821 107.061 256.503 107.636C256.192 108.212 256.037 108.898 256.037 109.693H252.026C252.026 108.216 252.363 106.932 253.037 105.841C253.711 104.75 254.639 103.905 255.821 103.307C257.01 102.708 258.374 102.409 259.912 102.409C261.473 102.409 262.844 102.701 264.026 103.284C265.207 103.867 266.124 104.667 266.776 105.682C267.435 106.697 267.764 107.856 267.764 109.159C267.764 110.03 267.598 110.886 267.264 111.727C266.931 112.568 266.344 113.5 265.503 114.523C264.67 115.545 263.499 116.784 261.991 118.239L257.98 122.318V122.477H268.116V126H252.162ZM93.892 151.477V147.977H109.017V151.477H93.892ZM93.892 158.75V155.25H109.017V158.75H93.892ZM122.224 165V161.955L130.304 154.034C131.077 153.254 131.721 152.561 132.236 151.955C132.751 151.348 133.137 150.761 133.395 150.193C133.652 149.625 133.781 149.019 133.781 148.375C133.781 147.64 133.615 147.011 133.281 146.489C132.948 145.958 132.49 145.549 131.906 145.261C131.323 144.973 130.66 144.83 129.918 144.83C129.152 144.83 128.482 144.989 127.906 145.307C127.33 145.617 126.884 146.061 126.565 146.636C126.255 147.212 126.099 147.898 126.099 148.693H122.088C122.088 147.216 122.425 145.932 123.099 144.841C123.774 143.75 124.702 142.905 125.884 142.307C127.073 141.708 128.437 141.409 129.974 141.409C131.535 141.409 132.906 141.701 134.088 142.284C135.27 142.867 136.187 143.667 136.838 144.682C137.497 145.697 137.827 146.856 137.827 148.159C137.827 149.03 137.66 149.886 137.327 150.727C136.993 151.568 136.406 152.5 135.565 153.523C134.732 154.545 133.562 155.784 132.054 157.239L128.043 161.318V161.477H138.179V165H122.224ZM164.116 161.455L150.787 148.148L153.355 145.568L166.673 158.886L164.116 161.455ZM153.355 161.455L150.787 158.886L164.116 145.568L166.673 148.148L153.355 161.455ZM179.506 165V161.955L187.585 154.034C188.358 153.254 189.002 152.561 189.517 151.955C190.032 151.348 190.419 150.761 190.676 150.193C190.934 149.625 191.062 149.019 191.062 148.375C191.062 147.64 190.896 147.011 190.562 146.489C190.229 145.958 189.771 145.549 189.188 145.261C188.604 144.973 187.941 144.83 187.199 144.83C186.434 144.83 185.763 144.989 185.188 145.307C184.612 145.617 184.165 146.061 183.847 146.636C183.536 147.212 183.381 147.898 183.381 148.693H179.369C179.369 147.216 179.706 145.932 180.381 144.841C181.055 143.75 181.983 142.905 183.165 142.307C184.354 141.708 185.718 141.409 187.256 141.409C188.816 141.409 190.188 141.701 191.369 142.284C192.551 142.867 193.468 143.667 194.119 144.682C194.778 145.697 195.108 146.856 195.108 148.159C195.108 149.03 194.941 149.886 194.608 150.727C194.275 151.568 193.688 152.5 192.847 153.523C192.013 154.545 190.843 155.784 189.335 157.239L185.324 161.318V161.477H195.46V165H179.506ZM221.398 161.455L208.068 148.148L210.636 145.568L223.955 158.886L221.398 161.455ZM210.636 161.455L208.068 158.886L221.398 145.568L223.955 148.148L210.636 161.455ZM236.787 165V161.955L244.866 154.034C245.639 153.254 246.283 152.561 246.798 151.955C247.313 151.348 247.7 150.761 247.957 150.193C248.215 149.625 248.344 149.019 248.344 148.375C248.344 147.64 248.177 147.011 247.844 146.489C247.51 145.958 247.052 145.549 246.469 145.261C245.885 144.973 245.223 144.83 244.48 144.83C243.715 144.83 243.045 144.989 242.469 145.307C241.893 145.617 241.446 146.061 241.128 146.636C240.817 147.212 240.662 147.898 240.662 148.693H236.651C236.651 147.216 236.988 145.932 237.662 144.841C238.336 143.75 239.264 142.905 240.446 142.307C241.635 141.708 242.999 141.409 244.537 141.409C246.098 141.409 247.469 141.701 248.651 142.284C249.832 142.867 250.749 143.667 251.401 144.682C252.06 145.697 252.389 146.856 252.389 148.159C252.389 149.03 252.223 149.886 251.889 150.727C251.556 151.568 250.969 152.5 250.128 153.523C249.295 154.545 248.124 155.784 246.616 157.239L242.605 161.318V161.477H252.741V165H236.787ZM278.679 161.455L265.349 148.148L267.918 145.568L281.236 158.886L278.679 161.455ZM267.918 161.455L265.349 158.886L278.679 145.568L281.236 148.148L267.918 161.455ZM302.591 165.318C301.477 165.311 300.39 165.117 299.33 164.739C298.269 164.352 297.314 163.727 296.466 162.864C295.617 161.992 294.943 160.837 294.443 159.398C293.943 157.951 293.697 156.159 293.705 154.023C293.705 152.03 293.917 150.254 294.341 148.693C294.765 147.133 295.375 145.814 296.17 144.739C296.966 143.655 297.924 142.83 299.045 142.261C300.174 141.693 301.436 141.409 302.83 141.409C304.292 141.409 305.587 141.697 306.716 142.273C307.852 142.848 308.769 143.636 309.466 144.636C310.163 145.629 310.595 146.75 310.761 148H306.614C306.402 147.106 305.966 146.394 305.307 145.864C304.655 145.326 303.83 145.057 302.83 145.057C301.216 145.057 299.973 145.758 299.102 147.159C298.239 148.561 297.803 150.485 297.795 152.932H297.955C298.326 152.265 298.807 151.693 299.398 151.216C299.989 150.739 300.655 150.371 301.398 150.114C302.148 149.848 302.939 149.716 303.773 149.716C305.136 149.716 306.36 150.042 307.443 150.693C308.534 151.345 309.398 152.242 310.034 153.386C310.67 154.523 310.985 155.826 310.977 157.295C310.985 158.826 310.636 160.201 309.932 161.42C309.227 162.633 308.246 163.587 306.989 164.284C305.731 164.981 304.265 165.326 302.591 165.318ZM302.568 161.909C303.394 161.909 304.133 161.708 304.784 161.307C305.436 160.905 305.951 160.364 306.33 159.682C306.708 159 306.894 158.235 306.886 157.386C306.894 156.553 306.712 155.799 306.341 155.125C305.977 154.451 305.473 153.917 304.83 153.523C304.186 153.129 303.451 152.932 302.625 152.932C302.011 152.932 301.439 153.049 300.909 153.284C300.379 153.519 299.917 153.845 299.523 154.261C299.129 154.67 298.818 155.148 298.591 155.693C298.371 156.231 298.258 156.807 298.25 157.42C298.258 158.231 298.447 158.977 298.818 159.659C299.189 160.341 299.701 160.886 300.352 161.295C301.004 161.705 301.742 161.909 302.568 161.909ZM93.892 190.477V186.977H109.017V190.477H93.892ZM93.892 197.75V194.25H109.017V197.75H93.892ZM122.224 204V200.955L130.304 193.034C131.077 192.254 131.721 191.561 132.236 190.955C132.751 190.348 133.137 189.761 133.395 189.193C133.652 188.625 133.781 188.019 133.781 187.375C133.781 186.64 133.615 186.011 133.281 185.489C132.948 184.958 132.49 184.549 131.906 184.261C131.323 183.973 130.66 183.83 129.918 183.83C129.152 183.83 128.482 183.989 127.906 184.307C127.33 184.617 126.884 185.061 126.565 185.636C126.255 186.212 126.099 186.898 126.099 187.693H122.088C122.088 186.216 122.425 184.932 123.099 183.841C123.774 182.75 124.702 181.905 125.884 181.307C127.073 180.708 128.437 180.409 129.974 180.409C131.535 180.409 132.906 180.701 134.088 181.284C135.27 181.867 136.187 182.667 136.838 183.682C137.497 184.697 137.827 185.856 137.827 187.159C137.827 188.03 137.66 188.886 137.327 189.727C136.993 190.568 136.406 191.5 135.565 192.523C134.732 193.545 133.562 194.784 132.054 196.239L128.043 200.318V200.477H138.179V204H122.224ZM164.116 200.455L150.787 187.148L153.355 184.568L166.673 197.886L164.116 200.455ZM153.355 200.455L150.787 197.886L164.116 184.568L166.673 187.148L153.355 200.455ZM179.506 204V200.955L187.585 193.034C188.358 192.254 189.002 191.561 189.517 190.955C190.032 190.348 190.419 189.761 190.676 189.193C190.934 188.625 191.062 188.019 191.062 187.375C191.062 186.64 190.896 186.011 190.562 185.489C190.229 184.958 189.771 184.549 189.188 184.261C188.604 183.973 187.941 183.83 187.199 183.83C186.434 183.83 185.763 183.989 185.188 184.307C184.612 184.617 184.165 185.061 183.847 185.636C183.536 186.212 183.381 186.898 183.381 187.693H179.369C179.369 186.216 179.706 184.932 180.381 183.841C181.055 182.75 181.983 181.905 183.165 181.307C184.354 180.708 185.718 180.409 187.256 180.409C188.816 180.409 190.188 180.701 191.369 181.284C192.551 181.867 193.468 182.667 194.119 183.682C194.778 184.697 195.108 185.856 195.108 187.159C195.108 188.03 194.941 188.886 194.608 189.727C194.275 190.568 193.688 191.5 192.847 192.523C192.013 193.545 190.843 194.784 189.335 196.239L185.324 200.318V200.477H195.46V204H179.506ZM221.398 200.455L208.068 187.148L210.636 184.568L223.955 197.886L221.398 200.455ZM210.636 200.455L208.068 197.886L221.398 184.568L223.955 187.148L210.636 200.455ZM236.787 204V200.955L244.866 193.034C245.639 192.254 246.283 191.561 246.798 190.955C247.313 190.348 247.7 189.761 247.957 189.193C248.215 188.625 248.344 188.019 248.344 187.375C248.344 186.64 248.177 186.011 247.844 185.489C247.51 184.958 247.052 184.549 246.469 184.261C245.885 183.973 245.223 183.83 244.48 183.83C243.715 183.83 243.045 183.989 242.469 184.307C241.893 184.617 241.446 185.061 241.128 185.636C240.817 186.212 240.662 186.898 240.662 187.693H236.651C236.651 186.216 236.988 184.932 237.662 183.841C238.336 182.75 239.264 181.905 240.446 181.307C241.635 180.708 242.999 180.409 244.537 180.409C246.098 180.409 247.469 180.701 248.651 181.284C249.832 181.867 250.749 182.667 251.401 183.682C252.06 184.697 252.389 185.856 252.389 187.159C252.389 188.03 252.223 188.886 251.889 189.727C251.556 190.568 250.969 191.5 250.128 192.523C249.295 193.545 248.124 194.784 246.616 196.239L242.605 200.318V200.477H252.741V204H236.787ZM278.679 200.455L265.349 187.148L267.918 184.568L281.236 197.886L278.679 200.455ZM267.918 200.455L265.349 197.886L278.679 184.568L281.236 187.148L267.918 200.455ZM294.068 204V200.955L302.148 193.034C302.92 192.254 303.564 191.561 304.08 190.955C304.595 190.348 304.981 189.761 305.239 189.193C305.496 188.625 305.625 188.019 305.625 187.375C305.625 186.64 305.458 186.011 305.125 185.489C304.792 184.958 304.333 184.549 303.75 184.261C303.167 183.973 302.504 183.83 301.761 183.83C300.996 183.83 300.326 183.989 299.75 184.307C299.174 184.617 298.727 185.061 298.409 185.636C298.098 186.212 297.943 186.898 297.943 187.693H293.932C293.932 186.216 294.269 184.932 294.943 183.841C295.617 182.75 296.545 181.905 297.727 181.307C298.917 180.708 300.28 180.409 301.818 180.409C303.379 180.409 304.75 180.701 305.932 181.284C307.114 181.867 308.03 182.667 308.682 183.682C309.341 184.697 309.67 185.856 309.67 187.159C309.67 188.03 309.504 188.886 309.17 189.727C308.837 190.568 308.25 191.5 307.409 192.523C306.576 193.545 305.405 194.784 303.898 196.239L299.886 200.318V200.477H310.023V204H294.068ZM335.96 200.455L322.631 187.148L325.199 184.568L338.517 197.886L335.96 200.455ZM325.199 200.455L322.631 197.886L335.96 184.568L338.517 187.148L325.199 200.455ZM359.702 204.318C358.065 204.318 356.611 204.038 355.338 203.477C354.073 202.917 353.073 202.136 352.338 201.136C351.603 200.136 351.213 198.981 351.168 197.67H355.44C355.478 198.299 355.687 198.848 356.065 199.318C356.444 199.78 356.948 200.14 357.577 200.398C358.205 200.655 358.91 200.784 359.69 200.784C360.524 200.784 361.262 200.64 361.906 200.352C362.55 200.057 363.054 199.648 363.418 199.125C363.781 198.602 363.959 198 363.952 197.318C363.959 196.614 363.777 195.992 363.406 195.455C363.035 194.917 362.497 194.496 361.793 194.193C361.096 193.89 360.255 193.739 359.27 193.739H357.213V190.489H359.27C360.08 190.489 360.789 190.348 361.395 190.068C362.009 189.788 362.49 189.394 362.838 188.886C363.187 188.371 363.357 187.777 363.349 187.102C363.357 186.443 363.209 185.871 362.906 185.386C362.611 184.894 362.19 184.511 361.645 184.239C361.107 183.966 360.474 183.83 359.747 183.83C359.035 183.83 358.376 183.958 357.77 184.216C357.164 184.473 356.675 184.841 356.304 185.318C355.933 185.788 355.736 186.348 355.713 187H351.656C351.687 185.697 352.062 184.553 352.781 183.568C353.509 182.576 354.478 181.803 355.69 181.25C356.902 180.689 358.262 180.409 359.77 180.409C361.323 180.409 362.671 180.701 363.815 181.284C364.967 181.86 365.857 182.636 366.486 183.614C367.115 184.591 367.429 185.67 367.429 186.852C367.437 188.163 367.05 189.261 366.27 190.148C365.497 191.034 364.482 191.614 363.224 191.886V192.068C364.861 192.295 366.115 192.902 366.986 193.886C367.865 194.864 368.3 196.08 368.293 197.534C368.293 198.837 367.921 200.004 367.179 201.034C366.444 202.057 365.429 202.86 364.134 203.443C362.846 204.027 361.368 204.318 359.702 204.318Z" fill="black"/>
<rect x="450" y="175" width="199" height="34" fill="#BCA0DF"/>
<path d="M385.92 87L395.818 67.4091V67.25H384.33V63.7273H400.182V67.3295L390.295 87H385.92ZM403.849 87V83.9545L411.929 76.0341C412.702 75.2538 413.346 74.5606 413.861 73.9545C414.376 73.3485 414.762 72.7614 415.02 72.1932C415.277 71.625 415.406 71.0189 415.406 70.375C415.406 69.6402 415.24 69.0114 414.906 68.4886C414.573 67.9583 414.115 67.5492 413.531 67.2614C412.948 66.9735 412.285 66.8295 411.543 66.8295C410.777 66.8295 410.107 66.9886 409.531 67.3068C408.955 67.6174 408.509 68.0606 408.19 68.6364C407.88 69.2121 407.724 69.8977 407.724 70.6932H403.713C403.713 69.2159 404.05 67.9318 404.724 66.8409C405.399 65.75 406.327 64.9053 407.509 64.3068C408.698 63.7083 410.062 63.4091 411.599 63.4091C413.16 63.4091 414.531 63.7008 415.713 64.2841C416.895 64.8674 417.812 65.6667 418.463 66.6818C419.122 67.697 419.452 68.8561 419.452 70.1591C419.452 71.0303 419.285 71.8864 418.952 72.7273C418.618 73.5682 418.031 74.5 417.19 75.5227C416.357 76.5455 415.187 77.7841 413.679 79.2386L409.668 83.3182V83.4773H419.804V87H403.849ZM424.861 73.4773V69.9773H439.986V73.4773H424.861ZM424.861 80.75V77.25H439.986V80.75H424.861ZM453.193 87V83.9545L461.273 76.0341C462.045 75.2538 462.689 74.5606 463.205 73.9545C463.72 73.3485 464.106 72.7614 464.364 72.1932C464.621 71.625 464.75 71.0189 464.75 70.375C464.75 69.6402 464.583 69.0114 464.25 68.4886C463.917 67.9583 463.458 67.5492 462.875 67.2614C462.292 66.9735 461.629 66.8295 460.886 66.8295C460.121 66.8295 459.451 66.9886 458.875 67.3068C458.299 67.6174 457.852 68.0606 457.534 68.6364C457.223 69.2121 457.068 69.8977 457.068 70.6932H453.057C453.057 69.2159 453.394 67.9318 454.068 66.8409C454.742 65.75 455.67 64.9053 456.852 64.3068C458.042 63.7083 459.405 63.4091 460.943 63.4091C462.504 63.4091 463.875 63.7008 465.057 64.2841C466.239 64.8674 467.155 65.6667 467.807 66.6818C468.466 67.697 468.795 68.8561 468.795 70.1591C468.795 71.0303 468.629 71.8864 468.295 72.7273C467.962 73.5682 467.375 74.5 466.534 75.5227C465.701 76.5455 464.53 77.7841 463.023 79.2386L459.011 83.3182V83.4773H469.148V87H453.193ZM495.085 83.4545L481.756 70.1477L484.324 67.5682L497.642 80.8864L495.085 83.4545ZM484.324 83.4545L481.756 80.8864L495.085 67.5682L497.642 70.1477L484.324 83.4545ZM518.827 87.3182C517.19 87.3182 515.736 87.0379 514.463 86.4773C513.198 85.9167 512.198 85.1364 511.463 84.1364C510.728 83.1364 510.338 81.9811 510.293 80.6705H514.565C514.603 81.2992 514.812 81.8485 515.19 82.3182C515.569 82.7803 516.073 83.1402 516.702 83.3977C517.33 83.6553 518.035 83.7841 518.815 83.7841C519.649 83.7841 520.387 83.6402 521.031 83.3523C521.675 83.0568 522.179 82.6477 522.543 82.125C522.906 81.6023 523.084 81 523.077 80.3182C523.084 79.6136 522.902 78.9924 522.531 78.4545C522.16 77.9167 521.622 77.4962 520.918 77.1932C520.221 76.8902 519.38 76.7386 518.395 76.7386H516.338V73.4886H518.395C519.205 73.4886 519.914 73.3485 520.52 73.0682C521.134 72.7879 521.615 72.3939 521.963 71.8864C522.312 71.3712 522.482 70.7765 522.474 70.1023C522.482 69.4432 522.334 68.8712 522.031 68.3864C521.736 67.8939 521.315 67.5114 520.77 67.2386C520.232 66.9659 519.599 66.8295 518.872 66.8295C518.16 66.8295 517.501 66.9583 516.895 67.2159C516.289 67.4735 515.8 67.8409 515.429 68.3182C515.058 68.7879 514.861 69.3485 514.838 70H510.781C510.812 68.697 511.187 67.553 511.906 66.5682C512.634 65.5758 513.603 64.803 514.815 64.25C516.027 63.6894 517.387 63.4091 518.895 63.4091C520.448 63.4091 521.796 63.7008 522.94 64.2841C524.092 64.8598 524.982 65.6364 525.611 66.6136C526.24 67.5909 526.554 68.6705 526.554 69.8523C526.562 71.1629 526.175 72.2614 525.395 73.1477C524.622 74.0341 523.607 74.6136 522.349 74.8864V75.0682C523.986 75.2955 525.24 75.9015 526.111 76.8864C526.99 77.8636 527.425 79.0795 527.418 80.5341C527.418 81.8371 527.046 83.0038 526.304 84.0341C525.569 85.0568 524.554 85.8598 523.259 86.4432C521.971 87.0265 520.493 87.3182 518.827 87.3182ZM539.841 87.3182C538.727 87.3106 537.64 87.1174 536.58 86.7386C535.519 86.3523 534.564 85.7273 533.716 84.8636C532.867 83.9924 532.193 82.8371 531.693 81.3977C531.193 79.9508 530.947 78.1591 530.955 76.0227C530.955 74.0303 531.167 72.2538 531.591 70.6932C532.015 69.1326 532.625 67.8144 533.42 66.7386C534.216 65.6553 535.174 64.8295 536.295 64.2614C537.424 63.6932 538.686 63.4091 540.08 63.4091C541.542 63.4091 542.837 63.697 543.966 64.2727C545.102 64.8485 546.019 65.6364 546.716 66.6364C547.413 67.6288 547.845 68.75 548.011 70H543.864C543.652 69.1061 543.216 68.3939 542.557 67.8636C541.905 67.3258 541.08 67.0568 540.08 67.0568C538.466 67.0568 537.223 67.7576 536.352 69.1591C535.489 70.5606 535.053 72.4848 535.045 74.9318H535.205C535.576 74.2652 536.057 73.6932 536.648 73.2159C537.239 72.7386 537.905 72.3712 538.648 72.1136C539.398 71.8485 540.189 71.7159 541.023 71.7159C542.386 71.7159 543.61 72.0417 544.693 72.6932C545.784 73.3447 546.648 74.2424 547.284 75.3864C547.92 76.5227 548.235 77.8258 548.227 79.2955C548.235 80.8258 547.886 82.2008 547.182 83.4205C546.477 84.6326 545.496 85.5871 544.239 86.2841C542.981 86.9811 541.515 87.3258 539.841 87.3182ZM539.818 83.9091C540.644 83.9091 541.383 83.7083 542.034 83.3068C542.686 82.9053 543.201 82.3636 543.58 81.6818C543.958 81 544.144 80.2348 544.136 79.3864C544.144 78.553 543.962 77.7992 543.591 77.125C543.227 76.4508 542.723 75.9167 542.08 75.5227C541.436 75.1288 540.701 74.9318 539.875 74.9318C539.261 74.9318 538.689 75.0492 538.159 75.2841C537.629 75.5189 537.167 75.8447 536.773 76.2614C536.379 76.6705 536.068 77.1477 535.841 77.6932C535.621 78.2311 535.508 78.8068 535.5 79.4205C535.508 80.2311 535.697 80.9773 536.068 81.6591C536.439 82.3409 536.951 82.8864 537.602 83.2955C538.254 83.7045 538.992 83.9091 539.818 83.9091ZM425.892 112.477V108.977H441.017V112.477H425.892ZM425.892 119.75V116.25H441.017V119.75H425.892ZM454.224 126V122.955L462.304 115.034C463.077 114.254 463.721 113.561 464.236 112.955C464.751 112.348 465.137 111.761 465.395 111.193C465.652 110.625 465.781 110.019 465.781 109.375C465.781 108.64 465.615 108.011 465.281 107.489C464.948 106.958 464.49 106.549 463.906 106.261C463.323 105.973 462.66 105.83 461.918 105.83C461.152 105.83 460.482 105.989 459.906 106.307C459.33 106.617 458.884 107.061 458.565 107.636C458.255 108.212 458.099 108.898 458.099 109.693H454.088C454.088 108.216 454.425 106.932 455.099 105.841C455.774 104.75 456.702 103.905 457.884 103.307C459.073 102.708 460.437 102.409 461.974 102.409C463.535 102.409 464.906 102.701 466.088 103.284C467.27 103.867 468.187 104.667 468.838 105.682C469.497 106.697 469.827 107.856 469.827 109.159C469.827 110.03 469.66 110.886 469.327 111.727C468.993 112.568 468.406 113.5 467.565 114.523C466.732 115.545 465.562 116.784 464.054 118.239L460.043 122.318V122.477H470.179V126H454.224ZM496.116 122.455L482.787 109.148L485.355 106.568L498.673 119.886L496.116 122.455ZM485.355 122.455L482.787 119.886L496.116 106.568L498.673 109.148L485.355 122.455ZM511.506 126V122.955L519.585 115.034C520.358 114.254 521.002 113.561 521.517 112.955C522.032 112.348 522.419 111.761 522.676 111.193C522.934 110.625 523.062 110.019 523.062 109.375C523.062 108.64 522.896 108.011 522.562 107.489C522.229 106.958 521.771 106.549 521.188 106.261C520.604 105.973 519.941 105.83 519.199 105.83C518.434 105.83 517.763 105.989 517.188 106.307C516.612 106.617 516.165 107.061 515.847 107.636C515.536 108.212 515.381 108.898 515.381 109.693H511.369C511.369 108.216 511.706 106.932 512.381 105.841C513.055 104.75 513.983 103.905 515.165 103.307C516.354 102.708 517.718 102.409 519.256 102.409C520.816 102.409 522.188 102.701 523.369 103.284C524.551 103.867 525.468 104.667 526.119 105.682C526.778 106.697 527.108 107.856 527.108 109.159C527.108 110.03 526.941 110.886 526.608 111.727C526.275 112.568 525.688 113.5 524.847 114.523C524.013 115.545 522.843 116.784 521.335 118.239L517.324 122.318V122.477H527.46V126H511.506ZM553.398 122.455L540.068 109.148L542.636 106.568L555.955 119.886L553.398 122.455ZM542.636 122.455L540.068 119.886L553.398 106.568L555.955 109.148L542.636 122.455ZM578.253 102.727V126H574.037V106.83H573.901L568.457 110.307V106.443L574.241 102.727H578.253ZM592.435 126.318C590.745 126.318 589.245 126.034 587.935 125.466C586.632 124.898 585.609 124.121 584.866 123.136C584.132 122.144 583.768 121.019 583.776 119.761C583.768 118.784 583.98 117.886 584.412 117.068C584.844 116.25 585.427 115.568 586.162 115.023C586.904 114.47 587.73 114.117 588.639 113.966V113.807C587.442 113.542 586.473 112.932 585.73 111.977C584.995 111.015 584.632 109.905 584.639 108.648C584.632 107.451 584.965 106.383 585.639 105.443C586.313 104.504 587.238 103.765 588.412 103.227C589.586 102.682 590.927 102.409 592.435 102.409C593.927 102.409 595.257 102.682 596.423 103.227C597.598 103.765 598.522 104.504 599.196 105.443C599.878 106.383 600.219 107.451 600.219 108.648C600.219 109.905 599.844 111.015 599.094 111.977C598.351 112.932 597.393 113.542 596.219 113.807V113.966C597.128 114.117 597.946 114.47 598.673 115.023C599.408 115.568 599.991 116.25 600.423 117.068C600.863 117.886 601.082 118.784 601.082 119.761C601.082 121.019 600.711 122.144 599.969 123.136C599.226 124.121 598.204 124.898 596.901 125.466C595.605 126.034 594.116 126.318 592.435 126.318ZM592.435 123.068C593.306 123.068 594.063 122.92 594.707 122.625C595.351 122.322 595.851 121.898 596.207 121.352C596.563 120.807 596.745 120.178 596.753 119.466C596.745 118.723 596.552 118.068 596.173 117.5C595.802 116.924 595.291 116.473 594.639 116.148C593.995 115.822 593.26 115.659 592.435 115.659C591.601 115.659 590.859 115.822 590.207 116.148C589.556 116.473 589.041 116.924 588.662 117.5C588.291 118.068 588.109 118.723 588.116 119.466C588.109 120.178 588.283 120.807 588.639 121.352C588.995 121.89 589.495 122.311 590.139 122.614C590.791 122.917 591.556 123.068 592.435 123.068ZM592.435 112.466C593.147 112.466 593.776 112.322 594.321 112.034C594.874 111.746 595.31 111.345 595.628 110.83C595.946 110.314 596.109 109.72 596.116 109.045C596.109 108.379 595.95 107.795 595.639 107.295C595.329 106.788 594.897 106.398 594.344 106.125C593.791 105.845 593.154 105.705 592.435 105.705C591.7 105.705 591.052 105.845 590.491 106.125C589.938 106.398 589.507 106.788 589.196 107.295C588.893 107.795 588.745 108.379 588.753 109.045C588.745 109.72 588.897 110.314 589.207 110.83C589.526 111.337 589.961 111.739 590.514 112.034C591.075 112.322 591.715 112.466 592.435 112.466ZM425.892 151.477V147.977H441.017V151.477H425.892ZM425.892 158.75V155.25H441.017V158.75H425.892ZM454.224 165V161.955L462.304 154.034C463.077 153.254 463.721 152.561 464.236 151.955C464.751 151.348 465.137 150.761 465.395 150.193C465.652 149.625 465.781 149.019 465.781 148.375C465.781 147.64 465.615 147.011 465.281 146.489C464.948 145.958 464.49 145.549 463.906 145.261C463.323 144.973 462.66 144.83 461.918 144.83C461.152 144.83 460.482 144.989 459.906 145.307C459.33 145.617 458.884 146.061 458.565 146.636C458.255 147.212 458.099 147.898 458.099 148.693H454.088C454.088 147.216 454.425 145.932 455.099 144.841C455.774 143.75 456.702 142.905 457.884 142.307C459.073 141.708 460.437 141.409 461.974 141.409C463.535 141.409 464.906 141.701 466.088 142.284C467.27 142.867 468.187 143.667 468.838 144.682C469.497 145.697 469.827 146.856 469.827 148.159C469.827 149.03 469.66 149.886 469.327 150.727C468.993 151.568 468.406 152.5 467.565 153.523C466.732 154.545 465.562 155.784 464.054 157.239L460.043 161.318V161.477H470.179V165H454.224ZM496.116 161.455L482.787 148.148L485.355 145.568L498.673 158.886L496.116 161.455ZM485.355 161.455L482.787 158.886L496.116 145.568L498.673 148.148L485.355 161.455ZM511.506 165V161.955L519.585 154.034C520.358 153.254 521.002 152.561 521.517 151.955C522.032 151.348 522.419 150.761 522.676 150.193C522.934 149.625 523.062 149.019 523.062 148.375C523.062 147.64 522.896 147.011 522.562 146.489C522.229 145.958 521.771 145.549 521.188 145.261C520.604 144.973 519.941 144.83 519.199 144.83C518.434 144.83 517.763 144.989 517.188 145.307C516.612 145.617 516.165 146.061 515.847 146.636C515.536 147.212 515.381 147.898 515.381 148.693H511.369C511.369 147.216 511.706 145.932 512.381 144.841C513.055 143.75 513.983 142.905 515.165 142.307C516.354 141.708 517.718 141.409 519.256 141.409C520.816 141.409 522.188 141.701 523.369 142.284C524.551 142.867 525.468 143.667 526.119 144.682C526.778 145.697 527.108 146.856 527.108 148.159C527.108 149.03 526.941 149.886 526.608 150.727C526.275 151.568 525.688 152.5 524.847 153.523C524.013 154.545 522.843 155.784 521.335 157.239L517.324 161.318V161.477H527.46V165H511.506ZM553.398 161.455L540.068 148.148L542.636 145.568L555.955 158.886L553.398 161.455ZM542.636 161.455L540.068 158.886L553.398 145.568L555.955 148.148L542.636 161.455ZM568.787 165V161.955L576.866 154.034C577.639 153.254 578.283 152.561 578.798 151.955C579.313 151.348 579.7 150.761 579.957 150.193C580.215 149.625 580.344 149.019 580.344 148.375C580.344 147.64 580.177 147.011 579.844 146.489C579.51 145.958 579.052 145.549 578.469 145.261C577.885 144.973 577.223 144.83 576.48 144.83C575.715 144.83 575.045 144.989 574.469 145.307C573.893 145.617 573.446 146.061 573.128 146.636C572.817 147.212 572.662 147.898 572.662 148.693H568.651C568.651 147.216 568.988 145.932 569.662 144.841C570.336 143.75 571.264 142.905 572.446 142.307C573.635 141.708 574.999 141.409 576.537 141.409C578.098 141.409 579.469 141.701 580.651 142.284C581.832 142.867 582.749 143.667 583.401 144.682C584.06 145.697 584.389 146.856 584.389 148.159C584.389 149.03 584.223 149.886 583.889 150.727C583.556 151.568 582.969 152.5 582.128 153.523C581.295 154.545 580.124 155.784 578.616 157.239L574.605 161.318V161.477H584.741V165H568.787ZM610.679 161.455L597.349 148.148L599.918 145.568L613.236 158.886L610.679 161.455ZM599.918 161.455L597.349 158.886L610.679 145.568L613.236 148.148L599.918 161.455ZM634.148 141.409C635.261 141.417 636.345 141.614 637.398 142C638.458 142.379 639.413 143 640.261 143.864C641.11 144.72 641.784 145.867 642.284 147.307C642.784 148.746 643.034 150.527 643.034 152.648C643.042 154.648 642.83 156.436 642.398 158.011C641.973 159.58 641.364 160.905 640.568 161.989C639.773 163.072 638.814 163.898 637.693 164.466C636.572 165.034 635.311 165.318 633.909 165.318C632.439 165.318 631.136 165.03 630 164.455C628.871 163.879 627.958 163.091 627.261 162.091C626.564 161.091 626.136 159.947 625.977 158.659H630.125C630.337 159.583 630.769 160.318 631.42 160.864C632.08 161.402 632.909 161.67 633.909 161.67C635.523 161.67 636.765 160.97 637.636 159.568C638.508 158.167 638.943 156.22 638.943 153.727H638.784C638.413 154.394 637.932 154.97 637.341 155.455C636.75 155.932 636.08 156.299 635.33 156.557C634.587 156.814 633.799 156.943 632.966 156.943C631.602 156.943 630.375 156.617 629.284 155.966C628.201 155.314 627.341 154.42 626.705 153.284C626.076 152.148 625.758 150.848 625.75 149.386C625.75 147.871 626.098 146.511 626.795 145.307C627.5 144.095 628.481 143.14 629.739 142.443C630.996 141.739 632.466 141.394 634.148 141.409ZM634.159 144.818C633.341 144.818 632.602 145.019 631.943 145.42C631.292 145.814 630.777 146.352 630.398 147.034C630.027 147.708 629.841 148.462 629.841 149.295C629.848 150.121 630.034 150.871 630.398 151.545C630.769 152.22 631.273 152.754 631.909 153.148C632.553 153.542 633.288 153.739 634.114 153.739C634.727 153.739 635.299 153.621 635.83 153.386C636.36 153.152 636.822 152.826 637.216 152.409C637.617 151.985 637.928 151.504 638.148 150.966C638.375 150.428 638.485 149.86 638.477 149.261C638.477 148.466 638.288 147.731 637.909 147.057C637.538 146.383 637.027 145.841 636.375 145.432C635.731 145.023 634.992 144.818 634.159 144.818ZM425.892 190.477V186.977H441.017V190.477H425.892ZM425.892 197.75V194.25H441.017V197.75H425.892ZM454.224 204V200.955L462.304 193.034C463.077 192.254 463.721 191.561 464.236 190.955C464.751 190.348 465.137 189.761 465.395 189.193C465.652 188.625 465.781 188.019 465.781 187.375C465.781 186.64 465.615 186.011 465.281 185.489C464.948 184.958 464.49 184.549 463.906 184.261C463.323 183.973 462.66 183.83 461.918 183.83C461.152 183.83 460.482 183.989 459.906 184.307C459.33 184.617 458.884 185.061 458.565 185.636C458.255 186.212 458.099 186.898 458.099 187.693H454.088C454.088 186.216 454.425 184.932 455.099 183.841C455.774 182.75 456.702 181.905 457.884 181.307C459.073 180.708 460.437 180.409 461.974 180.409C463.535 180.409 464.906 180.701 466.088 181.284C467.27 181.867 468.187 182.667 468.838 183.682C469.497 184.697 469.827 185.856 469.827 187.159C469.827 188.03 469.66 188.886 469.327 189.727C468.993 190.568 468.406 191.5 467.565 192.523C466.732 193.545 465.562 194.784 464.054 196.239L460.043 200.318V200.477H470.179V204H454.224ZM496.116 200.455L482.787 187.148L485.355 184.568L498.673 197.886L496.116 200.455ZM485.355 200.455L482.787 197.886L496.116 184.568L498.673 187.148L485.355 200.455ZM511.506 204V200.955L519.585 193.034C520.358 192.254 521.002 191.561 521.517 190.955C522.032 190.348 522.419 189.761 522.676 189.193C522.934 188.625 523.062 188.019 523.062 187.375C523.062 186.64 522.896 186.011 522.562 185.489C522.229 184.958 521.771 184.549 521.188 184.261C520.604 183.973 519.941 183.83 519.199 183.83C518.434 183.83 517.763 183.989 517.188 184.307C516.612 184.617 516.165 185.061 515.847 185.636C515.536 186.212 515.381 186.898 515.381 187.693H511.369C511.369 186.216 511.706 184.932 512.381 183.841C513.055 182.75 513.983 181.905 515.165 181.307C516.354 180.708 517.718 180.409 519.256 180.409C520.816 180.409 522.188 180.701 523.369 181.284C524.551 181.867 525.468 182.667 526.119 183.682C526.778 184.697 527.108 185.856 527.108 187.159C527.108 188.03 526.941 188.886 526.608 189.727C526.275 190.568 525.688 191.5 524.847 192.523C524.013 193.545 522.843 194.784 521.335 196.239L517.324 200.318V200.477H527.46V204H511.506ZM553.398 200.455L540.068 187.148L542.636 184.568L555.955 197.886L553.398 200.455ZM542.636 200.455L540.068 197.886L553.398 184.568L555.955 187.148L542.636 200.455ZM568.787 204V200.955L576.866 193.034C577.639 192.254 578.283 191.561 578.798 190.955C579.313 190.348 579.7 189.761 579.957 189.193C580.215 188.625 580.344 188.019 580.344 187.375C580.344 186.64 580.177 186.011 579.844 185.489C579.51 184.958 579.052 184.549 578.469 184.261C577.885 183.973 577.223 183.83 576.48 183.83C575.715 183.83 575.045 183.989 574.469 184.307C573.893 184.617 573.446 185.061 573.128 185.636C572.817 186.212 572.662 186.898 572.662 187.693H568.651C568.651 186.216 568.988 184.932 569.662 183.841C570.336 182.75 571.264 181.905 572.446 181.307C573.635 180.708 574.999 180.409 576.537 180.409C578.098 180.409 579.469 180.701 580.651 181.284C581.832 181.867 582.749 182.667 583.401 183.682C584.06 184.697 584.389 185.856 584.389 187.159C584.389 188.03 584.223 188.886 583.889 189.727C583.556 190.568 582.969 191.5 582.128 192.523C581.295 193.545 580.124 194.784 578.616 196.239L574.605 200.318V200.477H584.741V204H568.787ZM610.679 200.455L597.349 187.148L599.918 184.568L613.236 197.886L610.679 200.455ZM599.918 200.455L597.349 197.886L610.679 184.568L613.236 187.148L599.918 200.455ZM634.42 204.318C632.784 204.318 631.33 204.038 630.057 203.477C628.792 202.917 627.792 202.136 627.057 201.136C626.322 200.136 625.932 198.981 625.886 197.67H630.159C630.197 198.299 630.405 198.848 630.784 199.318C631.163 199.78 631.667 200.14 632.295 200.398C632.924 200.655 633.629 200.784 634.409 200.784C635.242 200.784 635.981 200.64 636.625 200.352C637.269 200.057 637.773 199.648 638.136 199.125C638.5 198.602 638.678 198 638.67 197.318C638.678 196.614 638.496 195.992 638.125 195.455C637.754 194.917 637.216 194.496 636.511 194.193C635.814 193.89 634.973 193.739 633.989 193.739H631.932V190.489H633.989C634.799 190.489 635.508 190.348 636.114 190.068C636.727 189.788 637.208 189.394 637.557 188.886C637.905 188.371 638.076 187.777 638.068 187.102C638.076 186.443 637.928 185.871 637.625 185.386C637.33 184.894 636.909 184.511 636.364 184.239C635.826 183.966 635.193 183.83 634.466 183.83C633.754 183.83 633.095 183.958 632.489 184.216C631.883 184.473 631.394 184.841 631.023 185.318C630.652 185.788 630.455 186.348 630.432 187H626.375C626.405 185.697 626.78 184.553 627.5 183.568C628.227 182.576 629.197 181.803 630.409 181.25C631.621 180.689 632.981 180.409 634.489 180.409C636.042 180.409 637.39 180.701 638.534 181.284C639.686 181.86 640.576 182.636 641.205 183.614C641.833 184.591 642.148 185.67 642.148 186.852C642.155 188.163 641.769 189.261 640.989 190.148C640.216 191.034 639.201 191.614 637.943 191.886V192.068C639.58 192.295 640.833 192.902 641.705 193.886C642.583 194.864 643.019 196.08 643.011 197.534C643.011 198.837 642.64 200.004 641.898 201.034C641.163 202.057 640.148 202.86 638.852 203.443C637.564 204.027 636.087 204.318 634.42 204.318ZM668.929 200.455L655.599 187.148L658.168 184.568L671.486 197.886L668.929 200.455ZM658.168 200.455L655.599 197.886L668.929 184.568L671.486 187.148L658.168 200.455ZM692.67 204.318C691.034 204.318 689.58 204.038 688.307 203.477C687.042 202.917 686.042 202.136 685.307 201.136C684.572 200.136 684.182 198.981 684.136 197.67H688.409C688.447 198.299 688.655 198.848 689.034 199.318C689.413 199.78 689.917 200.14 690.545 200.398C691.174 200.655 691.879 200.784 692.659 200.784C693.492 200.784 694.231 200.64 694.875 200.352C695.519 200.057 696.023 199.648 696.386 199.125C696.75 198.602 696.928 198 696.92 197.318C696.928 196.614 696.746 195.992 696.375 195.455C696.004 194.917 695.466 194.496 694.761 194.193C694.064 193.89 693.223 193.739 692.239 193.739H690.182V190.489H692.239C693.049 190.489 693.758 190.348 694.364 190.068C694.977 189.788 695.458 189.394 695.807 188.886C696.155 188.371 696.326 187.777 696.318 187.102C696.326 186.443 696.178 185.871 695.875 185.386C695.58 184.894 695.159 184.511 694.614 184.239C694.076 183.966 693.443 183.83 692.716 183.83C692.004 183.83 691.345 183.958 690.739 184.216C690.133 184.473 689.644 184.841 689.273 185.318C688.902 185.788 688.705 186.348 688.682 187H684.625C684.655 185.697 685.03 184.553 685.75 183.568C686.477 182.576 687.447 181.803 688.659 181.25C689.871 180.689 691.231 180.409 692.739 180.409C694.292 180.409 695.64 180.701 696.784 181.284C697.936 181.86 698.826 182.636 699.455 183.614C700.083 184.591 700.398 185.67 700.398 186.852C700.405 188.163 700.019 189.261 699.239 190.148C698.466 191.034 697.451 191.614 696.193 191.886V192.068C697.83 192.295 699.083 192.902 699.955 193.886C700.833 194.864 701.269 196.08 701.261 197.534C701.261 198.837 700.89 200.004 700.148 201.034C699.413 202.057 698.398 202.86 697.102 203.443C695.814 204.027 694.337 204.318 692.67 204.318Z" fill="black"/>
</svg>
