<svg width="838" height="1350" viewBox="0 0 838 1350" fill="none" xmlns="http://www.w3.org/2000/svg">
<path d="M404.191 379.41L198.22 509.207L66.0248 308.092C29.5388 252.584 -46.2104 236.609 -103.058 272.433C-159.906 308.257 -176.432 382.382 -139.946 437.89L-4.09452 636.701L-213.721 768.803C-270.569 804.627 -287.095 878.751 -250.609 934.259C-214.123 989.767 -138.374 1005.74 -81.5258 969.918L125.755 834.247L256.641 1041.24C293.126 1096.74 368.876 1112.72 425.724 1076.89C482.572 1041.07 499.097 966.946 462.611 911.438L328.069 706.753L536.387 580.525C593.235 544.701 609.76 470.577 573.274 415.069C536.788 359.561 461.039 343.586 404.191 379.41Z" fill="url(#paint0_linear_53_37)"/>
<defs>
<linearGradient id="paint0_linear_53_37" x1="103.026" y1="1077.1" x2="165.105" y2="271.172" gradientUnits="userSpaceOnUse">
<stop stop-color="#78CAD6"/>
<stop offset="0.460776" stop-color="#0C667A"/>
<stop offset="0.910178" stop-color="#00171C"/>
</linearGradient>
</defs>
</svg>
