<svg width="749" height="229" viewBox="0 0 749 229" fill="none" xmlns="http://www.w3.org/2000/svg">
<rect width="749" height="229" fill="#CCCCCC"/>
<line x1="150" y1="25" x2="150" y2="208" stroke="#9B9B9B" stroke-width="2"/>
<line x1="373" y1="50.7686" x2="29" y2="50.7686" stroke="#9B9B9B" stroke-width="2"/>
<line x1="373" y1="176.176" x2="29" y2="176.176" stroke="#9B9B9B" stroke-width="2"/>
<line x1="373" y1="146.542" x2="29" y2="146.542" stroke="#9B9B9B" stroke-width="2"/>
<line x1="373" y1="116.479" x2="29" y2="116.479" stroke="#9B9B9B" stroke-width="2"/>
<line x1="373" y1="82.5498" x2="29" y2="82.5498" stroke="#9B9B9B" stroke-width="2"/>
<line x1="359" y1="25" x2="359" y2="208" stroke="#9B9B9B" stroke-width="2"/>
<line x1="328" y1="24" x2="328" y2="207" stroke="#9B9B9B" stroke-width="2"/>
<line x1="46" y1="24" x2="46" y2="207" stroke="#9B9B9B" stroke-width="2"/>
<line x1="254" y1="24" x2="254" y2="207" stroke="#9B9B9B" stroke-width="2"/>
<line x1="293" y1="24" x2="293" y2="207" stroke="#9B9B9B" stroke-width="2"/>
<line x1="183" y1="25" x2="183" y2="208" stroke="#9B9B9B" stroke-width="2"/>
<line x1="217" y1="25" x2="217" y2="208" stroke="#9B9B9B" stroke-width="2"/>
<line x1="113" y1="24" x2="113" y2="207" stroke="#9B9B9B" stroke-width="2"/>
<line x1="80" y1="24" x2="80" y2="207" stroke="#9B9B9B" stroke-width="2"/>
<line x1="494" y1="25" x2="494" y2="209" stroke="#9B9B9B" stroke-width="2"/>
<line x1="717" y1="50.7686" x2="373" y2="50.7686" stroke="#9B9B9B" stroke-width="2"/>
<line x1="717" y1="176.176" x2="373" y2="176.176" stroke="#9B9B9B" stroke-width="2"/>
<line x1="717" y1="146.542" x2="373" y2="146.542" stroke="#9B9B9B" stroke-width="2"/>
<line x1="717" y1="116.479" x2="373" y2="116.479" stroke="#9B9B9B" stroke-width="2"/>
<line x1="717" y1="82.5498" x2="373" y2="82.5498" stroke="#9B9B9B" stroke-width="2"/>
<line x1="703" y1="25" x2="703" y2="209" stroke="#9B9B9B" stroke-width="2"/>
<line x1="672" y1="24" x2="672" y2="208" stroke="#9B9B9B" stroke-width="2"/>
<line x1="390" y1="24" x2="390" y2="208" stroke="#9B9B9B" stroke-width="2"/>
<line x1="598" y1="24" x2="598" y2="208" stroke="#9B9B9B" stroke-width="2"/>
<line x1="637" y1="24" x2="637" y2="208" stroke="#9B9B9B" stroke-width="2"/>
<line x1="527" y1="25" x2="527" y2="209" stroke="#9B9B9B" stroke-width="2"/>
<line x1="561" y1="25" x2="561" y2="209" stroke="#9B9B9B" stroke-width="2"/>
<line x1="457" y1="24" x2="457" y2="208" stroke="#9B9B9B" stroke-width="2"/>
<line x1="424" y1="24" x2="424" y2="208" stroke="#9B9B9B" stroke-width="2"/>
<rect x="639" y="85" width="73" height="32" fill="#E2BB57"/>
<path d="M77.4205 89.7273V113H73.6705L62.7045 97.1477H62.5114V113H58.2955V89.7273H62.0682L73.0227 105.591H73.2273V89.7273H77.4205ZM81.5824 113V110.375L93.5142 93.2614H81.5142V89.7273H98.7415V92.3523L86.821 109.466H98.8097V113H81.5824ZM106.003 89.7273L112.06 108.045H112.298L118.344 89.7273H122.98L114.776 113H109.571L101.378 89.7273H106.003ZM134.824 101.364C134.824 98.5227 135.199 95.9129 135.949 93.5341C136.706 91.1477 137.831 88.9432 139.324 86.9205H143.199C142.623 87.6705 142.085 88.5909 141.585 89.6818C141.085 90.7652 140.65 91.9545 140.278 93.25C139.915 94.5379 139.627 95.875 139.415 97.2614C139.21 98.6477 139.108 100.015 139.108 101.364C139.108 103.159 139.286 104.977 139.642 106.818C140.006 108.659 140.494 110.367 141.108 111.943C141.729 113.511 142.426 114.795 143.199 115.795H139.324C137.831 113.773 136.706 111.572 135.949 109.193C135.199 106.807 134.824 104.197 134.824 101.364ZM153.866 108.682V105.33L163.741 89.7273H166.537V94.5H164.832L158.185 105.034V105.216H171.969V108.682H153.866ZM164.969 113V107.659L165.014 106.159V89.7273H168.991V113H164.969ZM183.872 113.318C182.183 113.318 180.683 113.034 179.372 112.466C178.069 111.898 177.046 111.121 176.304 110.136C175.569 109.144 175.205 108.019 175.213 106.761C175.205 105.784 175.418 104.886 175.849 104.068C176.281 103.25 176.865 102.568 177.599 102.023C178.342 101.47 179.168 101.117 180.077 100.966V100.807C178.88 100.542 177.91 99.9318 177.168 98.9773C176.433 98.0152 176.069 96.9053 176.077 95.6477C176.069 94.4508 176.402 93.3826 177.077 92.4432C177.751 91.5038 178.675 90.7652 179.849 90.2273C181.024 89.6818 182.365 89.4091 183.872 89.4091C185.365 89.4091 186.694 89.6818 187.861 90.2273C189.035 90.7652 189.959 91.5038 190.634 92.4432C191.315 93.3826 191.656 94.4508 191.656 95.6477C191.656 96.9053 191.281 98.0152 190.531 98.9773C189.789 99.9318 188.83 100.542 187.656 100.807V100.966C188.565 101.117 189.384 101.47 190.111 102.023C190.846 102.568 191.429 103.25 191.861 104.068C192.3 104.886 192.52 105.784 192.52 106.761C192.52 108.019 192.149 109.144 191.406 110.136C190.664 111.121 189.641 111.898 188.338 112.466C187.043 113.034 185.554 113.318 183.872 113.318ZM183.872 110.068C184.743 110.068 185.501 109.92 186.145 109.625C186.789 109.322 187.289 108.898 187.645 108.352C188.001 107.807 188.183 107.178 188.19 106.466C188.183 105.723 187.99 105.068 187.611 104.5C187.24 103.924 186.728 103.473 186.077 103.148C185.433 102.822 184.698 102.659 183.872 102.659C183.039 102.659 182.296 102.822 181.645 103.148C180.993 103.473 180.478 103.924 180.099 104.5C179.728 105.068 179.546 105.723 179.554 106.466C179.546 107.178 179.721 107.807 180.077 108.352C180.433 108.89 180.933 109.311 181.577 109.614C182.228 109.917 182.993 110.068 183.872 110.068ZM183.872 99.4659C184.584 99.4659 185.213 99.322 185.759 99.0341C186.312 98.7462 186.747 98.3447 187.065 97.8295C187.384 97.3144 187.546 96.7197 187.554 96.0455C187.546 95.3788 187.387 94.7955 187.077 94.2955C186.766 93.7879 186.334 93.3977 185.781 93.125C185.228 92.8447 184.592 92.7045 183.872 92.7045C183.137 92.7045 182.49 92.8447 181.929 93.125C181.376 93.3977 180.944 93.7879 180.634 94.2955C180.33 94.7955 180.183 95.3788 180.19 96.0455C180.183 96.7197 180.334 97.3144 180.645 97.8295C180.963 98.3371 181.399 98.7386 181.952 99.0341C182.512 99.322 183.152 99.4659 183.872 99.4659ZM200.443 109.818L200.295 111.068C200.189 112.023 200 112.992 199.727 113.977C199.462 114.97 199.182 115.883 198.886 116.716C198.591 117.549 198.352 118.205 198.17 118.682H195.398C195.504 118.22 195.648 117.591 195.83 116.795C196.019 116 196.201 115.106 196.375 114.114C196.549 113.121 196.667 112.114 196.727 111.091L196.807 109.818H200.443ZM205.108 113L215.006 93.4091V93.25H203.517V89.7273H219.369V93.3295L209.483 113H205.108ZM223.037 113V109.955L231.116 102.034C231.889 101.254 232.533 100.561 233.048 99.9545C233.563 99.3485 233.95 98.7614 234.207 98.1932C234.465 97.625 234.594 97.0189 234.594 96.375C234.594 95.6402 234.427 95.0114 234.094 94.4886C233.76 93.9583 233.302 93.5492 232.719 93.2614C232.135 92.9735 231.473 92.8295 230.73 92.8295C229.965 92.8295 229.295 92.9886 228.719 93.3068C228.143 93.6174 227.696 94.0606 227.378 94.6364C227.067 95.2121 226.912 95.8977 226.912 96.6932H222.901C222.901 95.2159 223.238 93.9318 223.912 92.8409C224.586 91.75 225.514 90.9053 226.696 90.3068C227.885 89.7083 229.249 89.4091 230.787 89.4091C232.348 89.4091 233.719 89.7008 234.901 90.2841C236.082 90.8674 236.999 91.6667 237.651 92.6818C238.31 93.697 238.639 94.8561 238.639 96.1591C238.639 97.0303 238.473 97.8864 238.139 98.7273C237.806 99.5682 237.219 100.5 236.378 101.523C235.545 102.545 234.374 103.784 232.866 105.239L228.855 109.318V109.477H238.991V113H223.037ZM250.298 101.364C250.298 104.197 249.92 106.807 249.162 109.193C248.412 111.572 247.291 113.773 245.798 115.795H241.923C242.507 115.045 243.045 114.129 243.537 113.045C244.037 111.962 244.469 110.773 244.832 109.477C245.204 108.182 245.491 106.841 245.696 105.455C245.908 104.068 246.014 102.705 246.014 101.364C246.014 99.5682 245.832 97.75 245.469 95.9091C245.113 94.0682 244.624 92.3598 244.003 90.7841C243.389 89.2083 242.696 87.9205 241.923 86.9205H245.798C247.291 88.9432 248.412 91.1477 249.162 93.5341C249.92 95.9129 250.298 98.5227 250.298 101.364ZM264.58 99.4773V95.9773H279.705V99.4773H264.58ZM264.58 106.75V103.25H279.705V106.75H264.58ZM300.849 113V109.955L308.929 102.034C309.702 101.254 310.346 100.561 310.861 99.9545C311.376 99.3485 311.762 98.7614 312.02 98.1932C312.277 97.625 312.406 97.0189 312.406 96.375C312.406 95.6402 312.24 95.0114 311.906 94.4886C311.573 93.9583 311.115 93.5492 310.531 93.2614C309.948 92.9735 309.285 92.8295 308.543 92.8295C307.777 92.8295 307.107 92.9886 306.531 93.3068C305.955 93.6174 305.509 94.0606 305.19 94.6364C304.88 95.2121 304.724 95.8977 304.724 96.6932H300.713C300.713 95.2159 301.05 93.9318 301.724 92.8409C302.399 91.75 303.327 90.9053 304.509 90.3068C305.698 89.7083 307.062 89.4091 308.599 89.4091C310.16 89.4091 311.531 89.7008 312.713 90.2841C313.895 90.8674 314.812 91.6667 315.463 92.6818C316.122 93.697 316.452 94.8561 316.452 96.1591C316.452 97.0303 316.285 97.8864 315.952 98.7273C315.618 99.5682 315.031 100.5 314.19 101.523C313.357 102.545 312.187 103.784 310.679 105.239L306.668 109.318V109.477H316.804V113H300.849ZM342.741 109.455L329.412 96.1477L331.98 93.5682L345.298 106.886L342.741 109.455ZM331.98 109.455L329.412 106.886L342.741 93.5682L345.298 96.1477L331.98 109.455ZM358.131 113V109.955L366.21 102.034C366.983 101.254 367.627 100.561 368.142 99.9545C368.657 99.3485 369.044 98.7614 369.301 98.1932C369.559 97.625 369.688 97.0189 369.688 96.375C369.688 95.6402 369.521 95.0114 369.188 94.4886C368.854 93.9583 368.396 93.5492 367.812 93.2614C367.229 92.9735 366.566 92.8295 365.824 92.8295C365.059 92.8295 364.388 92.9886 363.812 93.3068C363.237 93.6174 362.79 94.0606 362.472 94.6364C362.161 95.2121 362.006 95.8977 362.006 96.6932H357.994C357.994 95.2159 358.331 93.9318 359.006 92.8409C359.68 91.75 360.608 90.9053 361.79 90.3068C362.979 89.7083 364.343 89.4091 365.881 89.4091C367.441 89.4091 368.813 89.7008 369.994 90.2841C371.176 90.8674 372.093 91.6667 372.744 92.6818C373.403 93.697 373.733 94.8561 373.733 96.1591C373.733 97.0303 373.566 97.8864 373.233 98.7273C372.9 99.5682 372.313 100.5 371.472 101.523C370.638 102.545 369.468 103.784 367.96 105.239L363.949 109.318V109.477H374.085V113H358.131ZM400.023 109.455L386.693 96.1477L389.261 93.5682L402.58 106.886L400.023 109.455ZM389.261 109.455L386.693 106.886L400.023 93.5682L402.58 96.1477L389.261 109.455ZM415.412 113V109.955L423.491 102.034C424.264 101.254 424.908 100.561 425.423 99.9545C425.938 99.3485 426.325 98.7614 426.582 98.1932C426.84 97.625 426.969 97.0189 426.969 96.375C426.969 95.6402 426.802 95.0114 426.469 94.4886C426.135 93.9583 425.677 93.5492 425.094 93.2614C424.51 92.9735 423.848 92.8295 423.105 92.8295C422.34 92.8295 421.67 92.9886 421.094 93.3068C420.518 93.6174 420.071 94.0606 419.753 94.6364C419.442 95.2121 419.287 95.8977 419.287 96.6932H415.276C415.276 95.2159 415.613 93.9318 416.287 92.8409C416.961 91.75 417.889 90.9053 419.071 90.3068C420.26 89.7083 421.624 89.4091 423.162 89.4091C424.723 89.4091 426.094 89.7008 427.276 90.2841C428.457 90.8674 429.374 91.6667 430.026 92.6818C430.685 93.697 431.014 94.8561 431.014 96.1591C431.014 97.0303 430.848 97.8864 430.514 98.7273C430.181 99.5682 429.594 100.5 428.753 101.523C427.92 102.545 426.749 103.784 425.241 105.239L421.23 109.318V109.477H431.366V113H415.412ZM457.304 109.455L443.974 96.1477L446.543 93.5682L459.861 106.886L457.304 109.455ZM446.543 109.455L443.974 106.886L457.304 93.5682L459.861 96.1477L446.543 109.455ZM472.693 113V109.955L480.773 102.034C481.545 101.254 482.189 100.561 482.705 99.9545C483.22 99.3485 483.606 98.7614 483.864 98.1932C484.121 97.625 484.25 97.0189 484.25 96.375C484.25 95.6402 484.083 95.0114 483.75 94.4886C483.417 93.9583 482.958 93.5492 482.375 93.2614C481.792 92.9735 481.129 92.8295 480.386 92.8295C479.621 92.8295 478.951 92.9886 478.375 93.3068C477.799 93.6174 477.352 94.0606 477.034 94.6364C476.723 95.2121 476.568 95.8977 476.568 96.6932H472.557C472.557 95.2159 472.894 93.9318 473.568 92.8409C474.242 91.75 475.17 90.9053 476.352 90.3068C477.542 89.7083 478.905 89.4091 480.443 89.4091C482.004 89.4091 483.375 89.7008 484.557 90.2841C485.739 90.8674 486.655 91.6667 487.307 92.6818C487.966 93.697 488.295 94.8561 488.295 96.1591C488.295 97.0303 488.129 97.8864 487.795 98.7273C487.462 99.5682 486.875 100.5 486.034 101.523C485.201 102.545 484.03 103.784 482.523 105.239L478.511 109.318V109.477H488.648V113H472.693ZM514.585 109.455L501.256 96.1477L503.824 93.5682L517.142 106.886L514.585 109.455ZM503.824 109.455L501.256 106.886L514.585 93.5682L517.142 96.1477L503.824 109.455ZM538.327 113.318C536.69 113.318 535.236 113.038 533.963 112.477C532.698 111.917 531.698 111.136 530.963 110.136C530.228 109.136 529.838 107.981 529.793 106.67H534.065C534.103 107.299 534.312 107.848 534.69 108.318C535.069 108.78 535.573 109.14 536.202 109.398C536.83 109.655 537.535 109.784 538.315 109.784C539.149 109.784 539.887 109.64 540.531 109.352C541.175 109.057 541.679 108.648 542.043 108.125C542.406 107.602 542.584 107 542.577 106.318C542.584 105.614 542.402 104.992 542.031 104.455C541.66 103.917 541.122 103.496 540.418 103.193C539.721 102.89 538.88 102.739 537.895 102.739H535.838V99.4886H537.895C538.705 99.4886 539.414 99.3485 540.02 99.0682C540.634 98.7879 541.115 98.3939 541.463 97.8864C541.812 97.3712 541.982 96.7765 541.974 96.1023C541.982 95.4432 541.834 94.8712 541.531 94.3864C541.236 93.8939 540.815 93.5114 540.27 93.2386C539.732 92.9659 539.099 92.8295 538.372 92.8295C537.66 92.8295 537.001 92.9583 536.395 93.2159C535.789 93.4735 535.3 93.8409 534.929 94.3182C534.558 94.7879 534.361 95.3485 534.338 96H530.281C530.312 94.697 530.687 93.553 531.406 92.5682C532.134 91.5758 533.103 90.803 534.315 90.25C535.527 89.6894 536.887 89.4091 538.395 89.4091C539.948 89.4091 541.296 89.7008 542.44 90.2841C543.592 90.8598 544.482 91.6364 545.111 92.6136C545.74 93.5909 546.054 94.6705 546.054 95.8523C546.062 97.1629 545.675 98.2614 544.895 99.1477C544.122 100.034 543.107 100.614 541.849 100.886V101.068C543.486 101.295 544.74 101.902 545.611 102.886C546.49 103.864 546.925 105.08 546.918 106.534C546.918 107.837 546.546 109.004 545.804 110.034C545.069 111.057 544.054 111.86 542.759 112.443C541.471 113.027 539.993 113.318 538.327 113.318ZM572.835 109.455L559.506 96.1477L562.074 93.5682L575.392 106.886L572.835 109.455ZM562.074 109.455L559.506 106.886L572.835 93.5682L575.392 96.1477L562.074 109.455ZM596.577 113.318C594.94 113.318 593.486 113.038 592.213 112.477C590.948 111.917 589.948 111.136 589.213 110.136C588.478 109.136 588.088 107.981 588.043 106.67H592.315C592.353 107.299 592.562 107.848 592.94 108.318C593.319 108.78 593.823 109.14 594.452 109.398C595.08 109.655 595.785 109.784 596.565 109.784C597.399 109.784 598.137 109.64 598.781 109.352C599.425 109.057 599.929 108.648 600.293 108.125C600.656 107.602 600.834 107 600.827 106.318C600.834 105.614 600.652 104.992 600.281 104.455C599.91 103.917 599.372 103.496 598.668 103.193C597.971 102.89 597.13 102.739 596.145 102.739H594.088V99.4886H596.145C596.955 99.4886 597.664 99.3485 598.27 99.0682C598.884 98.7879 599.365 98.3939 599.713 97.8864C600.062 97.3712 600.232 96.7765 600.224 96.1023C600.232 95.4432 600.084 94.8712 599.781 94.3864C599.486 93.8939 599.065 93.5114 598.52 93.2386C597.982 92.9659 597.349 92.8295 596.622 92.8295C595.91 92.8295 595.251 92.9583 594.645 93.2159C594.039 93.4735 593.55 93.8409 593.179 94.3182C592.808 94.7879 592.611 95.3485 592.588 96H588.531C588.562 94.697 588.937 93.553 589.656 92.5682C590.384 91.5758 591.353 90.803 592.565 90.25C593.777 89.6894 595.137 89.4091 596.645 89.4091C598.198 89.4091 599.546 89.7008 600.69 90.2841C601.842 90.8598 602.732 91.6364 603.361 92.6136C603.99 93.5909 604.304 94.6705 604.304 95.8523C604.312 97.1629 603.925 98.2614 603.145 99.1477C602.372 100.034 601.357 100.614 600.099 100.886V101.068C601.736 101.295 602.99 101.902 603.861 102.886C604.74 103.864 605.175 105.08 605.168 106.534C605.168 107.837 604.796 109.004 604.054 110.034C603.319 111.057 602.304 111.86 601.009 112.443C599.721 113.027 598.243 113.318 596.577 113.318ZM618.142 99.4773V95.9773H633.267V99.4773H618.142ZM618.142 106.75V103.25H633.267V106.75H618.142ZM655.94 89.7273V113H651.724V93.8295H651.588L646.145 97.3068V93.4432L651.929 89.7273H655.94ZM661.429 108.682V105.33L671.304 89.7273H674.099V94.5H672.395L665.747 105.034V105.216H679.531V108.682H661.429ZM672.531 113V107.659L672.577 106.159V89.7273H676.554V113H672.531ZM682.741 108.682V105.33L692.616 89.7273H695.412V94.5H693.707L687.06 105.034V105.216H700.844V108.682H682.741ZM693.844 113V107.659L693.889 106.159V89.7273H697.866V113H693.844Z" fill="black"/>
</svg>
