<svg width="749" height="318" viewBox="0 0 749 318" fill="none" xmlns="http://www.w3.org/2000/svg">
<rect width="749" height="318" fill="#CCCCCC"/>
<line x1="149.652" y1="25.718" x2="149.652" y2="295" stroke="#9B9B9B" stroke-width="2"/>
<line x1="373" y1="50.7686" x2="29" y2="50.7686" stroke="#9B9B9B" stroke-width="2"/>
<line x1="373" y1="271.949" x2="29" y2="271.949" stroke="#9B9B9B" stroke-width="2"/>
<line x1="373" y1="243.604" x2="29" y2="243.604" stroke="#9B9B9B" stroke-width="2"/>
<line x1="373" y1="209.675" x2="29" y2="209.675" stroke="#9B9B9B" stroke-width="2"/>
<line x1="373" y1="176.176" x2="29" y2="176.176" stroke="#9B9B9B" stroke-width="2"/>
<line x1="373" y1="146.542" x2="29" y2="146.542" stroke="#9B9B9B" stroke-width="2"/>
<line x1="373" y1="116.479" x2="29" y2="116.479" stroke="#9B9B9B" stroke-width="2"/>
<line x1="373" y1="82.55" x2="29" y2="82.55" stroke="#9B9B9B" stroke-width="2"/>
<line x1="359.044" y1="25.718" x2="359.044" y2="295" stroke="#9B9B9B" stroke-width="2"/>
<line x1="328.251" y1="24" x2="328.251" y2="293.282" stroke="#9B9B9B" stroke-width="2"/>
<line x1="46.2764" y1="24" x2="46.2764" y2="293.282" stroke="#9B9B9B" stroke-width="2"/>
<line x1="254.348" y1="24" x2="254.348" y2="293.282" stroke="#9B9B9B" stroke-width="2"/>
<line x1="292.619" y1="24" x2="292.619" y2="293.282" stroke="#9B9B9B" stroke-width="2"/>
<line x1="183.084" y1="25.718" x2="183.084" y2="295" stroke="#9B9B9B" stroke-width="2"/>
<line x1="217.396" y1="25.718" x2="217.396" y2="295" stroke="#9B9B9B" stroke-width="2"/>
<line x1="113.141" y1="24" x2="113.141" y2="293.282" stroke="#9B9B9B" stroke-width="2"/>
<line x1="79.708" y1="24" x2="79.708" y2="293.282" stroke="#9B9B9B" stroke-width="2"/>
<line x1="493.652" y1="25.718" x2="493.652" y2="295" stroke="#9B9B9B" stroke-width="2"/>
<line x1="717" y1="50.7686" x2="373" y2="50.7686" stroke="#9B9B9B" stroke-width="2"/>
<line x1="717" y1="271.949" x2="373" y2="271.949" stroke="#9B9B9B" stroke-width="2"/>
<line x1="717" y1="243.604" x2="373" y2="243.604" stroke="#9B9B9B" stroke-width="2"/>
<line x1="717" y1="209.675" x2="373" y2="209.675" stroke="#9B9B9B" stroke-width="2"/>
<line x1="717" y1="176.176" x2="373" y2="176.176" stroke="#9B9B9B" stroke-width="2"/>
<line x1="717" y1="146.542" x2="373" y2="146.542" stroke="#9B9B9B" stroke-width="2"/>
<line x1="717" y1="116.479" x2="373" y2="116.479" stroke="#9B9B9B" stroke-width="2"/>
<line x1="717" y1="82.55" x2="373" y2="82.55" stroke="#9B9B9B" stroke-width="2"/>
<line x1="703.044" y1="25.718" x2="703.044" y2="295" stroke="#9B9B9B" stroke-width="2"/>
<line x1="672.251" y1="24" x2="672.251" y2="293.282" stroke="#9B9B9B" stroke-width="2"/>
<line x1="390.276" y1="24" x2="390.276" y2="293.282" stroke="#9B9B9B" stroke-width="2"/>
<line x1="598.348" y1="24" x2="598.348" y2="293.282" stroke="#9B9B9B" stroke-width="2"/>
<line x1="636.619" y1="24" x2="636.619" y2="293.282" stroke="#9B9B9B" stroke-width="2"/>
<line x1="527.084" y1="25.718" x2="527.084" y2="295" stroke="#9B9B9B" stroke-width="2"/>
<line x1="561.396" y1="25.718" x2="561.396" y2="295" stroke="#9B9B9B" stroke-width="2"/>
<line x1="457.141" y1="24" x2="457.141" y2="293.282" stroke="#9B9B9B" stroke-width="2"/>
<line x1="423.708" y1="24" x2="423.708" y2="293.282" stroke="#9B9B9B" stroke-width="2"/>
<rect x="121" y="182" width="199" height="34" fill="#E2BB57"/>
<path d="M57.6477 88.6818V85.3295L67.5227 69.7273H70.3182V74.5H68.6136L61.9659 85.0341V85.2159H75.75V88.6818H57.6477ZM68.75 93V87.6591L68.7955 86.1591V69.7273H72.7727V93H68.75ZM87.6534 93.3182C85.964 93.3182 84.464 93.0341 83.1534 92.4659C81.8504 91.8977 80.8277 91.1212 80.0852 90.1364C79.3504 89.1439 78.9867 88.0189 78.9943 86.7614C78.9867 85.7841 79.1989 84.8864 79.6307 84.0682C80.0625 83.25 80.6458 82.5682 81.3807 82.0227C82.1231 81.4697 82.9489 81.1174 83.858 80.9659V80.8068C82.661 80.5417 81.6913 79.9318 80.9489 78.9773C80.214 78.0152 79.8504 76.9053 79.858 75.6477C79.8504 74.4508 80.1837 73.3826 80.858 72.4432C81.5322 71.5038 82.4564 70.7652 83.6307 70.2273C84.8049 69.6818 86.1458 69.4091 87.6534 69.4091C89.1458 69.4091 90.4754 69.6818 91.642 70.2273C92.8163 70.7652 93.7405 71.5038 94.4148 72.4432C95.0966 73.3826 95.4375 74.4508 95.4375 75.6477C95.4375 76.9053 95.0625 78.0152 94.3125 78.9773C93.5701 79.9318 92.6117 80.5417 91.4375 80.8068V80.9659C92.3466 81.1174 93.1648 81.4697 93.892 82.0227C94.6269 82.5682 95.2102 83.25 95.642 84.0682C96.0814 84.8864 96.3011 85.7841 96.3011 86.7614C96.3011 88.0189 95.9299 89.1439 95.1875 90.1364C94.4451 91.1212 93.4223 91.8977 92.1193 92.4659C90.8239 93.0341 89.3352 93.3182 87.6534 93.3182ZM87.6534 90.0682C88.5246 90.0682 89.2822 89.9205 89.9261 89.625C90.5701 89.322 91.0701 88.8977 91.4261 88.3523C91.7822 87.8068 91.964 87.178 91.9716 86.4659C91.964 85.7235 91.7708 85.0682 91.392 84.5C91.0208 83.9242 90.5095 83.4735 89.858 83.1477C89.214 82.822 88.4792 82.6591 87.6534 82.6591C86.8201 82.6591 86.0777 82.822 85.4261 83.1477C84.7746 83.4735 84.2595 83.9242 83.8807 84.5C83.5095 85.0682 83.3277 85.7235 83.3352 86.4659C83.3277 87.178 83.5019 87.8068 83.858 88.3523C84.214 88.8902 84.714 89.3106 85.358 89.6136C86.0095 89.9167 86.7746 90.0682 87.6534 90.0682ZM87.6534 79.4659C88.3655 79.4659 88.9943 79.322 89.5398 79.0341C90.0928 78.7462 90.5284 78.3447 90.8466 77.8295C91.1648 77.3144 91.3277 76.7197 91.3352 76.0455C91.3277 75.3788 91.1686 74.7955 90.858 74.2955C90.5473 73.7879 90.1155 73.3977 89.5625 73.125C89.0095 72.8447 88.3731 72.7045 87.6534 72.7045C86.9186 72.7045 86.2708 72.8447 85.7102 73.125C85.1572 73.3977 84.7254 73.7879 84.4148 74.2955C84.1117 74.7955 83.964 75.3788 83.9716 76.0455C83.964 76.7197 84.1155 77.3144 84.4261 77.8295C84.7443 78.3371 85.1799 78.7386 85.733 79.0341C86.2936 79.322 86.9337 79.4659 87.6534 79.4659ZM101.173 79.4773V75.9773H116.298V79.4773H101.173ZM101.173 86.75V83.25H116.298V86.75H101.173ZM129.506 93V89.9545L137.585 82.0341C138.358 81.2538 139.002 80.5606 139.517 79.9545C140.032 79.3485 140.419 78.7614 140.676 78.1932C140.934 77.625 141.062 77.0189 141.062 76.375C141.062 75.6402 140.896 75.0114 140.562 74.4886C140.229 73.9583 139.771 73.5492 139.188 73.2614C138.604 72.9735 137.941 72.8295 137.199 72.8295C136.434 72.8295 135.763 72.9886 135.188 73.3068C134.612 73.6174 134.165 74.0606 133.847 74.6364C133.536 75.2121 133.381 75.8977 133.381 76.6932H129.369C129.369 75.2159 129.706 73.9318 130.381 72.8409C131.055 71.75 131.983 70.9053 133.165 70.3068C134.354 69.7083 135.718 69.4091 137.256 69.4091C138.816 69.4091 140.188 69.7008 141.369 70.2841C142.551 70.8674 143.468 71.6667 144.119 72.6818C144.778 73.697 145.108 74.8561 145.108 76.1591C145.108 77.0303 144.941 77.8864 144.608 78.7273C144.275 79.5682 143.688 80.5 142.847 81.5227C142.013 82.5455 140.843 83.7841 139.335 85.2386L135.324 89.3182V89.4773H145.46V93H129.506ZM171.398 89.4545L158.068 76.1477L160.636 73.5682L173.955 86.8864L171.398 89.4545ZM160.636 89.4545L158.068 86.8864L171.398 73.5682L173.955 76.1477L160.636 89.4545ZM186.787 93V89.9545L194.866 82.0341C195.639 81.2538 196.283 80.5606 196.798 79.9545C197.313 79.3485 197.7 78.7614 197.957 78.1932C198.215 77.625 198.344 77.0189 198.344 76.375C198.344 75.6402 198.177 75.0114 197.844 74.4886C197.51 73.9583 197.052 73.5492 196.469 73.2614C195.885 72.9735 195.223 72.8295 194.48 72.8295C193.715 72.8295 193.045 72.9886 192.469 73.3068C191.893 73.6174 191.446 74.0606 191.128 74.6364C190.817 75.2121 190.662 75.8977 190.662 76.6932H186.651C186.651 75.2159 186.988 73.9318 187.662 72.8409C188.336 71.75 189.264 70.9053 190.446 70.3068C191.635 69.7083 192.999 69.4091 194.537 69.4091C196.098 69.4091 197.469 69.7008 198.651 70.2841C199.832 70.8674 200.749 71.6667 201.401 72.6818C202.06 73.697 202.389 74.8561 202.389 76.1591C202.389 77.0303 202.223 77.8864 201.889 78.7273C201.556 79.5682 200.969 80.5 200.128 81.5227C199.295 82.5455 198.124 83.7841 196.616 85.2386L192.605 89.3182V89.4773H202.741V93H186.787ZM205.741 88.6818V85.3295L215.616 69.7273H218.412V74.5H216.707L210.06 85.0341V85.2159H223.844V88.6818H205.741ZM216.844 93V87.6591L216.889 86.1591V69.7273H220.866V93H216.844ZM98.892 118.477V114.977H114.017V118.477H98.892ZM98.892 125.75V122.25H114.017V125.75H98.892ZM127.224 132V128.955L135.304 121.034C136.077 120.254 136.721 119.561 137.236 118.955C137.751 118.348 138.137 117.761 138.395 117.193C138.652 116.625 138.781 116.019 138.781 115.375C138.781 114.64 138.615 114.011 138.281 113.489C137.948 112.958 137.49 112.549 136.906 112.261C136.323 111.973 135.66 111.83 134.918 111.83C134.152 111.83 133.482 111.989 132.906 112.307C132.33 112.617 131.884 113.061 131.565 113.636C131.255 114.212 131.099 114.898 131.099 115.693H127.088C127.088 114.216 127.425 112.932 128.099 111.841C128.774 110.75 129.702 109.905 130.884 109.307C132.073 108.708 133.437 108.409 134.974 108.409C136.535 108.409 137.906 108.701 139.088 109.284C140.27 109.867 141.187 110.667 141.838 111.682C142.497 112.697 142.827 113.856 142.827 115.159C142.827 116.03 142.66 116.886 142.327 117.727C141.993 118.568 141.406 119.5 140.565 120.523C139.732 121.545 138.562 122.784 137.054 124.239L133.043 128.318V128.477H143.179V132H127.224ZM169.116 128.455L155.787 115.148L158.355 112.568L171.673 125.886L169.116 128.455ZM158.355 128.455L155.787 125.886L169.116 112.568L171.673 115.148L158.355 128.455ZM184.506 132V128.955L192.585 121.034C193.358 120.254 194.002 119.561 194.517 118.955C195.032 118.348 195.419 117.761 195.676 117.193C195.934 116.625 196.062 116.019 196.062 115.375C196.062 114.64 195.896 114.011 195.562 113.489C195.229 112.958 194.771 112.549 194.188 112.261C193.604 111.973 192.941 111.83 192.199 111.83C191.434 111.83 190.763 111.989 190.188 112.307C189.612 112.617 189.165 113.061 188.847 113.636C188.536 114.212 188.381 114.898 188.381 115.693H184.369C184.369 114.216 184.706 112.932 185.381 111.841C186.055 110.75 186.983 109.905 188.165 109.307C189.354 108.708 190.718 108.409 192.256 108.409C193.816 108.409 195.188 108.701 196.369 109.284C197.551 109.867 198.468 110.667 199.119 111.682C199.778 112.697 200.108 113.856 200.108 115.159C200.108 116.03 199.941 116.886 199.608 117.727C199.275 118.568 198.688 119.5 197.847 120.523C197.013 121.545 195.843 122.784 194.335 124.239L190.324 128.318V128.477H200.46V132H184.506ZM226.398 128.455L213.068 115.148L215.636 112.568L228.955 125.886L226.398 128.455ZM215.636 128.455L213.068 125.886L226.398 112.568L228.955 115.148L215.636 128.455ZM251.253 108.727V132H247.037V112.83H246.901L241.457 116.307V112.443L247.241 108.727H251.253ZM257.162 132V128.955L265.241 121.034C266.014 120.254 266.658 119.561 267.173 118.955C267.688 118.348 268.075 117.761 268.332 117.193C268.59 116.625 268.719 116.019 268.719 115.375C268.719 114.64 268.552 114.011 268.219 113.489C267.885 112.958 267.427 112.549 266.844 112.261C266.26 111.973 265.598 111.83 264.855 111.83C264.09 111.83 263.42 111.989 262.844 112.307C262.268 112.617 261.821 113.061 261.503 113.636C261.192 114.212 261.037 114.898 261.037 115.693H257.026C257.026 114.216 257.363 112.932 258.037 111.841C258.711 110.75 259.639 109.905 260.821 109.307C262.01 108.708 263.374 108.409 264.912 108.409C266.473 108.409 267.844 108.701 269.026 109.284C270.207 109.867 271.124 110.667 271.776 111.682C272.435 112.697 272.764 113.856 272.764 115.159C272.764 116.03 272.598 116.886 272.264 117.727C271.931 118.568 271.344 119.5 270.503 120.523C269.67 121.545 268.499 122.784 266.991 124.239L262.98 128.318V128.477H273.116V132H257.162ZM98.892 157.477V153.977H114.017V157.477H98.892ZM98.892 164.75V161.25H114.017V164.75H98.892ZM127.224 171V167.955L135.304 160.034C136.077 159.254 136.721 158.561 137.236 157.955C137.751 157.348 138.137 156.761 138.395 156.193C138.652 155.625 138.781 155.019 138.781 154.375C138.781 153.64 138.615 153.011 138.281 152.489C137.948 151.958 137.49 151.549 136.906 151.261C136.323 150.973 135.66 150.83 134.918 150.83C134.152 150.83 133.482 150.989 132.906 151.307C132.33 151.617 131.884 152.061 131.565 152.636C131.255 153.212 131.099 153.898 131.099 154.693H127.088C127.088 153.216 127.425 151.932 128.099 150.841C128.774 149.75 129.702 148.905 130.884 148.307C132.073 147.708 133.437 147.409 134.974 147.409C136.535 147.409 137.906 147.701 139.088 148.284C140.27 148.867 141.187 149.667 141.838 150.682C142.497 151.697 142.827 152.856 142.827 154.159C142.827 155.03 142.66 155.886 142.327 156.727C141.993 157.568 141.406 158.5 140.565 159.523C139.732 160.545 138.562 161.784 137.054 163.239L133.043 167.318V167.477H143.179V171H127.224ZM169.116 167.455L155.787 154.148L158.355 151.568L171.673 164.886L169.116 167.455ZM158.355 167.455L155.787 164.886L169.116 151.568L171.673 154.148L158.355 167.455ZM184.506 171V167.955L192.585 160.034C193.358 159.254 194.002 158.561 194.517 157.955C195.032 157.348 195.419 156.761 195.676 156.193C195.934 155.625 196.062 155.019 196.062 154.375C196.062 153.64 195.896 153.011 195.562 152.489C195.229 151.958 194.771 151.549 194.188 151.261C193.604 150.973 192.941 150.83 192.199 150.83C191.434 150.83 190.763 150.989 190.188 151.307C189.612 151.617 189.165 152.061 188.847 152.636C188.536 153.212 188.381 153.898 188.381 154.693H184.369C184.369 153.216 184.706 151.932 185.381 150.841C186.055 149.75 186.983 148.905 188.165 148.307C189.354 147.708 190.718 147.409 192.256 147.409C193.816 147.409 195.188 147.701 196.369 148.284C197.551 148.867 198.468 149.667 199.119 150.682C199.778 151.697 200.108 152.856 200.108 154.159C200.108 155.03 199.941 155.886 199.608 156.727C199.275 157.568 198.688 158.5 197.847 159.523C197.013 160.545 195.843 161.784 194.335 163.239L190.324 167.318V167.477H200.46V171H184.506ZM226.398 167.455L213.068 154.148L215.636 151.568L228.955 164.886L226.398 167.455ZM215.636 167.455L213.068 164.886L226.398 151.568L228.955 154.148L215.636 167.455ZM241.787 171V167.955L249.866 160.034C250.639 159.254 251.283 158.561 251.798 157.955C252.313 157.348 252.7 156.761 252.957 156.193C253.215 155.625 253.344 155.019 253.344 154.375C253.344 153.64 253.177 153.011 252.844 152.489C252.51 151.958 252.052 151.549 251.469 151.261C250.885 150.973 250.223 150.83 249.48 150.83C248.715 150.83 248.045 150.989 247.469 151.307C246.893 151.617 246.446 152.061 246.128 152.636C245.817 153.212 245.662 153.898 245.662 154.693H241.651C241.651 153.216 241.988 151.932 242.662 150.841C243.336 149.75 244.264 148.905 245.446 148.307C246.635 147.708 247.999 147.409 249.537 147.409C251.098 147.409 252.469 147.701 253.651 148.284C254.832 148.867 255.749 149.667 256.401 150.682C257.06 151.697 257.389 152.856 257.389 154.159C257.389 155.03 257.223 155.886 256.889 156.727C256.556 157.568 255.969 158.5 255.128 159.523C254.295 160.545 253.124 161.784 251.616 163.239L247.605 167.318V167.477H257.741V171H241.787ZM283.679 167.455L270.349 154.148L272.918 151.568L286.236 164.886L283.679 167.455ZM272.918 167.455L270.349 164.886L283.679 151.568L286.236 154.148L272.918 167.455ZM307.591 171.318C306.477 171.311 305.39 171.117 304.33 170.739C303.269 170.352 302.314 169.727 301.466 168.864C300.617 167.992 299.943 166.837 299.443 165.398C298.943 163.951 298.697 162.159 298.705 160.023C298.705 158.03 298.917 156.254 299.341 154.693C299.765 153.133 300.375 151.814 301.17 150.739C301.966 149.655 302.924 148.83 304.045 148.261C305.174 147.693 306.436 147.409 307.83 147.409C309.292 147.409 310.587 147.697 311.716 148.273C312.852 148.848 313.769 149.636 314.466 150.636C315.163 151.629 315.595 152.75 315.761 154H311.614C311.402 153.106 310.966 152.394 310.307 151.864C309.655 151.326 308.83 151.057 307.83 151.057C306.216 151.057 304.973 151.758 304.102 153.159C303.239 154.561 302.803 156.485 302.795 158.932H302.955C303.326 158.265 303.807 157.693 304.398 157.216C304.989 156.739 305.655 156.371 306.398 156.114C307.148 155.848 307.939 155.716 308.773 155.716C310.136 155.716 311.36 156.042 312.443 156.693C313.534 157.345 314.398 158.242 315.034 159.386C315.67 160.523 315.985 161.826 315.977 163.295C315.985 164.826 315.636 166.201 314.932 167.42C314.227 168.633 313.246 169.587 311.989 170.284C310.731 170.981 309.265 171.326 307.591 171.318ZM307.568 167.909C308.394 167.909 309.133 167.708 309.784 167.307C310.436 166.905 310.951 166.364 311.33 165.682C311.708 165 311.894 164.235 311.886 163.386C311.894 162.553 311.712 161.799 311.341 161.125C310.977 160.451 310.473 159.917 309.83 159.523C309.186 159.129 308.451 158.932 307.625 158.932C307.011 158.932 306.439 159.049 305.909 159.284C305.379 159.519 304.917 159.845 304.523 160.261C304.129 160.67 303.818 161.148 303.591 161.693C303.371 162.231 303.258 162.807 303.25 163.42C303.258 164.231 303.447 164.977 303.818 165.659C304.189 166.341 304.701 166.886 305.352 167.295C306.004 167.705 306.742 167.909 307.568 167.909ZM98.892 196.477V192.977H114.017V196.477H98.892ZM98.892 203.75V200.25H114.017V203.75H98.892ZM127.224 210V206.955L135.304 199.034C136.077 198.254 136.721 197.561 137.236 196.955C137.751 196.348 138.137 195.761 138.395 195.193C138.652 194.625 138.781 194.019 138.781 193.375C138.781 192.64 138.615 192.011 138.281 191.489C137.948 190.958 137.49 190.549 136.906 190.261C136.323 189.973 135.66 189.83 134.918 189.83C134.152 189.83 133.482 189.989 132.906 190.307C132.33 190.617 131.884 191.061 131.565 191.636C131.255 192.212 131.099 192.898 131.099 193.693H127.088C127.088 192.216 127.425 190.932 128.099 189.841C128.774 188.75 129.702 187.905 130.884 187.307C132.073 186.708 133.437 186.409 134.974 186.409C136.535 186.409 137.906 186.701 139.088 187.284C140.27 187.867 141.187 188.667 141.838 189.682C142.497 190.697 142.827 191.856 142.827 193.159C142.827 194.03 142.66 194.886 142.327 195.727C141.993 196.568 141.406 197.5 140.565 198.523C139.732 199.545 138.562 200.784 137.054 202.239L133.043 206.318V206.477H143.179V210H127.224ZM169.116 206.455L155.787 193.148L158.355 190.568L171.673 203.886L169.116 206.455ZM158.355 206.455L155.787 203.886L169.116 190.568L171.673 193.148L158.355 206.455ZM184.506 210V206.955L192.585 199.034C193.358 198.254 194.002 197.561 194.517 196.955C195.032 196.348 195.419 195.761 195.676 195.193C195.934 194.625 196.062 194.019 196.062 193.375C196.062 192.64 195.896 192.011 195.562 191.489C195.229 190.958 194.771 190.549 194.188 190.261C193.604 189.973 192.941 189.83 192.199 189.83C191.434 189.83 190.763 189.989 190.188 190.307C189.612 190.617 189.165 191.061 188.847 191.636C188.536 192.212 188.381 192.898 188.381 193.693H184.369C184.369 192.216 184.706 190.932 185.381 189.841C186.055 188.75 186.983 187.905 188.165 187.307C189.354 186.708 190.718 186.409 192.256 186.409C193.816 186.409 195.188 186.701 196.369 187.284C197.551 187.867 198.468 188.667 199.119 189.682C199.778 190.697 200.108 191.856 200.108 193.159C200.108 194.03 199.941 194.886 199.608 195.727C199.275 196.568 198.688 197.5 197.847 198.523C197.013 199.545 195.843 200.784 194.335 202.239L190.324 206.318V206.477H200.46V210H184.506ZM226.398 206.455L213.068 193.148L215.636 190.568L228.955 203.886L226.398 206.455ZM215.636 206.455L213.068 203.886L226.398 190.568L228.955 193.148L215.636 206.455ZM241.787 210V206.955L249.866 199.034C250.639 198.254 251.283 197.561 251.798 196.955C252.313 196.348 252.7 195.761 252.957 195.193C253.215 194.625 253.344 194.019 253.344 193.375C253.344 192.64 253.177 192.011 252.844 191.489C252.51 190.958 252.052 190.549 251.469 190.261C250.885 189.973 250.223 189.83 249.48 189.83C248.715 189.83 248.045 189.989 247.469 190.307C246.893 190.617 246.446 191.061 246.128 191.636C245.817 192.212 245.662 192.898 245.662 193.693H241.651C241.651 192.216 241.988 190.932 242.662 189.841C243.336 188.75 244.264 187.905 245.446 187.307C246.635 186.708 247.999 186.409 249.537 186.409C251.098 186.409 252.469 186.701 253.651 187.284C254.832 187.867 255.749 188.667 256.401 189.682C257.06 190.697 257.389 191.856 257.389 193.159C257.389 194.03 257.223 194.886 256.889 195.727C256.556 196.568 255.969 197.5 255.128 198.523C254.295 199.545 253.124 200.784 251.616 202.239L247.605 206.318V206.477H257.741V210H241.787ZM283.679 206.455L270.349 193.148L272.918 190.568L286.236 203.886L283.679 206.455ZM272.918 206.455L270.349 203.886L283.679 190.568L286.236 193.148L272.918 206.455ZM299.068 210V206.955L307.148 199.034C307.92 198.254 308.564 197.561 309.08 196.955C309.595 196.348 309.981 195.761 310.239 195.193C310.496 194.625 310.625 194.019 310.625 193.375C310.625 192.64 310.458 192.011 310.125 191.489C309.792 190.958 309.333 190.549 308.75 190.261C308.167 189.973 307.504 189.83 306.761 189.83C305.996 189.83 305.326 189.989 304.75 190.307C304.174 190.617 303.727 191.061 303.409 191.636C303.098 192.212 302.943 192.898 302.943 193.693H298.932C298.932 192.216 299.269 190.932 299.943 189.841C300.617 188.75 301.545 187.905 302.727 187.307C303.917 186.708 305.28 186.409 306.818 186.409C308.379 186.409 309.75 186.701 310.932 187.284C312.114 187.867 313.03 188.667 313.682 189.682C314.341 190.697 314.67 191.856 314.67 193.159C314.67 194.03 314.504 194.886 314.17 195.727C313.837 196.568 313.25 197.5 312.409 198.523C311.576 199.545 310.405 200.784 308.898 202.239L304.886 206.318V206.477H315.023V210H299.068ZM340.96 206.455L327.631 193.148L330.199 190.568L343.517 203.886L340.96 206.455ZM330.199 206.455L327.631 203.886L340.96 190.568L343.517 193.148L330.199 206.455ZM364.702 210.318C363.065 210.318 361.611 210.038 360.338 209.477C359.073 208.917 358.073 208.136 357.338 207.136C356.603 206.136 356.213 204.981 356.168 203.67H360.44C360.478 204.299 360.687 204.848 361.065 205.318C361.444 205.78 361.948 206.14 362.577 206.398C363.205 206.655 363.91 206.784 364.69 206.784C365.524 206.784 366.262 206.64 366.906 206.352C367.55 206.057 368.054 205.648 368.418 205.125C368.781 204.602 368.959 204 368.952 203.318C368.959 202.614 368.777 201.992 368.406 201.455C368.035 200.917 367.497 200.496 366.793 200.193C366.096 199.89 365.255 199.739 364.27 199.739H362.213V196.489H364.27C365.08 196.489 365.789 196.348 366.395 196.068C367.009 195.788 367.49 195.394 367.838 194.886C368.187 194.371 368.357 193.777 368.349 193.102C368.357 192.443 368.209 191.871 367.906 191.386C367.611 190.894 367.19 190.511 366.645 190.239C366.107 189.966 365.474 189.83 364.747 189.83C364.035 189.83 363.376 189.958 362.77 190.216C362.164 190.473 361.675 190.841 361.304 191.318C360.933 191.788 360.736 192.348 360.713 193H356.656C356.687 191.697 357.062 190.553 357.781 189.568C358.509 188.576 359.478 187.803 360.69 187.25C361.902 186.689 363.262 186.409 364.77 186.409C366.323 186.409 367.671 186.701 368.815 187.284C369.967 187.86 370.857 188.636 371.486 189.614C372.115 190.591 372.429 191.67 372.429 192.852C372.437 194.163 372.05 195.261 371.27 196.148C370.497 197.034 369.482 197.614 368.224 197.886V198.068C369.861 198.295 371.115 198.902 371.986 199.886C372.865 200.864 373.3 202.08 373.293 203.534C373.293 204.837 372.921 206.004 372.179 207.034C371.444 208.057 370.429 208.86 369.134 209.443C367.846 210.027 366.368 210.318 364.702 210.318Z" fill="black"/>
<rect x="613" y="182" width="89" height="34" fill="#E2BB57"/>
<path d="M380.92 92L390.818 72.4091V72.25H379.33V68.7273H395.182V72.3295L385.295 92H380.92ZM398.849 92V88.9545L406.929 81.0341C407.702 80.2538 408.346 79.5606 408.861 78.9545C409.376 78.3485 409.762 77.7614 410.02 77.1932C410.277 76.625 410.406 76.0189 410.406 75.375C410.406 74.6402 410.24 74.0114 409.906 73.4886C409.573 72.9583 409.115 72.5492 408.531 72.2614C407.948 71.9735 407.285 71.8295 406.543 71.8295C405.777 71.8295 405.107 71.9886 404.531 72.3068C403.955 72.6174 403.509 73.0606 403.19 73.6364C402.88 74.2121 402.724 74.8977 402.724 75.6932H398.713C398.713 74.2159 399.05 72.9318 399.724 71.8409C400.399 70.75 401.327 69.9053 402.509 69.3068C403.698 68.7083 405.062 68.4091 406.599 68.4091C408.16 68.4091 409.531 68.7008 410.713 69.2841C411.895 69.8674 412.812 70.6667 413.463 71.6818C414.122 72.697 414.452 73.8561 414.452 75.1591C414.452 76.0303 414.285 76.8864 413.952 77.7273C413.618 78.5682 413.031 79.5 412.19 80.5227C411.357 81.5455 410.187 82.7841 408.679 84.2386L404.668 88.3182V88.4773H414.804V92H398.849ZM419.861 78.4773V74.9773H434.986V78.4773H419.861ZM419.861 85.75V82.25H434.986V85.75H419.861ZM448.193 92V88.9545L456.273 81.0341C457.045 80.2538 457.689 79.5606 458.205 78.9545C458.72 78.3485 459.106 77.7614 459.364 77.1932C459.621 76.625 459.75 76.0189 459.75 75.375C459.75 74.6402 459.583 74.0114 459.25 73.4886C458.917 72.9583 458.458 72.5492 457.875 72.2614C457.292 71.9735 456.629 71.8295 455.886 71.8295C455.121 71.8295 454.451 71.9886 453.875 72.3068C453.299 72.6174 452.852 73.0606 452.534 73.6364C452.223 74.2121 452.068 74.8977 452.068 75.6932H448.057C448.057 74.2159 448.394 72.9318 449.068 71.8409C449.742 70.75 450.67 69.9053 451.852 69.3068C453.042 68.7083 454.405 68.4091 455.943 68.4091C457.504 68.4091 458.875 68.7008 460.057 69.2841C461.239 69.8674 462.155 70.6667 462.807 71.6818C463.466 72.697 463.795 73.8561 463.795 75.1591C463.795 76.0303 463.629 76.8864 463.295 77.7273C462.962 78.5682 462.375 79.5 461.534 80.5227C460.701 81.5455 459.53 82.7841 458.023 84.2386L454.011 88.3182V88.4773H464.148V92H448.193ZM490.085 88.4545L476.756 75.1477L479.324 72.5682L492.642 85.8864L490.085 88.4545ZM479.324 88.4545L476.756 85.8864L490.085 72.5682L492.642 75.1477L479.324 88.4545ZM513.827 92.3182C512.19 92.3182 510.736 92.0379 509.463 91.4773C508.198 90.9167 507.198 90.1364 506.463 89.1364C505.728 88.1364 505.338 86.9811 505.293 85.6705H509.565C509.603 86.2992 509.812 86.8485 510.19 87.3182C510.569 87.7803 511.073 88.1402 511.702 88.3977C512.33 88.6553 513.035 88.7841 513.815 88.7841C514.649 88.7841 515.387 88.6402 516.031 88.3523C516.675 88.0568 517.179 87.6477 517.543 87.125C517.906 86.6023 518.084 86 518.077 85.3182C518.084 84.6136 517.902 83.9924 517.531 83.4545C517.16 82.9167 516.622 82.4962 515.918 82.1932C515.221 81.8902 514.38 81.7386 513.395 81.7386H511.338V78.4886H513.395C514.205 78.4886 514.914 78.3485 515.52 78.0682C516.134 77.7879 516.615 77.3939 516.963 76.8864C517.312 76.3712 517.482 75.7765 517.474 75.1023C517.482 74.4432 517.334 73.8712 517.031 73.3864C516.736 72.8939 516.315 72.5114 515.77 72.2386C515.232 71.9659 514.599 71.8295 513.872 71.8295C513.16 71.8295 512.501 71.9583 511.895 72.2159C511.289 72.4735 510.8 72.8409 510.429 73.3182C510.058 73.7879 509.861 74.3485 509.838 75H505.781C505.812 73.697 506.187 72.553 506.906 71.5682C507.634 70.5758 508.603 69.803 509.815 69.25C511.027 68.6894 512.387 68.4091 513.895 68.4091C515.448 68.4091 516.796 68.7008 517.94 69.2841C519.092 69.8598 519.982 70.6364 520.611 71.6136C521.24 72.5909 521.554 73.6705 521.554 74.8523C521.562 76.1629 521.175 77.2614 520.395 78.1477C519.622 79.0341 518.607 79.6136 517.349 79.8864V80.0682C518.986 80.2955 520.24 80.9015 521.111 81.8864C521.99 82.8636 522.425 84.0795 522.418 85.5341C522.418 86.8371 522.046 88.0038 521.304 89.0341C520.569 90.0568 519.554 90.8598 518.259 91.4432C516.971 92.0265 515.493 92.3182 513.827 92.3182ZM534.841 92.3182C533.727 92.3106 532.64 92.1174 531.58 91.7386C530.519 91.3523 529.564 90.7273 528.716 89.8636C527.867 88.9924 527.193 87.8371 526.693 86.3977C526.193 84.9508 525.947 83.1591 525.955 81.0227C525.955 79.0303 526.167 77.2538 526.591 75.6932C527.015 74.1326 527.625 72.8144 528.42 71.7386C529.216 70.6553 530.174 69.8295 531.295 69.2614C532.424 68.6932 533.686 68.4091 535.08 68.4091C536.542 68.4091 537.837 68.697 538.966 69.2727C540.102 69.8485 541.019 70.6364 541.716 71.6364C542.413 72.6288 542.845 73.75 543.011 75H538.864C538.652 74.1061 538.216 73.3939 537.557 72.8636C536.905 72.3258 536.08 72.0568 535.08 72.0568C533.466 72.0568 532.223 72.7576 531.352 74.1591C530.489 75.5606 530.053 77.4848 530.045 79.9318H530.205C530.576 79.2652 531.057 78.6932 531.648 78.2159C532.239 77.7386 532.905 77.3712 533.648 77.1136C534.398 76.8485 535.189 76.7159 536.023 76.7159C537.386 76.7159 538.61 77.0417 539.693 77.6932C540.784 78.3447 541.648 79.2424 542.284 80.3864C542.92 81.5227 543.235 82.8258 543.227 84.2955C543.235 85.8258 542.886 87.2008 542.182 88.4205C541.477 89.6326 540.496 90.5871 539.239 91.2841C537.981 91.9811 536.515 92.3258 534.841 92.3182ZM534.818 88.9091C535.644 88.9091 536.383 88.7083 537.034 88.3068C537.686 87.9053 538.201 87.3636 538.58 86.6818C538.958 86 539.144 85.2348 539.136 84.3864C539.144 83.553 538.962 82.7992 538.591 82.125C538.227 81.4508 537.723 80.9167 537.08 80.5227C536.436 80.1288 535.701 79.9318 534.875 79.9318C534.261 79.9318 533.689 80.0492 533.159 80.2841C532.629 80.5189 532.167 80.8447 531.773 81.2614C531.379 81.6705 531.068 82.1477 530.841 82.6932C530.621 83.2311 530.508 83.8068 530.5 84.4205C530.508 85.2311 530.697 85.9773 531.068 86.6591C531.439 87.3409 531.951 87.8864 532.602 88.2955C533.254 88.7045 533.992 88.9091 534.818 88.9091ZM420.892 117.477V113.977H436.017V117.477H420.892ZM420.892 124.75V121.25H436.017V124.75H420.892ZM449.224 131V127.955L457.304 120.034C458.077 119.254 458.721 118.561 459.236 117.955C459.751 117.348 460.137 116.761 460.395 116.193C460.652 115.625 460.781 115.019 460.781 114.375C460.781 113.64 460.615 113.011 460.281 112.489C459.948 111.958 459.49 111.549 458.906 111.261C458.323 110.973 457.66 110.83 456.918 110.83C456.152 110.83 455.482 110.989 454.906 111.307C454.33 111.617 453.884 112.061 453.565 112.636C453.255 113.212 453.099 113.898 453.099 114.693H449.088C449.088 113.216 449.425 111.932 450.099 110.841C450.774 109.75 451.702 108.905 452.884 108.307C454.073 107.708 455.437 107.409 456.974 107.409C458.535 107.409 459.906 107.701 461.088 108.284C462.27 108.867 463.187 109.667 463.838 110.682C464.497 111.697 464.827 112.856 464.827 114.159C464.827 115.03 464.66 115.886 464.327 116.727C463.993 117.568 463.406 118.5 462.565 119.523C461.732 120.545 460.562 121.784 459.054 123.239L455.043 127.318V127.477H465.179V131H449.224ZM491.116 127.455L477.787 114.148L480.355 111.568L493.673 124.886L491.116 127.455ZM480.355 127.455L477.787 124.886L491.116 111.568L493.673 114.148L480.355 127.455ZM506.506 131V127.955L514.585 120.034C515.358 119.254 516.002 118.561 516.517 117.955C517.032 117.348 517.419 116.761 517.676 116.193C517.934 115.625 518.062 115.019 518.062 114.375C518.062 113.64 517.896 113.011 517.562 112.489C517.229 111.958 516.771 111.549 516.188 111.261C515.604 110.973 514.941 110.83 514.199 110.83C513.434 110.83 512.763 110.989 512.188 111.307C511.612 111.617 511.165 112.061 510.847 112.636C510.536 113.212 510.381 113.898 510.381 114.693H506.369C506.369 113.216 506.706 111.932 507.381 110.841C508.055 109.75 508.983 108.905 510.165 108.307C511.354 107.708 512.718 107.409 514.256 107.409C515.816 107.409 517.188 107.701 518.369 108.284C519.551 108.867 520.468 109.667 521.119 110.682C521.778 111.697 522.108 112.856 522.108 114.159C522.108 115.03 521.941 115.886 521.608 116.727C521.275 117.568 520.688 118.5 519.847 119.523C519.013 120.545 517.843 121.784 516.335 123.239L512.324 127.318V127.477H522.46V131H506.506ZM548.398 127.455L535.068 114.148L537.636 111.568L550.955 124.886L548.398 127.455ZM537.636 127.455L535.068 124.886L548.398 111.568L550.955 114.148L537.636 127.455ZM573.253 107.727V131H569.037V111.83H568.901L563.457 115.307V111.443L569.241 107.727H573.253ZM587.435 131.318C585.745 131.318 584.245 131.034 582.935 130.466C581.632 129.898 580.609 129.121 579.866 128.136C579.132 127.144 578.768 126.019 578.776 124.761C578.768 123.784 578.98 122.886 579.412 122.068C579.844 121.25 580.427 120.568 581.162 120.023C581.904 119.47 582.73 119.117 583.639 118.966V118.807C582.442 118.542 581.473 117.932 580.73 116.977C579.995 116.015 579.632 114.905 579.639 113.648C579.632 112.451 579.965 111.383 580.639 110.443C581.313 109.504 582.238 108.765 583.412 108.227C584.586 107.682 585.927 107.409 587.435 107.409C588.927 107.409 590.257 107.682 591.423 108.227C592.598 108.765 593.522 109.504 594.196 110.443C594.878 111.383 595.219 112.451 595.219 113.648C595.219 114.905 594.844 116.015 594.094 116.977C593.351 117.932 592.393 118.542 591.219 118.807V118.966C592.128 119.117 592.946 119.47 593.673 120.023C594.408 120.568 594.991 121.25 595.423 122.068C595.863 122.886 596.082 123.784 596.082 124.761C596.082 126.019 595.711 127.144 594.969 128.136C594.226 129.121 593.204 129.898 591.901 130.466C590.605 131.034 589.116 131.318 587.435 131.318ZM587.435 128.068C588.306 128.068 589.063 127.92 589.707 127.625C590.351 127.322 590.851 126.898 591.207 126.352C591.563 125.807 591.745 125.178 591.753 124.466C591.745 123.723 591.552 123.068 591.173 122.5C590.802 121.924 590.291 121.473 589.639 121.148C588.995 120.822 588.26 120.659 587.435 120.659C586.601 120.659 585.859 120.822 585.207 121.148C584.556 121.473 584.041 121.924 583.662 122.5C583.291 123.068 583.109 123.723 583.116 124.466C583.109 125.178 583.283 125.807 583.639 126.352C583.995 126.89 584.495 127.311 585.139 127.614C585.791 127.917 586.556 128.068 587.435 128.068ZM587.435 117.466C588.147 117.466 588.776 117.322 589.321 117.034C589.874 116.746 590.31 116.345 590.628 115.83C590.946 115.314 591.109 114.72 591.116 114.045C591.109 113.379 590.95 112.795 590.639 112.295C590.329 111.788 589.897 111.398 589.344 111.125C588.791 110.845 588.154 110.705 587.435 110.705C586.7 110.705 586.052 110.845 585.491 111.125C584.938 111.398 584.507 111.788 584.196 112.295C583.893 112.795 583.745 113.379 583.753 114.045C583.745 114.72 583.897 115.314 584.207 115.83C584.526 116.337 584.961 116.739 585.514 117.034C586.075 117.322 586.715 117.466 587.435 117.466ZM420.892 156.477V152.977H436.017V156.477H420.892ZM420.892 163.75V160.25H436.017V163.75H420.892ZM449.224 170V166.955L457.304 159.034C458.077 158.254 458.721 157.561 459.236 156.955C459.751 156.348 460.137 155.761 460.395 155.193C460.652 154.625 460.781 154.019 460.781 153.375C460.781 152.64 460.615 152.011 460.281 151.489C459.948 150.958 459.49 150.549 458.906 150.261C458.323 149.973 457.66 149.83 456.918 149.83C456.152 149.83 455.482 149.989 454.906 150.307C454.33 150.617 453.884 151.061 453.565 151.636C453.255 152.212 453.099 152.898 453.099 153.693H449.088C449.088 152.216 449.425 150.932 450.099 149.841C450.774 148.75 451.702 147.905 452.884 147.307C454.073 146.708 455.437 146.409 456.974 146.409C458.535 146.409 459.906 146.701 461.088 147.284C462.27 147.867 463.187 148.667 463.838 149.682C464.497 150.697 464.827 151.856 464.827 153.159C464.827 154.03 464.66 154.886 464.327 155.727C463.993 156.568 463.406 157.5 462.565 158.523C461.732 159.545 460.562 160.784 459.054 162.239L455.043 166.318V166.477H465.179V170H449.224ZM491.116 166.455L477.787 153.148L480.355 150.568L493.673 163.886L491.116 166.455ZM480.355 166.455L477.787 163.886L491.116 150.568L493.673 153.148L480.355 166.455ZM506.506 170V166.955L514.585 159.034C515.358 158.254 516.002 157.561 516.517 156.955C517.032 156.348 517.419 155.761 517.676 155.193C517.934 154.625 518.062 154.019 518.062 153.375C518.062 152.64 517.896 152.011 517.562 151.489C517.229 150.958 516.771 150.549 516.188 150.261C515.604 149.973 514.941 149.83 514.199 149.83C513.434 149.83 512.763 149.989 512.188 150.307C511.612 150.617 511.165 151.061 510.847 151.636C510.536 152.212 510.381 152.898 510.381 153.693H506.369C506.369 152.216 506.706 150.932 507.381 149.841C508.055 148.75 508.983 147.905 510.165 147.307C511.354 146.708 512.718 146.409 514.256 146.409C515.816 146.409 517.188 146.701 518.369 147.284C519.551 147.867 520.468 148.667 521.119 149.682C521.778 150.697 522.108 151.856 522.108 153.159C522.108 154.03 521.941 154.886 521.608 155.727C521.275 156.568 520.688 157.5 519.847 158.523C519.013 159.545 517.843 160.784 516.335 162.239L512.324 166.318V166.477H522.46V170H506.506ZM548.398 166.455L535.068 153.148L537.636 150.568L550.955 163.886L548.398 166.455ZM537.636 166.455L535.068 163.886L548.398 150.568L550.955 153.148L537.636 166.455ZM563.787 170V166.955L571.866 159.034C572.639 158.254 573.283 157.561 573.798 156.955C574.313 156.348 574.7 155.761 574.957 155.193C575.215 154.625 575.344 154.019 575.344 153.375C575.344 152.64 575.177 152.011 574.844 151.489C574.51 150.958 574.052 150.549 573.469 150.261C572.885 149.973 572.223 149.83 571.48 149.83C570.715 149.83 570.045 149.989 569.469 150.307C568.893 150.617 568.446 151.061 568.128 151.636C567.817 152.212 567.662 152.898 567.662 153.693H563.651C563.651 152.216 563.988 150.932 564.662 149.841C565.336 148.75 566.264 147.905 567.446 147.307C568.635 146.708 569.999 146.409 571.537 146.409C573.098 146.409 574.469 146.701 575.651 147.284C576.832 147.867 577.749 148.667 578.401 149.682C579.06 150.697 579.389 151.856 579.389 153.159C579.389 154.03 579.223 154.886 578.889 155.727C578.556 156.568 577.969 157.5 577.128 158.523C576.295 159.545 575.124 160.784 573.616 162.239L569.605 166.318V166.477H579.741V170H563.787ZM605.679 166.455L592.349 153.148L594.918 150.568L608.236 163.886L605.679 166.455ZM594.918 166.455L592.349 163.886L605.679 150.568L608.236 153.148L594.918 166.455ZM629.148 146.409C630.261 146.417 631.345 146.614 632.398 147C633.458 147.379 634.413 148 635.261 148.864C636.11 149.72 636.784 150.867 637.284 152.307C637.784 153.746 638.034 155.527 638.034 157.648C638.042 159.648 637.83 161.436 637.398 163.011C636.973 164.58 636.364 165.905 635.568 166.989C634.773 168.072 633.814 168.898 632.693 169.466C631.572 170.034 630.311 170.318 628.909 170.318C627.439 170.318 626.136 170.03 625 169.455C623.871 168.879 622.958 168.091 622.261 167.091C621.564 166.091 621.136 164.947 620.977 163.659H625.125C625.337 164.583 625.769 165.318 626.42 165.864C627.08 166.402 627.909 166.67 628.909 166.67C630.523 166.67 631.765 165.97 632.636 164.568C633.508 163.167 633.943 161.22 633.943 158.727H633.784C633.413 159.394 632.932 159.97 632.341 160.455C631.75 160.932 631.08 161.299 630.33 161.557C629.587 161.814 628.799 161.943 627.966 161.943C626.602 161.943 625.375 161.617 624.284 160.966C623.201 160.314 622.341 159.42 621.705 158.284C621.076 157.148 620.758 155.848 620.75 154.386C620.75 152.871 621.098 151.511 621.795 150.307C622.5 149.095 623.481 148.14 624.739 147.443C625.996 146.739 627.466 146.394 629.148 146.409ZM629.159 149.818C628.341 149.818 627.602 150.019 626.943 150.42C626.292 150.814 625.777 151.352 625.398 152.034C625.027 152.708 624.841 153.462 624.841 154.295C624.848 155.121 625.034 155.871 625.398 156.545C625.769 157.22 626.273 157.754 626.909 158.148C627.553 158.542 628.288 158.739 629.114 158.739C629.727 158.739 630.299 158.621 630.83 158.386C631.36 158.152 631.822 157.826 632.216 157.409C632.617 156.985 632.928 156.504 633.148 155.966C633.375 155.428 633.485 154.86 633.477 154.261C633.477 153.466 633.288 152.731 632.909 152.057C632.538 151.383 632.027 150.841 631.375 150.432C630.731 150.023 629.992 149.818 629.159 149.818ZM420.892 195.477V191.977H436.017V195.477H420.892ZM420.892 202.75V199.25H436.017V202.75H420.892ZM449.224 209V205.955L457.304 198.034C458.077 197.254 458.721 196.561 459.236 195.955C459.751 195.348 460.137 194.761 460.395 194.193C460.652 193.625 460.781 193.019 460.781 192.375C460.781 191.64 460.615 191.011 460.281 190.489C459.948 189.958 459.49 189.549 458.906 189.261C458.323 188.973 457.66 188.83 456.918 188.83C456.152 188.83 455.482 188.989 454.906 189.307C454.33 189.617 453.884 190.061 453.565 190.636C453.255 191.212 453.099 191.898 453.099 192.693H449.088C449.088 191.216 449.425 189.932 450.099 188.841C450.774 187.75 451.702 186.905 452.884 186.307C454.073 185.708 455.437 185.409 456.974 185.409C458.535 185.409 459.906 185.701 461.088 186.284C462.27 186.867 463.187 187.667 463.838 188.682C464.497 189.697 464.827 190.856 464.827 192.159C464.827 193.03 464.66 193.886 464.327 194.727C463.993 195.568 463.406 196.5 462.565 197.523C461.732 198.545 460.562 199.784 459.054 201.239L455.043 205.318V205.477H465.179V209H449.224ZM491.116 205.455L477.787 192.148L480.355 189.568L493.673 202.886L491.116 205.455ZM480.355 205.455L477.787 202.886L491.116 189.568L493.673 192.148L480.355 205.455ZM506.506 209V205.955L514.585 198.034C515.358 197.254 516.002 196.561 516.517 195.955C517.032 195.348 517.419 194.761 517.676 194.193C517.934 193.625 518.062 193.019 518.062 192.375C518.062 191.64 517.896 191.011 517.562 190.489C517.229 189.958 516.771 189.549 516.188 189.261C515.604 188.973 514.941 188.83 514.199 188.83C513.434 188.83 512.763 188.989 512.188 189.307C511.612 189.617 511.165 190.061 510.847 190.636C510.536 191.212 510.381 191.898 510.381 192.693H506.369C506.369 191.216 506.706 189.932 507.381 188.841C508.055 187.75 508.983 186.905 510.165 186.307C511.354 185.708 512.718 185.409 514.256 185.409C515.816 185.409 517.188 185.701 518.369 186.284C519.551 186.867 520.468 187.667 521.119 188.682C521.778 189.697 522.108 190.856 522.108 192.159C522.108 193.03 521.941 193.886 521.608 194.727C521.275 195.568 520.688 196.5 519.847 197.523C519.013 198.545 517.843 199.784 516.335 201.239L512.324 205.318V205.477H522.46V209H506.506ZM548.398 205.455L535.068 192.148L537.636 189.568L550.955 202.886L548.398 205.455ZM537.636 205.455L535.068 202.886L548.398 189.568L550.955 192.148L537.636 205.455ZM563.787 209V205.955L571.866 198.034C572.639 197.254 573.283 196.561 573.798 195.955C574.313 195.348 574.7 194.761 574.957 194.193C575.215 193.625 575.344 193.019 575.344 192.375C575.344 191.64 575.177 191.011 574.844 190.489C574.51 189.958 574.052 189.549 573.469 189.261C572.885 188.973 572.223 188.83 571.48 188.83C570.715 188.83 570.045 188.989 569.469 189.307C568.893 189.617 568.446 190.061 568.128 190.636C567.817 191.212 567.662 191.898 567.662 192.693H563.651C563.651 191.216 563.988 189.932 564.662 188.841C565.336 187.75 566.264 186.905 567.446 186.307C568.635 185.708 569.999 185.409 571.537 185.409C573.098 185.409 574.469 185.701 575.651 186.284C576.832 186.867 577.749 187.667 578.401 188.682C579.06 189.697 579.389 190.856 579.389 192.159C579.389 193.03 579.223 193.886 578.889 194.727C578.556 195.568 577.969 196.5 577.128 197.523C576.295 198.545 575.124 199.784 573.616 201.239L569.605 205.318V205.477H579.741V209H563.787ZM605.679 205.455L592.349 192.148L594.918 189.568L608.236 202.886L605.679 205.455ZM594.918 205.455L592.349 202.886L605.679 189.568L608.236 192.148L594.918 205.455ZM629.42 209.318C627.784 209.318 626.33 209.038 625.057 208.477C623.792 207.917 622.792 207.136 622.057 206.136C621.322 205.136 620.932 203.981 620.886 202.67H625.159C625.197 203.299 625.405 203.848 625.784 204.318C626.163 204.78 626.667 205.14 627.295 205.398C627.924 205.655 628.629 205.784 629.409 205.784C630.242 205.784 630.981 205.64 631.625 205.352C632.269 205.057 632.773 204.648 633.136 204.125C633.5 203.602 633.678 203 633.67 202.318C633.678 201.614 633.496 200.992 633.125 200.455C632.754 199.917 632.216 199.496 631.511 199.193C630.814 198.89 629.973 198.739 628.989 198.739H626.932V195.489H628.989C629.799 195.489 630.508 195.348 631.114 195.068C631.727 194.788 632.208 194.394 632.557 193.886C632.905 193.371 633.076 192.777 633.068 192.102C633.076 191.443 632.928 190.871 632.625 190.386C632.33 189.894 631.909 189.511 631.364 189.239C630.826 188.966 630.193 188.83 629.466 188.83C628.754 188.83 628.095 188.958 627.489 189.216C626.883 189.473 626.394 189.841 626.023 190.318C625.652 190.788 625.455 191.348 625.432 192H621.375C621.405 190.697 621.78 189.553 622.5 188.568C623.227 187.576 624.197 186.803 625.409 186.25C626.621 185.689 627.981 185.409 629.489 185.409C631.042 185.409 632.39 185.701 633.534 186.284C634.686 186.86 635.576 187.636 636.205 188.614C636.833 189.591 637.148 190.67 637.148 191.852C637.155 193.163 636.769 194.261 635.989 195.148C635.216 196.034 634.201 196.614 632.943 196.886V197.068C634.58 197.295 635.833 197.902 636.705 198.886C637.583 199.864 638.019 201.08 638.011 202.534C638.011 203.837 637.64 205.004 636.898 206.034C636.163 207.057 635.148 207.86 633.852 208.443C632.564 209.027 631.087 209.318 629.42 209.318ZM663.929 205.455L650.599 192.148L653.168 189.568L666.486 202.886L663.929 205.455ZM653.168 205.455L650.599 202.886L663.929 189.568L666.486 192.148L653.168 205.455ZM687.67 209.318C686.034 209.318 684.58 209.038 683.307 208.477C682.042 207.917 681.042 207.136 680.307 206.136C679.572 205.136 679.182 203.981 679.136 202.67H683.409C683.447 203.299 683.655 203.848 684.034 204.318C684.413 204.78 684.917 205.14 685.545 205.398C686.174 205.655 686.879 205.784 687.659 205.784C688.492 205.784 689.231 205.64 689.875 205.352C690.519 205.057 691.023 204.648 691.386 204.125C691.75 203.602 691.928 203 691.92 202.318C691.928 201.614 691.746 200.992 691.375 200.455C691.004 199.917 690.466 199.496 689.761 199.193C689.064 198.89 688.223 198.739 687.239 198.739H685.182V195.489H687.239C688.049 195.489 688.758 195.348 689.364 195.068C689.977 194.788 690.458 194.394 690.807 193.886C691.155 193.371 691.326 192.777 691.318 192.102C691.326 191.443 691.178 190.871 690.875 190.386C690.58 189.894 690.159 189.511 689.614 189.239C689.076 188.966 688.443 188.83 687.716 188.83C687.004 188.83 686.345 188.958 685.739 189.216C685.133 189.473 684.644 189.841 684.273 190.318C683.902 190.788 683.705 191.348 683.682 192H679.625C679.655 190.697 680.03 189.553 680.75 188.568C681.477 187.576 682.447 186.803 683.659 186.25C684.871 185.689 686.231 185.409 687.739 185.409C689.292 185.409 690.64 185.701 691.784 186.284C692.936 186.86 693.826 187.636 694.455 188.614C695.083 189.591 695.398 190.67 695.398 191.852C695.405 193.163 695.019 194.261 694.239 195.148C693.466 196.034 692.451 196.614 691.193 196.886V197.068C692.83 197.295 694.083 197.902 694.955 198.886C695.833 199.864 696.269 201.08 696.261 202.534C696.261 203.837 695.89 205.004 695.148 206.034C694.413 207.057 693.398 207.86 692.102 208.443C690.814 209.027 689.337 209.318 687.67 209.318Z" fill="black"/>
</svg>
