<svg width="749" height="240" viewBox="0 0 749 240" fill="none" xmlns="http://www.w3.org/2000/svg">
<rect width="749" height="229" fill="#CCCCCC"/>
<line x1="150" y1="25" x2="150" y2="208" stroke="#9B9B9B" stroke-width="2"/>
<line x1="373" y1="50.7686" x2="29" y2="50.7686" stroke="#9B9B9B" stroke-width="2"/>
<line x1="373" y1="176.176" x2="29" y2="176.176" stroke="#9B9B9B" stroke-width="2"/>
<line x1="373" y1="146.542" x2="29" y2="146.542" stroke="#9B9B9B" stroke-width="2"/>
<line x1="373" y1="116.479" x2="29" y2="116.479" stroke="#9B9B9B" stroke-width="2"/>
<line x1="373" y1="82.55" x2="29" y2="82.55" stroke="#9B9B9B" stroke-width="2"/>
<line x1="359" y1="25" x2="359" y2="208" stroke="#9B9B9B" stroke-width="2"/>
<line x1="328" y1="24" x2="328" y2="207" stroke="#9B9B9B" stroke-width="2"/>
<line x1="46" y1="24" x2="46" y2="207" stroke="#9B9B9B" stroke-width="2"/>
<line x1="254" y1="24" x2="254" y2="207" stroke="#9B9B9B" stroke-width="2"/>
<line x1="293" y1="24" x2="293" y2="207" stroke="#9B9B9B" stroke-width="2"/>
<line x1="183" y1="25" x2="183" y2="208" stroke="#9B9B9B" stroke-width="2"/>
<line x1="217" y1="25" x2="217" y2="208" stroke="#9B9B9B" stroke-width="2"/>
<line x1="113" y1="24" x2="113" y2="207" stroke="#9B9B9B" stroke-width="2"/>
<line x1="80" y1="24" x2="80" y2="207" stroke="#9B9B9B" stroke-width="2"/>
<line x1="494" y1="25" x2="494" y2="209" stroke="#9B9B9B" stroke-width="2"/>
<line x1="717" y1="50.7686" x2="373" y2="50.7686" stroke="#9B9B9B" stroke-width="2"/>
<line x1="717" y1="176.176" x2="373" y2="176.176" stroke="#9B9B9B" stroke-width="2"/>
<line x1="717" y1="146.542" x2="373" y2="146.542" stroke="#9B9B9B" stroke-width="2"/>
<line x1="717" y1="116.479" x2="373" y2="116.479" stroke="#9B9B9B" stroke-width="2"/>
<line x1="717" y1="82.55" x2="373" y2="82.55" stroke="#9B9B9B" stroke-width="2"/>
<line x1="703" y1="25" x2="703" y2="209" stroke="#9B9B9B" stroke-width="2"/>
<line x1="672" y1="24" x2="672" y2="208" stroke="#9B9B9B" stroke-width="2"/>
<line x1="390" y1="24" x2="390" y2="208" stroke="#9B9B9B" stroke-width="2"/>
<line x1="598" y1="24" x2="598" y2="208" stroke="#9B9B9B" stroke-width="2"/>
<line x1="637" y1="24" x2="637" y2="208" stroke="#9B9B9B" stroke-width="2"/>
<line x1="527" y1="25" x2="527" y2="209" stroke="#9B9B9B" stroke-width="2"/>
<line x1="561" y1="25" x2="561" y2="209" stroke="#9B9B9B" stroke-width="2"/>
<line x1="457" y1="24" x2="457" y2="208" stroke="#9B9B9B" stroke-width="2"/>
<line x1="424" y1="24" x2="424" y2="208" stroke="#9B9B9B" stroke-width="2"/>
<rect x="250" y="31" width="154" height="34" transform="rotate(90 250 31)" fill="#BCA0DF"/>
<path d="M93.6477 48.6818V45.3295L103.523 29.7273H106.318V34.5H104.614L97.9659 45.0341V45.2159H111.75V48.6818H93.6477ZM104.75 53V47.6591L104.795 46.1591V29.7273H108.773V53H104.75ZM123.653 53.3182C121.964 53.3182 120.464 53.0341 119.153 52.4659C117.85 51.8977 116.828 51.1212 116.085 50.1364C115.35 49.1439 114.987 48.0189 114.994 46.7614C114.987 45.7841 115.199 44.8864 115.631 44.0682C116.063 43.25 116.646 42.5682 117.381 42.0227C118.123 41.4697 118.949 41.1174 119.858 40.9659V40.8068C118.661 40.5417 117.691 39.9318 116.949 38.9773C116.214 38.0152 115.85 36.9053 115.858 35.6477C115.85 34.4508 116.184 33.3826 116.858 32.4432C117.532 31.5038 118.456 30.7652 119.631 30.2273C120.805 29.6818 122.146 29.4091 123.653 29.4091C125.146 29.4091 126.475 29.6818 127.642 30.2273C128.816 30.7652 129.741 31.5038 130.415 32.4432C131.097 33.3826 131.438 34.4508 131.438 35.6477C131.438 36.9053 131.062 38.0152 130.312 38.9773C129.57 39.9318 128.612 40.5417 127.438 40.8068V40.9659C128.347 41.1174 129.165 41.4697 129.892 42.0227C130.627 42.5682 131.21 43.25 131.642 44.0682C132.081 44.8864 132.301 45.7841 132.301 46.7614C132.301 48.0189 131.93 49.1439 131.188 50.1364C130.445 51.1212 129.422 51.8977 128.119 52.4659C126.824 53.0341 125.335 53.3182 123.653 53.3182ZM123.653 50.0682C124.525 50.0682 125.282 49.9205 125.926 49.625C126.57 49.322 127.07 48.8977 127.426 48.3523C127.782 47.8068 127.964 47.178 127.972 46.4659C127.964 45.7235 127.771 45.0682 127.392 44.5C127.021 43.9242 126.509 43.4735 125.858 43.1477C125.214 42.822 124.479 42.6591 123.653 42.6591C122.82 42.6591 122.078 42.822 121.426 43.1477C120.775 43.4735 120.259 43.9242 119.881 44.5C119.509 45.0682 119.328 45.7235 119.335 46.4659C119.328 47.178 119.502 47.8068 119.858 48.3523C120.214 48.8902 120.714 49.3106 121.358 49.6136C122.009 49.9167 122.775 50.0682 123.653 50.0682ZM123.653 39.4659C124.366 39.4659 124.994 39.322 125.54 39.0341C126.093 38.7462 126.528 38.3447 126.847 37.8295C127.165 37.3144 127.328 36.7197 127.335 36.0455C127.328 35.3788 127.169 34.7955 126.858 34.2955C126.547 33.7879 126.116 33.3977 125.562 33.125C125.009 32.8447 124.373 32.7045 123.653 32.7045C122.919 32.7045 122.271 32.8447 121.71 33.125C121.157 33.3977 120.725 33.7879 120.415 34.2955C120.112 34.7955 119.964 35.3788 119.972 36.0455C119.964 36.7197 120.116 37.3144 120.426 37.8295C120.744 38.3371 121.18 38.7386 121.733 39.0341C122.294 39.322 122.934 39.4659 123.653 39.4659ZM140.224 49.8182L140.077 51.0682C139.971 52.0227 139.781 52.9924 139.509 53.9773C139.243 54.9697 138.963 55.8826 138.668 56.7159C138.372 57.5492 138.134 58.2045 137.952 58.6818H135.179C135.285 58.2197 135.429 57.5909 135.611 56.7955C135.8 56 135.982 55.1061 136.156 54.1136C136.33 53.1212 136.448 52.1136 136.509 51.0909L136.588 49.8182H140.224ZM152.858 53L162.756 33.4091V33.25H151.267V29.7273H167.119V33.3295L157.233 53H152.858ZM170.787 53V49.9545L178.866 42.0341C179.639 41.2538 180.283 40.5606 180.798 39.9545C181.313 39.3485 181.7 38.7614 181.957 38.1932C182.215 37.625 182.344 37.0189 182.344 36.375C182.344 35.6402 182.177 35.0114 181.844 34.4886C181.51 33.9583 181.052 33.5492 180.469 33.2614C179.885 32.9735 179.223 32.8295 178.48 32.8295C177.715 32.8295 177.045 32.9886 176.469 33.3068C175.893 33.6174 175.446 34.0606 175.128 34.6364C174.817 35.2121 174.662 35.8977 174.662 36.6932H170.651C170.651 35.2159 170.988 33.9318 171.662 32.8409C172.336 31.75 173.264 30.9053 174.446 30.3068C175.635 29.7083 176.999 29.4091 178.537 29.4091C180.098 29.4091 181.469 29.7008 182.651 30.2841C183.832 30.8674 184.749 31.6667 185.401 32.6818C186.06 33.697 186.389 34.8561 186.389 36.1591C186.389 37.0303 186.223 37.8864 185.889 38.7273C185.556 39.5682 184.969 40.5 184.128 41.5227C183.295 42.5455 182.124 43.7841 180.616 45.2386L176.605 49.3182V49.4773H186.741V53H170.787ZM222.412 53V49.9545L230.491 42.0341C231.264 41.2538 231.908 40.5606 232.423 39.9545C232.938 39.3485 233.325 38.7614 233.582 38.1932C233.84 37.625 233.969 37.0189 233.969 36.375C233.969 35.6402 233.802 35.0114 233.469 34.4886C233.135 33.9583 232.677 33.5492 232.094 33.2614C231.51 32.9735 230.848 32.8295 230.105 32.8295C229.34 32.8295 228.67 32.9886 228.094 33.3068C227.518 33.6174 227.071 34.0606 226.753 34.6364C226.442 35.2121 226.287 35.8977 226.287 36.6932H222.276C222.276 35.2159 222.613 33.9318 223.287 32.8409C223.961 31.75 224.889 30.9053 226.071 30.3068C227.26 29.7083 228.624 29.4091 230.162 29.4091C231.723 29.4091 233.094 29.7008 234.276 30.2841C235.457 30.8674 236.374 31.6667 237.026 32.6818C237.685 33.697 238.014 34.8561 238.014 36.1591C238.014 37.0303 237.848 37.8864 237.514 38.7273C237.181 39.5682 236.594 40.5 235.753 41.5227C234.92 42.5455 233.749 43.7841 232.241 45.2386L228.23 49.3182V49.4773H238.366V53H222.412ZM94.0682 92V88.9545L102.148 81.0341C102.92 80.2538 103.564 79.5606 104.08 78.9545C104.595 78.3485 104.981 77.7614 105.239 77.1932C105.496 76.625 105.625 76.0189 105.625 75.375C105.625 74.6402 105.458 74.0114 105.125 73.4886C104.792 72.9583 104.333 72.5492 103.75 72.2614C103.167 71.9735 102.504 71.8295 101.761 71.8295C100.996 71.8295 100.326 71.9886 99.75 72.3068C99.1742 72.6174 98.7273 73.0606 98.4091 73.6364C98.0985 74.2121 97.9432 74.8977 97.9432 75.6932H93.9318C93.9318 74.2159 94.2689 72.9318 94.9432 71.8409C95.6174 70.75 96.5455 69.9053 97.7273 69.3068C98.9167 68.7083 100.28 68.4091 101.818 68.4091C103.379 68.4091 104.75 68.7008 105.932 69.2841C107.114 69.8674 108.03 70.6667 108.682 71.6818C109.341 72.697 109.67 73.8561 109.67 75.1591C109.67 76.0303 109.504 76.8864 109.17 77.7273C108.837 78.5682 108.25 79.5 107.409 80.5227C106.576 81.5455 105.405 82.7841 103.898 84.2386L99.8864 88.3182V88.4773H110.023V92H94.0682ZM113.023 87.6818V84.3295L122.898 68.7273H125.693V73.5H123.989L117.341 84.0341V84.2159H131.125V87.6818H113.023ZM124.125 92V86.6591L124.17 85.1591V68.7273H128.148V92H124.125ZM138.974 88.8182L138.827 90.0682C138.721 91.0227 138.531 91.9924 138.259 92.9773C137.993 93.9697 137.713 94.8826 137.418 95.7159C137.122 96.5492 136.884 97.2045 136.702 97.6818H133.929C134.035 97.2197 134.179 96.5909 134.361 95.7955C134.55 95 134.732 94.1061 134.906 93.1136C135.08 92.1212 135.198 91.1136 135.259 90.0909L135.338 88.8182H138.974ZM159.108 92.3182C157.472 92.3182 156.017 92.0379 154.744 91.4773C153.479 90.9167 152.479 90.1364 151.744 89.1364C151.009 88.1364 150.619 86.9811 150.574 85.6705H154.847C154.884 86.2992 155.093 86.8485 155.472 87.3182C155.85 87.7803 156.354 88.1402 156.983 88.3977C157.612 88.6553 158.316 88.7841 159.097 88.7841C159.93 88.7841 160.669 88.6402 161.312 88.3523C161.956 88.0568 162.46 87.6477 162.824 87.125C163.188 86.6023 163.366 86 163.358 85.3182C163.366 84.6136 163.184 83.9924 162.812 83.4545C162.441 82.9167 161.903 82.4962 161.199 82.1932C160.502 81.8902 159.661 81.7386 158.676 81.7386H156.619V78.4886H158.676C159.487 78.4886 160.195 78.3485 160.801 78.0682C161.415 77.7879 161.896 77.3939 162.244 76.8864C162.593 76.3712 162.763 75.7765 162.756 75.1023C162.763 74.4432 162.616 73.8712 162.312 73.3864C162.017 72.8939 161.597 72.5114 161.051 72.2386C160.513 71.9659 159.881 71.8295 159.153 71.8295C158.441 71.8295 157.782 71.9583 157.176 72.2159C156.57 72.4735 156.081 72.8409 155.71 73.3182C155.339 73.7879 155.142 74.3485 155.119 75H151.062C151.093 73.697 151.468 72.553 152.188 71.5682C152.915 70.5758 153.884 69.803 155.097 69.25C156.309 68.6894 157.669 68.4091 159.176 68.4091C160.729 68.4091 162.078 68.7008 163.222 69.2841C164.373 69.8598 165.263 70.6364 165.892 71.6136C166.521 72.5909 166.835 73.6705 166.835 74.8523C166.843 76.1629 166.456 77.2614 165.676 78.1477C164.903 79.0341 163.888 79.6136 162.631 79.8864V80.0682C164.267 80.2955 165.521 80.9015 166.392 81.8864C167.271 82.8636 167.706 84.0795 167.699 85.5341C167.699 86.8371 167.328 88.0038 166.585 89.0341C165.85 90.0568 164.835 90.8598 163.54 91.4432C162.252 92.0265 160.775 92.3182 159.108 92.3182ZM180.122 92.3182C179.009 92.3106 177.921 92.1174 176.861 91.7386C175.8 91.3523 174.846 90.7273 173.997 89.8636C173.149 88.9924 172.474 87.8371 171.974 86.3977C171.474 84.9508 171.228 83.1591 171.236 81.0227C171.236 79.0303 171.448 77.2538 171.872 75.6932C172.296 74.1326 172.906 72.8144 173.702 71.7386C174.497 70.6553 175.455 69.8295 176.577 69.2614C177.705 68.6932 178.967 68.4091 180.361 68.4091C181.823 68.4091 183.118 68.697 184.247 69.2727C185.384 69.8485 186.3 70.6364 186.997 71.6364C187.694 72.6288 188.126 73.75 188.293 75H184.145C183.933 74.1061 183.497 73.3939 182.838 72.8636C182.187 72.3258 181.361 72.0568 180.361 72.0568C178.747 72.0568 177.505 72.7576 176.634 74.1591C175.77 75.5606 175.334 77.4848 175.327 79.9318H175.486C175.857 79.2652 176.338 78.6932 176.929 78.2159C177.52 77.7386 178.187 77.3712 178.929 77.1136C179.679 76.8485 180.471 76.7159 181.304 76.7159C182.668 76.7159 183.891 77.0417 184.974 77.6932C186.065 78.3447 186.929 79.2424 187.565 80.3864C188.202 81.5227 188.516 82.8258 188.509 84.2955C188.516 85.8258 188.168 87.2008 187.463 88.4205C186.759 89.6326 185.777 90.5871 184.52 91.2841C183.262 91.9811 181.796 92.3258 180.122 92.3182ZM180.099 88.9091C180.925 88.9091 181.664 88.7083 182.315 88.3068C182.967 87.9053 183.482 87.3636 183.861 86.6818C184.24 86 184.425 85.2348 184.418 84.3864C184.425 83.553 184.243 82.7992 183.872 82.125C183.509 81.4508 183.005 80.9167 182.361 80.5227C181.717 80.1288 180.982 79.9318 180.156 79.9318C179.543 79.9318 178.971 80.0492 178.44 80.2841C177.91 80.5189 177.448 80.8447 177.054 81.2614C176.66 81.6705 176.349 82.1477 176.122 82.6932C175.902 83.2311 175.789 83.8068 175.781 84.4205C175.789 85.2311 175.978 85.9773 176.349 86.6591C176.721 87.3409 177.232 87.8864 177.884 88.2955C178.535 88.7045 179.274 88.9091 180.099 88.9091ZM224.099 92V88.9545L232.179 81.0341C232.952 80.2538 233.596 79.5606 234.111 78.9545C234.626 78.3485 235.012 77.7614 235.27 77.1932C235.527 76.625 235.656 76.0189 235.656 75.375C235.656 74.6402 235.49 74.0114 235.156 73.4886C234.823 72.9583 234.365 72.5492 233.781 72.2614C233.198 71.9735 232.535 71.8295 231.793 71.8295C231.027 71.8295 230.357 71.9886 229.781 72.3068C229.205 72.6174 228.759 73.0606 228.44 73.6364C228.13 74.2121 227.974 74.8977 227.974 75.6932H223.963C223.963 74.2159 224.3 72.9318 224.974 71.8409C225.649 70.75 226.577 69.9053 227.759 69.3068C228.948 68.7083 230.312 68.4091 231.849 68.4091C233.41 68.4091 234.781 68.7008 235.963 69.2841C237.145 69.8674 238.062 70.6667 238.713 71.6818C239.372 72.697 239.702 73.8561 239.702 75.1591C239.702 76.0303 239.535 76.8864 239.202 77.7273C238.868 78.5682 238.281 79.5 237.44 80.5227C236.607 81.5455 235.437 82.7841 233.929 84.2386L229.918 88.3182V88.4773H240.054V92H224.099ZM103.534 107.727V131H99.3182V111.83H99.1818L93.7386 115.307V111.443L99.5227 107.727H103.534ZM109.443 131V127.955L117.523 120.034C118.295 119.254 118.939 118.561 119.455 117.955C119.97 117.348 120.356 116.761 120.614 116.193C120.871 115.625 121 115.019 121 114.375C121 113.64 120.833 113.011 120.5 112.489C120.167 111.958 119.708 111.549 119.125 111.261C118.542 110.973 117.879 110.83 117.136 110.83C116.371 110.83 115.701 110.989 115.125 111.307C114.549 111.617 114.102 112.061 113.784 112.636C113.473 113.212 113.318 113.898 113.318 114.693H109.307C109.307 113.216 109.644 111.932 110.318 110.841C110.992 109.75 111.92 108.905 113.102 108.307C114.292 107.708 115.655 107.409 117.193 107.409C118.754 107.409 120.125 107.701 121.307 108.284C122.489 108.867 123.405 109.667 124.057 110.682C124.716 111.697 125.045 112.856 125.045 114.159C125.045 115.03 124.879 115.886 124.545 116.727C124.212 117.568 123.625 118.5 122.784 119.523C121.951 120.545 120.78 121.784 119.273 123.239L115.261 127.318V127.477H125.398V131H109.443ZM134.193 127.818L134.045 129.068C133.939 130.023 133.75 130.992 133.477 131.977C133.212 132.97 132.932 133.883 132.636 134.716C132.341 135.549 132.102 136.205 131.92 136.682H129.148C129.254 136.22 129.398 135.591 129.58 134.795C129.769 134 129.951 133.106 130.125 132.114C130.299 131.121 130.417 130.114 130.477 129.091L130.557 127.818H134.193ZM155.44 107.727V131H151.224V111.83H151.088L145.645 115.307V111.443L151.429 107.727H155.44ZM169.622 131.318C167.933 131.318 166.433 131.034 165.122 130.466C163.819 129.898 162.796 129.121 162.054 128.136C161.319 127.144 160.955 126.019 160.963 124.761C160.955 123.784 161.168 122.886 161.599 122.068C162.031 121.25 162.615 120.568 163.349 120.023C164.092 119.47 164.918 119.117 165.827 118.966V118.807C164.63 118.542 163.66 117.932 162.918 116.977C162.183 116.015 161.819 114.905 161.827 113.648C161.819 112.451 162.152 111.383 162.827 110.443C163.501 109.504 164.425 108.765 165.599 108.227C166.774 107.682 168.115 107.409 169.622 107.409C171.115 107.409 172.444 107.682 173.611 108.227C174.785 108.765 175.709 109.504 176.384 110.443C177.065 111.383 177.406 112.451 177.406 113.648C177.406 114.905 177.031 116.015 176.281 116.977C175.539 117.932 174.58 118.542 173.406 118.807V118.966C174.315 119.117 175.134 119.47 175.861 120.023C176.596 120.568 177.179 121.25 177.611 122.068C178.05 122.886 178.27 123.784 178.27 124.761C178.27 126.019 177.899 127.144 177.156 128.136C176.414 129.121 175.391 129.898 174.088 130.466C172.793 131.034 171.304 131.318 169.622 131.318ZM169.622 128.068C170.493 128.068 171.251 127.92 171.895 127.625C172.539 127.322 173.039 126.898 173.395 126.352C173.751 125.807 173.933 125.178 173.94 124.466C173.933 123.723 173.74 123.068 173.361 122.5C172.99 121.924 172.478 121.473 171.827 121.148C171.183 120.822 170.448 120.659 169.622 120.659C168.789 120.659 168.046 120.822 167.395 121.148C166.743 121.473 166.228 121.924 165.849 122.5C165.478 123.068 165.296 123.723 165.304 124.466C165.296 125.178 165.471 125.807 165.827 126.352C166.183 126.89 166.683 127.311 167.327 127.614C167.978 127.917 168.743 128.068 169.622 128.068ZM169.622 117.466C170.334 117.466 170.963 117.322 171.509 117.034C172.062 116.746 172.497 116.345 172.815 115.83C173.134 115.314 173.296 114.72 173.304 114.045C173.296 113.379 173.137 112.795 172.827 112.295C172.516 111.788 172.084 111.398 171.531 111.125C170.978 110.845 170.342 110.705 169.622 110.705C168.887 110.705 168.24 110.845 167.679 111.125C167.126 111.398 166.694 111.788 166.384 112.295C166.08 112.795 165.933 113.379 165.94 114.045C165.933 114.72 166.084 115.314 166.395 115.83C166.713 116.337 167.149 116.739 167.702 117.034C168.262 117.322 168.902 117.466 169.622 117.466ZM221.693 131V127.955L229.773 120.034C230.545 119.254 231.189 118.561 231.705 117.955C232.22 117.348 232.606 116.761 232.864 116.193C233.121 115.625 233.25 115.019 233.25 114.375C233.25 113.64 233.083 113.011 232.75 112.489C232.417 111.958 231.958 111.549 231.375 111.261C230.792 110.973 230.129 110.83 229.386 110.83C228.621 110.83 227.951 110.989 227.375 111.307C226.799 111.617 226.352 112.061 226.034 112.636C225.723 113.212 225.568 113.898 225.568 114.693H221.557C221.557 113.216 221.894 111.932 222.568 110.841C223.242 109.75 224.17 108.905 225.352 108.307C226.542 107.708 227.905 107.409 229.443 107.409C231.004 107.409 232.375 107.701 233.557 108.284C234.739 108.867 235.655 109.667 236.307 110.682C236.966 111.697 237.295 112.856 237.295 114.159C237.295 115.03 237.129 115.886 236.795 116.727C236.462 117.568 235.875 118.5 235.034 119.523C234.201 120.545 233.03 121.784 231.523 123.239L227.511 127.318V127.477H237.648V131H221.693ZM102.591 170.318C101.477 170.311 100.39 170.117 99.3295 169.739C98.2689 169.352 97.3144 168.727 96.4659 167.864C95.6174 166.992 94.9432 165.837 94.4432 164.398C93.9432 162.951 93.697 161.159 93.7045 159.023C93.7045 157.03 93.9167 155.254 94.3409 153.693C94.7652 152.133 95.375 150.814 96.1705 149.739C96.9659 148.655 97.9242 147.83 99.0455 147.261C100.174 146.693 101.436 146.409 102.83 146.409C104.292 146.409 105.587 146.697 106.716 147.273C107.852 147.848 108.769 148.636 109.466 149.636C110.163 150.629 110.595 151.75 110.761 153H106.614C106.402 152.106 105.966 151.394 105.307 150.864C104.655 150.326 103.83 150.057 102.83 150.057C101.216 150.057 99.9735 150.758 99.1023 152.159C98.2386 153.561 97.803 155.485 97.7955 157.932H97.9545C98.3258 157.265 98.8068 156.693 99.3977 156.216C99.9886 155.739 100.655 155.371 101.398 155.114C102.148 154.848 102.939 154.716 103.773 154.716C105.136 154.716 106.36 155.042 107.443 155.693C108.534 156.345 109.398 157.242 110.034 158.386C110.67 159.523 110.985 160.826 110.977 162.295C110.985 163.826 110.636 165.201 109.932 166.42C109.227 167.633 108.246 168.587 106.989 169.284C105.731 169.981 104.265 170.326 102.591 170.318ZM102.568 166.909C103.394 166.909 104.133 166.708 104.784 166.307C105.436 165.905 105.951 165.364 106.33 164.682C106.708 164 106.894 163.235 106.886 162.386C106.894 161.553 106.712 160.799 106.341 160.125C105.977 159.451 105.473 158.917 104.83 158.523C104.186 158.129 103.451 157.932 102.625 157.932C102.011 157.932 101.439 158.049 100.909 158.284C100.379 158.519 99.9167 158.845 99.5227 159.261C99.1288 159.67 98.8182 160.148 98.5909 160.693C98.3712 161.231 98.2576 161.807 98.25 162.42C98.2576 163.231 98.447 163.977 98.8182 164.659C99.1894 165.341 99.7008 165.886 100.352 166.295C101.004 166.705 101.742 166.909 102.568 166.909ZM118.693 166.818L118.545 168.068C118.439 169.023 118.25 169.992 117.977 170.977C117.712 171.97 117.432 172.883 117.136 173.716C116.841 174.549 116.602 175.205 116.42 175.682H113.648C113.754 175.22 113.898 174.591 114.08 173.795C114.269 173 114.451 172.106 114.625 171.114C114.799 170.121 114.917 169.114 114.977 168.091L115.057 166.818H118.693ZM138.554 146.409C139.668 146.417 140.751 146.614 141.804 147C142.865 147.379 143.819 148 144.668 148.864C145.516 149.72 146.19 150.867 146.69 152.307C147.19 153.746 147.44 155.527 147.44 157.648C147.448 159.648 147.236 161.436 146.804 163.011C146.38 164.58 145.77 165.905 144.974 166.989C144.179 168.072 143.221 168.898 142.099 169.466C140.978 170.034 139.717 170.318 138.315 170.318C136.846 170.318 135.543 170.03 134.406 169.455C133.277 168.879 132.365 168.091 131.668 167.091C130.971 166.091 130.543 164.947 130.384 163.659H134.531C134.743 164.583 135.175 165.318 135.827 165.864C136.486 166.402 137.315 166.67 138.315 166.67C139.929 166.67 141.171 165.97 142.043 164.568C142.914 163.167 143.349 161.22 143.349 158.727H143.19C142.819 159.394 142.338 159.97 141.747 160.455C141.156 160.932 140.486 161.299 139.736 161.557C138.993 161.814 138.205 161.943 137.372 161.943C136.009 161.943 134.781 161.617 133.69 160.966C132.607 160.314 131.747 159.42 131.111 158.284C130.482 157.148 130.164 155.848 130.156 154.386C130.156 152.871 130.505 151.511 131.202 150.307C131.906 149.095 132.887 148.14 134.145 147.443C135.402 146.739 136.872 146.394 138.554 146.409ZM138.565 149.818C137.747 149.818 137.009 150.019 136.349 150.42C135.698 150.814 135.183 151.352 134.804 152.034C134.433 152.708 134.247 153.462 134.247 154.295C134.255 155.121 134.44 155.871 134.804 156.545C135.175 157.22 135.679 157.754 136.315 158.148C136.959 158.542 137.694 158.739 138.52 158.739C139.134 158.739 139.705 158.621 140.236 158.386C140.766 158.152 141.228 157.826 141.622 157.409C142.024 156.985 142.334 156.504 142.554 155.966C142.781 155.428 142.891 154.86 142.884 154.261C142.884 153.466 142.694 152.731 142.315 152.057C141.944 151.383 141.433 150.841 140.781 150.432C140.137 150.023 139.399 149.818 138.565 149.818ZM231.014 170.318C229.378 170.318 227.923 170.038 226.651 169.477C225.385 168.917 224.385 168.136 223.651 167.136C222.916 166.136 222.526 164.981 222.48 163.67H226.753C226.791 164.299 226.999 164.848 227.378 165.318C227.757 165.78 228.26 166.14 228.889 166.398C229.518 166.655 230.223 166.784 231.003 166.784C231.836 166.784 232.575 166.64 233.219 166.352C233.863 166.057 234.366 165.648 234.73 165.125C235.094 164.602 235.272 164 235.264 163.318C235.272 162.614 235.09 161.992 234.719 161.455C234.348 160.917 233.81 160.496 233.105 160.193C232.408 159.89 231.567 159.739 230.582 159.739H228.526V156.489H230.582C231.393 156.489 232.101 156.348 232.707 156.068C233.321 155.788 233.802 155.394 234.151 154.886C234.499 154.371 234.67 153.777 234.662 153.102C234.67 152.443 234.522 151.871 234.219 151.386C233.923 150.894 233.503 150.511 232.957 150.239C232.42 149.966 231.787 149.83 231.06 149.83C230.348 149.83 229.688 149.958 229.082 150.216C228.476 150.473 227.988 150.841 227.616 151.318C227.245 151.788 227.048 152.348 227.026 153H222.969C222.999 151.697 223.374 150.553 224.094 149.568C224.821 148.576 225.791 147.803 227.003 147.25C228.215 146.689 229.575 146.409 231.082 146.409C232.635 146.409 233.984 146.701 235.128 147.284C236.279 147.86 237.17 148.636 237.798 149.614C238.427 150.591 238.741 151.67 238.741 152.852C238.749 154.163 238.363 155.261 237.582 156.148C236.81 157.034 235.795 157.614 234.537 157.886V158.068C236.173 158.295 237.427 158.902 238.298 159.886C239.177 160.864 239.613 162.08 239.605 163.534C239.605 164.837 239.234 166.004 238.491 167.034C237.757 168.057 236.741 168.86 235.446 169.443C234.158 170.027 232.681 170.318 231.014 170.318ZM94.0682 209V205.955L102.148 198.034C102.92 197.254 103.564 196.561 104.08 195.955C104.595 195.348 104.981 194.761 105.239 194.193C105.496 193.625 105.625 193.019 105.625 192.375C105.625 191.64 105.458 191.011 105.125 190.489C104.792 189.958 104.333 189.549 103.75 189.261C103.167 188.973 102.504 188.83 101.761 188.83C100.996 188.83 100.326 188.989 99.75 189.307C99.1742 189.617 98.7273 190.061 98.4091 190.636C98.0985 191.212 97.9432 191.898 97.9432 192.693H93.9318C93.9318 191.216 94.2689 189.932 94.9432 188.841C95.6174 187.75 96.5455 186.905 97.7273 186.307C98.9167 185.708 100.28 185.409 101.818 185.409C103.379 185.409 104.75 185.701 105.932 186.284C107.114 186.867 108.03 187.667 108.682 188.682C109.341 189.697 109.67 190.856 109.67 192.159C109.67 193.03 109.504 193.886 109.17 194.727C108.837 195.568 108.25 196.5 107.409 197.523C106.576 198.545 105.405 199.784 103.898 201.239L99.8864 205.318V205.477H110.023V209H94.0682ZM118.818 205.818L118.67 207.068C118.564 208.023 118.375 208.992 118.102 209.977C117.837 210.97 117.557 211.883 117.261 212.716C116.966 213.549 116.727 214.205 116.545 214.682H113.773C113.879 214.22 114.023 213.591 114.205 212.795C114.394 212 114.576 211.106 114.75 210.114C114.924 209.121 115.042 208.114 115.102 207.091L115.182 205.818H118.818ZM138.952 209.318C137.315 209.318 135.861 209.038 134.588 208.477C133.323 207.917 132.323 207.136 131.588 206.136C130.853 205.136 130.463 203.981 130.418 202.67H134.69C134.728 203.299 134.937 203.848 135.315 204.318C135.694 204.78 136.198 205.14 136.827 205.398C137.455 205.655 138.16 205.784 138.94 205.784C139.774 205.784 140.512 205.64 141.156 205.352C141.8 205.057 142.304 204.648 142.668 204.125C143.031 203.602 143.209 203 143.202 202.318C143.209 201.614 143.027 200.992 142.656 200.455C142.285 199.917 141.747 199.496 141.043 199.193C140.346 198.89 139.505 198.739 138.52 198.739H136.463V195.489H138.52C139.33 195.489 140.039 195.348 140.645 195.068C141.259 194.788 141.74 194.394 142.088 193.886C142.437 193.371 142.607 192.777 142.599 192.102C142.607 191.443 142.459 190.871 142.156 190.386C141.861 189.894 141.44 189.511 140.895 189.239C140.357 188.966 139.724 188.83 138.997 188.83C138.285 188.83 137.626 188.958 137.02 189.216C136.414 189.473 135.925 189.841 135.554 190.318C135.183 190.788 134.986 191.348 134.963 192H130.906C130.937 190.697 131.312 189.553 132.031 188.568C132.759 187.576 133.728 186.803 134.94 186.25C136.152 185.689 137.512 185.409 139.02 185.409C140.573 185.409 141.921 185.701 143.065 186.284C144.217 186.86 145.107 187.636 145.736 188.614C146.365 189.591 146.679 190.67 146.679 191.852C146.687 193.163 146.3 194.261 145.52 195.148C144.747 196.034 143.732 196.614 142.474 196.886V197.068C144.111 197.295 145.365 197.902 146.236 198.886C147.115 199.864 147.55 201.08 147.543 202.534C147.543 203.837 147.171 205.004 146.429 206.034C145.694 207.057 144.679 207.86 143.384 208.443C142.096 209.027 140.618 209.318 138.952 209.318Z" fill="black"/>
<rect x="603" y="82" width="46" height="32" fill="#BCA0DF"/>
<path d="M390.42 45.7273V69H386.67L375.705 53.1477H375.511V69H371.295V45.7273H375.068L386.023 61.5909H386.227V45.7273H390.42ZM394.582 69V66.375L406.514 49.2614H394.514V45.7273H411.741V48.3523L399.821 65.4659H411.81V69H394.582ZM419.003 45.7273L425.06 64.0455H425.298L431.344 45.7273H435.98L427.776 69H422.571L414.378 45.7273H419.003ZM447.824 57.3636C447.824 54.5227 448.199 51.9129 448.949 49.5341C449.706 47.1477 450.831 44.9432 452.324 42.9205H456.199C455.623 43.6705 455.085 44.5909 454.585 45.6818C454.085 46.7652 453.65 47.9545 453.278 49.25C452.915 50.5379 452.627 51.875 452.415 53.2614C452.21 54.6477 452.108 56.0152 452.108 57.3636C452.108 59.1591 452.286 60.9773 452.642 62.8182C453.006 64.6591 453.494 66.3674 454.108 67.9432C454.729 69.5114 455.426 70.7955 456.199 71.7955H452.324C450.831 69.7727 449.706 67.572 448.949 65.1932C448.199 62.8068 447.824 60.197 447.824 57.3636ZM466.866 64.6818V61.3295L476.741 45.7273H479.537V50.5H477.832L471.185 61.0341V61.2159H484.969V64.6818H466.866ZM477.969 69V63.6591L478.014 62.1591V45.7273H481.991V69H477.969ZM496.872 69.3182C495.183 69.3182 493.683 69.0341 492.372 68.4659C491.069 67.8977 490.046 67.1212 489.304 66.1364C488.569 65.1439 488.205 64.0189 488.213 62.7614C488.205 61.7841 488.418 60.8864 488.849 60.0682C489.281 59.25 489.865 58.5682 490.599 58.0227C491.342 57.4697 492.168 57.1174 493.077 56.9659V56.8068C491.88 56.5417 490.91 55.9318 490.168 54.9773C489.433 54.0152 489.069 52.9053 489.077 51.6477C489.069 50.4508 489.402 49.3826 490.077 48.4432C490.751 47.5038 491.675 46.7652 492.849 46.2273C494.024 45.6818 495.365 45.4091 496.872 45.4091C498.365 45.4091 499.694 45.6818 500.861 46.2273C502.035 46.7652 502.959 47.5038 503.634 48.4432C504.315 49.3826 504.656 50.4508 504.656 51.6477C504.656 52.9053 504.281 54.0152 503.531 54.9773C502.789 55.9318 501.83 56.5417 500.656 56.8068V56.9659C501.565 57.1174 502.384 57.4697 503.111 58.0227C503.846 58.5682 504.429 59.25 504.861 60.0682C505.3 60.8864 505.52 61.7841 505.52 62.7614C505.52 64.0189 505.149 65.1439 504.406 66.1364C503.664 67.1212 502.641 67.8977 501.338 68.4659C500.043 69.0341 498.554 69.3182 496.872 69.3182ZM496.872 66.0682C497.743 66.0682 498.501 65.9205 499.145 65.625C499.789 65.322 500.289 64.8977 500.645 64.3523C501.001 63.8068 501.183 63.178 501.19 62.4659C501.183 61.7235 500.99 61.0682 500.611 60.5C500.24 59.9242 499.728 59.4735 499.077 59.1477C498.433 58.822 497.698 58.6591 496.872 58.6591C496.039 58.6591 495.296 58.822 494.645 59.1477C493.993 59.4735 493.478 59.9242 493.099 60.5C492.728 61.0682 492.546 61.7235 492.554 62.4659C492.546 63.178 492.721 63.8068 493.077 64.3523C493.433 64.8902 493.933 65.3106 494.577 65.6136C495.228 65.9167 495.993 66.0682 496.872 66.0682ZM496.872 55.4659C497.584 55.4659 498.213 55.322 498.759 55.0341C499.312 54.7462 499.747 54.3447 500.065 53.8295C500.384 53.3144 500.546 52.7197 500.554 52.0455C500.546 51.3788 500.387 50.7955 500.077 50.2955C499.766 49.7879 499.334 49.3977 498.781 49.125C498.228 48.8447 497.592 48.7045 496.872 48.7045C496.137 48.7045 495.49 48.8447 494.929 49.125C494.376 49.3977 493.944 49.7879 493.634 50.2955C493.33 50.7955 493.183 51.3788 493.19 52.0455C493.183 52.7197 493.334 53.3144 493.645 53.8295C493.963 54.3371 494.399 54.7386 494.952 55.0341C495.512 55.322 496.152 55.4659 496.872 55.4659ZM513.443 65.8182L513.295 67.0682C513.189 68.0227 513 68.9924 512.727 69.9773C512.462 70.9697 512.182 71.8826 511.886 72.7159C511.591 73.5492 511.352 74.2045 511.17 74.6818H508.398C508.504 74.2197 508.648 73.5909 508.83 72.7955C509.019 72 509.201 71.1061 509.375 70.1136C509.549 69.1212 509.667 68.1136 509.727 67.0909L509.807 65.8182H513.443ZM518.108 69L528.006 49.4091V49.25H516.517V45.7273H532.369V49.3295L522.483 69H518.108ZM536.037 69V65.9545L544.116 58.0341C544.889 57.2538 545.533 56.5606 546.048 55.9545C546.563 55.3485 546.95 54.7614 547.207 54.1932C547.465 53.625 547.594 53.0189 547.594 52.375C547.594 51.6402 547.427 51.0114 547.094 50.4886C546.76 49.9583 546.302 49.5492 545.719 49.2614C545.135 48.9735 544.473 48.8295 543.73 48.8295C542.965 48.8295 542.295 48.9886 541.719 49.3068C541.143 49.6174 540.696 50.0606 540.378 50.6364C540.067 51.2121 539.912 51.8977 539.912 52.6932H535.901C535.901 51.2159 536.238 49.9318 536.912 48.8409C537.586 47.75 538.514 46.9053 539.696 46.3068C540.885 45.7083 542.249 45.4091 543.787 45.4091C545.348 45.4091 546.719 45.7008 547.901 46.2841C549.082 46.8674 549.999 47.6667 550.651 48.6818C551.31 49.697 551.639 50.8561 551.639 52.1591C551.639 53.0303 551.473 53.8864 551.139 54.7273C550.806 55.5682 550.219 56.5 549.378 57.5227C548.545 58.5455 547.374 59.7841 545.866 61.2386L541.855 65.3182V65.4773H551.991V69H536.037ZM563.298 57.3636C563.298 60.197 562.92 62.8068 562.162 65.1932C561.412 67.572 560.291 69.7727 558.798 71.7955H554.923C555.507 71.0455 556.045 70.1288 556.537 69.0455C557.037 67.9621 557.469 66.7727 557.832 65.4773C558.204 64.1818 558.491 62.8409 558.696 61.4545C558.908 60.0682 559.014 58.7045 559.014 57.3636C559.014 55.5682 558.832 53.75 558.469 51.9091C558.113 50.0682 557.624 48.3598 557.003 46.7841C556.389 45.2083 555.696 43.9205 554.923 42.9205H558.798C560.291 44.9432 561.412 47.1477 562.162 49.5341C562.92 51.9129 563.298 54.5227 563.298 57.3636ZM577.58 55.4773V51.9773H592.705V55.4773H577.58ZM577.58 62.75V59.25H592.705V62.75H577.58ZM371.068 108V104.955L379.148 97.0341C379.92 96.2538 380.564 95.5606 381.08 94.9545C381.595 94.3485 381.981 93.7614 382.239 93.1932C382.496 92.625 382.625 92.0189 382.625 91.375C382.625 90.6402 382.458 90.0114 382.125 89.4886C381.792 88.9583 381.333 88.5492 380.75 88.2614C380.167 87.9735 379.504 87.8295 378.761 87.8295C377.996 87.8295 377.326 87.9886 376.75 88.3068C376.174 88.6174 375.727 89.0606 375.409 89.6364C375.098 90.2121 374.943 90.8977 374.943 91.6932H370.932C370.932 90.2159 371.269 88.9318 371.943 87.8409C372.617 86.75 373.545 85.9053 374.727 85.3068C375.917 84.7083 377.28 84.4091 378.818 84.4091C380.379 84.4091 381.75 84.7008 382.932 85.2841C384.114 85.8674 385.03 86.6667 385.682 87.6818C386.341 88.697 386.67 89.8561 386.67 91.1591C386.67 92.0303 386.504 92.8864 386.17 93.7273C385.837 94.5682 385.25 95.5 384.409 96.5227C383.576 97.5455 382.405 98.7841 380.898 100.239L376.886 104.318V104.477H387.023V108H371.068ZM412.96 104.455L399.631 91.1477L402.199 88.5682L415.517 101.886L412.96 104.455ZM402.199 104.455L399.631 101.886L412.96 88.5682L415.517 91.1477L402.199 104.455ZM428.349 108V104.955L436.429 97.0341C437.202 96.2538 437.846 95.5606 438.361 94.9545C438.876 94.3485 439.262 93.7614 439.52 93.1932C439.777 92.625 439.906 92.0189 439.906 91.375C439.906 90.6402 439.74 90.0114 439.406 89.4886C439.073 88.9583 438.615 88.5492 438.031 88.2614C437.448 87.9735 436.785 87.8295 436.043 87.8295C435.277 87.8295 434.607 87.9886 434.031 88.3068C433.455 88.6174 433.009 89.0606 432.69 89.6364C432.38 90.2121 432.224 90.8977 432.224 91.6932H428.213C428.213 90.2159 428.55 88.9318 429.224 87.8409C429.899 86.75 430.827 85.9053 432.009 85.3068C433.198 84.7083 434.562 84.4091 436.099 84.4091C437.66 84.4091 439.031 84.7008 440.213 85.2841C441.395 85.8674 442.312 86.6667 442.963 87.6818C443.622 88.697 443.952 89.8561 443.952 91.1591C443.952 92.0303 443.785 92.8864 443.452 93.7273C443.118 94.5682 442.531 95.5 441.69 96.5227C440.857 97.5455 439.687 98.7841 438.179 100.239L434.168 104.318V104.477H444.304V108H428.349ZM470.241 104.455L456.912 91.1477L459.48 88.5682L472.798 101.886L470.241 104.455ZM459.48 104.455L456.912 101.886L470.241 88.5682L472.798 91.1477L459.48 104.455ZM485.631 108V104.955L493.71 97.0341C494.483 96.2538 495.127 95.5606 495.642 94.9545C496.157 94.3485 496.544 93.7614 496.801 93.1932C497.059 92.625 497.188 92.0189 497.188 91.375C497.188 90.6402 497.021 90.0114 496.688 89.4886C496.354 88.9583 495.896 88.5492 495.312 88.2614C494.729 87.9735 494.066 87.8295 493.324 87.8295C492.559 87.8295 491.888 87.9886 491.312 88.3068C490.737 88.6174 490.29 89.0606 489.972 89.6364C489.661 90.2121 489.506 90.8977 489.506 91.6932H485.494C485.494 90.2159 485.831 88.9318 486.506 87.8409C487.18 86.75 488.108 85.9053 489.29 85.3068C490.479 84.7083 491.843 84.4091 493.381 84.4091C494.941 84.4091 496.313 84.7008 497.494 85.2841C498.676 85.8674 499.593 86.6667 500.244 87.6818C500.903 88.697 501.233 89.8561 501.233 91.1591C501.233 92.0303 501.066 92.8864 500.733 93.7273C500.4 94.5682 499.813 95.5 498.972 96.5227C498.138 97.5455 496.968 98.7841 495.46 100.239L491.449 104.318V104.477H501.585V108H485.631ZM527.523 104.455L514.193 91.1477L516.761 88.5682L530.08 101.886L527.523 104.455ZM516.761 104.455L514.193 101.886L527.523 88.5682L530.08 91.1477L516.761 104.455ZM551.264 108.318C549.628 108.318 548.173 108.038 546.901 107.477C545.635 106.917 544.635 106.136 543.901 105.136C543.166 104.136 542.776 102.981 542.73 101.67H547.003C547.041 102.299 547.249 102.848 547.628 103.318C548.007 103.78 548.51 104.14 549.139 104.398C549.768 104.655 550.473 104.784 551.253 104.784C552.086 104.784 552.825 104.64 553.469 104.352C554.113 104.057 554.616 103.648 554.98 103.125C555.344 102.602 555.522 102 555.514 101.318C555.522 100.614 555.34 99.9924 554.969 99.4545C554.598 98.9167 554.06 98.4962 553.355 98.1932C552.658 97.8902 551.817 97.7386 550.832 97.7386H548.776V94.4886H550.832C551.643 94.4886 552.351 94.3485 552.957 94.0682C553.571 93.7879 554.052 93.3939 554.401 92.8864C554.749 92.3712 554.92 91.7765 554.912 91.1023C554.92 90.4432 554.772 89.8712 554.469 89.3864C554.173 88.8939 553.753 88.5114 553.207 88.2386C552.67 87.9659 552.037 87.8295 551.31 87.8295C550.598 87.8295 549.938 87.9583 549.332 88.2159C548.726 88.4735 548.238 88.8409 547.866 89.3182C547.495 89.7879 547.298 90.3485 547.276 91H543.219C543.249 89.697 543.624 88.553 544.344 87.5682C545.071 86.5758 546.041 85.803 547.253 85.25C548.465 84.6894 549.825 84.4091 551.332 84.4091C552.885 84.4091 554.234 84.7008 555.378 85.2841C556.529 85.8598 557.42 86.6364 558.048 87.6136C558.677 88.5909 558.991 89.6705 558.991 90.8523C558.999 92.1629 558.613 93.2614 557.832 94.1477C557.06 95.0341 556.045 95.6136 554.787 95.8864V96.0682C556.423 96.2955 557.677 96.9015 558.548 97.8864C559.427 98.8636 559.863 100.08 559.855 101.534C559.855 102.837 559.484 104.004 558.741 105.034C558.007 106.057 556.991 106.86 555.696 107.443C554.408 108.027 552.931 108.318 551.264 108.318ZM580.767 94.4773V90.9773H595.892V94.4773H580.767ZM580.767 101.75V98.25H595.892V101.75H580.767ZM618.565 84.7273V108H614.349V88.8295H614.213L608.77 92.3068V88.4432L614.554 84.7273H618.565ZM632.747 108.318C631.058 108.318 629.558 108.034 628.247 107.466C626.944 106.898 625.921 106.121 625.179 105.136C624.444 104.144 624.08 103.019 624.088 101.761C624.08 100.784 624.293 99.8864 624.724 99.0682C625.156 98.25 625.74 97.5682 626.474 97.0227C627.217 96.4697 628.043 96.1174 628.952 95.9659V95.8068C627.755 95.5417 626.785 94.9318 626.043 93.9773C625.308 93.0152 624.944 91.9053 624.952 90.6477C624.944 89.4508 625.277 88.3826 625.952 87.4432C626.626 86.5038 627.55 85.7652 628.724 85.2273C629.899 84.6818 631.24 84.4091 632.747 84.4091C634.24 84.4091 635.569 84.6818 636.736 85.2273C637.91 85.7652 638.834 86.5038 639.509 87.4432C640.19 88.3826 640.531 89.4508 640.531 90.6477C640.531 91.9053 640.156 93.0152 639.406 93.9773C638.664 94.9318 637.705 95.5417 636.531 95.8068V95.9659C637.44 96.1174 638.259 96.4697 638.986 97.0227C639.721 97.5682 640.304 98.25 640.736 99.0682C641.175 99.8864 641.395 100.784 641.395 101.761C641.395 103.019 641.024 104.144 640.281 105.136C639.539 106.121 638.516 106.898 637.213 107.466C635.918 108.034 634.429 108.318 632.747 108.318ZM632.747 105.068C633.618 105.068 634.376 104.92 635.02 104.625C635.664 104.322 636.164 103.898 636.52 103.352C636.876 102.807 637.058 102.178 637.065 101.466C637.058 100.723 636.865 100.068 636.486 99.5C636.115 98.9242 635.603 98.4735 634.952 98.1477C634.308 97.822 633.573 97.6591 632.747 97.6591C631.914 97.6591 631.171 97.822 630.52 98.1477C629.868 98.4735 629.353 98.9242 628.974 99.5C628.603 100.068 628.421 100.723 628.429 101.466C628.421 102.178 628.596 102.807 628.952 103.352C629.308 103.89 629.808 104.311 630.452 104.614C631.103 104.917 631.868 105.068 632.747 105.068ZM632.747 94.4659C633.459 94.4659 634.088 94.322 634.634 94.0341C635.187 93.7462 635.622 93.3447 635.94 92.8295C636.259 92.3144 636.421 91.7197 636.429 91.0455C636.421 90.3788 636.262 89.7955 635.952 89.2955C635.641 88.7879 635.209 88.3977 634.656 88.125C634.103 87.8447 633.467 87.7045 632.747 87.7045C632.012 87.7045 631.365 87.8447 630.804 88.125C630.251 88.3977 629.819 88.7879 629.509 89.2955C629.205 89.7955 629.058 90.3788 629.065 91.0455C629.058 91.7197 629.209 92.3144 629.52 92.8295C629.838 93.3371 630.274 93.7386 630.827 94.0341C631.387 94.322 632.027 94.4659 632.747 94.4659Z" fill="black"/>
</svg>
