<svg width="749" height="229" viewBox="0 0 749 229" fill="none" xmlns="http://www.w3.org/2000/svg">
<rect width="749" height="229" fill="#CCCCCC"/>
<line x1="150" y1="25" x2="150" y2="208" stroke="#9B9B9B" stroke-width="2"/>
<line x1="373" y1="50.7686" x2="29" y2="50.7686" stroke="#9B9B9B" stroke-width="2"/>
<line x1="373" y1="176.176" x2="29" y2="176.176" stroke="#9B9B9B" stroke-width="2"/>
<line x1="373" y1="146.542" x2="29" y2="146.542" stroke="#9B9B9B" stroke-width="2"/>
<line x1="373" y1="116.479" x2="29" y2="116.479" stroke="#9B9B9B" stroke-width="2"/>
<line x1="373" y1="82.55" x2="29" y2="82.55" stroke="#9B9B9B" stroke-width="2"/>
<line x1="359" y1="25" x2="359" y2="208" stroke="#9B9B9B" stroke-width="2"/>
<line x1="328" y1="24" x2="328" y2="207" stroke="#9B9B9B" stroke-width="2"/>
<line x1="46" y1="24" x2="46" y2="207" stroke="#9B9B9B" stroke-width="2"/>
<line x1="254" y1="24" x2="254" y2="207" stroke="#9B9B9B" stroke-width="2"/>
<line x1="293" y1="24" x2="293" y2="207" stroke="#9B9B9B" stroke-width="2"/>
<line x1="183" y1="25" x2="183" y2="208" stroke="#9B9B9B" stroke-width="2"/>
<line x1="217" y1="25" x2="217" y2="208" stroke="#9B9B9B" stroke-width="2"/>
<line x1="113" y1="24" x2="113" y2="207" stroke="#9B9B9B" stroke-width="2"/>
<line x1="80" y1="24" x2="80" y2="207" stroke="#9B9B9B" stroke-width="2"/>
<line x1="494" y1="25" x2="494" y2="209" stroke="#9B9B9B" stroke-width="2"/>
<line x1="717" y1="50.7686" x2="373" y2="50.7686" stroke="#9B9B9B" stroke-width="2"/>
<line x1="717" y1="176.176" x2="373" y2="176.176" stroke="#9B9B9B" stroke-width="2"/>
<line x1="717" y1="146.542" x2="373" y2="146.542" stroke="#9B9B9B" stroke-width="2"/>
<line x1="717" y1="116.479" x2="373" y2="116.479" stroke="#9B9B9B" stroke-width="2"/>
<line x1="717" y1="82.55" x2="373" y2="82.55" stroke="#9B9B9B" stroke-width="2"/>
<line x1="703" y1="25" x2="703" y2="209" stroke="#9B9B9B" stroke-width="2"/>
<line x1="672" y1="24" x2="672" y2="208" stroke="#9B9B9B" stroke-width="2"/>
<line x1="390" y1="24" x2="390" y2="208" stroke="#9B9B9B" stroke-width="2"/>
<line x1="598" y1="24" x2="598" y2="208" stroke="#9B9B9B" stroke-width="2"/>
<line x1="637" y1="24" x2="637" y2="208" stroke="#9B9B9B" stroke-width="2"/>
<line x1="527" y1="25" x2="527" y2="209" stroke="#9B9B9B" stroke-width="2"/>
<line x1="561" y1="25" x2="561" y2="209" stroke="#9B9B9B" stroke-width="2"/>
<line x1="457" y1="24" x2="457" y2="208" stroke="#9B9B9B" stroke-width="2"/>
<line x1="424" y1="24" x2="424" y2="208" stroke="#9B9B9B" stroke-width="2"/>
<rect x="585" y="94" width="46" height="32" fill="#BCA0DF"/>
<path d="M138.42 96.7273V120H134.67L123.705 104.148H123.511V120H119.295V96.7273H123.068L134.023 112.591H134.227V96.7273H138.42ZM142.582 120V117.375L154.514 100.261H142.514V96.7273H159.741V99.3523L147.821 116.466H159.81V120H142.582ZM171.776 120H163.889V96.7273H171.935C174.245 96.7273 176.23 97.1932 177.889 98.125C179.556 99.0492 180.836 100.379 181.73 102.114C182.624 103.848 183.071 105.924 183.071 108.341C183.071 110.765 182.62 112.848 181.719 114.591C180.825 116.333 179.533 117.67 177.844 118.602C176.162 119.534 174.139 120 171.776 120ZM168.105 116.352H171.571C173.192 116.352 174.545 116.057 175.628 115.466C176.711 114.867 177.526 113.977 178.071 112.795C178.616 111.606 178.889 110.121 178.889 108.341C178.889 106.561 178.616 105.083 178.071 103.909C177.526 102.727 176.719 101.845 175.651 101.261C174.59 100.67 173.272 100.375 171.696 100.375H168.105V116.352ZM195.855 108.364C195.855 105.523 196.23 102.913 196.98 100.534C197.738 98.1477 198.863 95.9432 200.355 93.9205H204.23C203.654 94.6705 203.116 95.5909 202.616 96.6818C202.116 97.7652 201.681 98.9545 201.31 100.25C200.946 101.538 200.658 102.875 200.446 104.261C200.241 105.648 200.139 107.015 200.139 108.364C200.139 110.159 200.317 111.977 200.673 113.818C201.037 115.659 201.526 117.367 202.139 118.943C202.76 120.511 203.457 121.795 204.23 122.795H200.355C198.863 120.773 197.738 118.572 196.98 116.193C196.23 113.807 195.855 111.197 195.855 108.364ZM214.898 115.682V112.33L224.773 96.7273H227.568V101.5H225.864L219.216 112.034V112.216H233V115.682H214.898ZM226 120V114.659L226.045 113.159V96.7273H230.023V120H226ZM244.903 120.318C243.214 120.318 241.714 120.034 240.403 119.466C239.1 118.898 238.078 118.121 237.335 117.136C236.6 116.144 236.237 115.019 236.244 113.761C236.237 112.784 236.449 111.886 236.881 111.068C237.313 110.25 237.896 109.568 238.631 109.023C239.373 108.47 240.199 108.117 241.108 107.966V107.807C239.911 107.542 238.941 106.932 238.199 105.977C237.464 105.015 237.1 103.905 237.108 102.648C237.1 101.451 237.434 100.383 238.108 99.4432C238.782 98.5038 239.706 97.7652 240.881 97.2273C242.055 96.6818 243.396 96.4091 244.903 96.4091C246.396 96.4091 247.725 96.6818 248.892 97.2273C250.066 97.7652 250.991 98.5038 251.665 99.4432C252.347 100.383 252.688 101.451 252.688 102.648C252.688 103.905 252.312 105.015 251.562 105.977C250.82 106.932 249.862 107.542 248.688 107.807V107.966C249.597 108.117 250.415 108.47 251.142 109.023C251.877 109.568 252.46 110.25 252.892 111.068C253.331 111.886 253.551 112.784 253.551 113.761C253.551 115.019 253.18 116.144 252.438 117.136C251.695 118.121 250.672 118.898 249.369 119.466C248.074 120.034 246.585 120.318 244.903 120.318ZM244.903 117.068C245.775 117.068 246.532 116.92 247.176 116.625C247.82 116.322 248.32 115.898 248.676 115.352C249.032 114.807 249.214 114.178 249.222 113.466C249.214 112.723 249.021 112.068 248.642 111.5C248.271 110.924 247.759 110.473 247.108 110.148C246.464 109.822 245.729 109.659 244.903 109.659C244.07 109.659 243.328 109.822 242.676 110.148C242.025 110.473 241.509 110.924 241.131 111.5C240.759 112.068 240.578 112.723 240.585 113.466C240.578 114.178 240.752 114.807 241.108 115.352C241.464 115.89 241.964 116.311 242.608 116.614C243.259 116.917 244.025 117.068 244.903 117.068ZM244.903 106.466C245.616 106.466 246.244 106.322 246.79 106.034C247.343 105.746 247.778 105.345 248.097 104.83C248.415 104.314 248.578 103.72 248.585 103.045C248.578 102.379 248.419 101.795 248.108 101.295C247.797 100.788 247.366 100.398 246.812 100.125C246.259 99.8447 245.623 99.7045 244.903 99.7045C244.169 99.7045 243.521 99.8447 242.96 100.125C242.407 100.398 241.975 100.788 241.665 101.295C241.362 101.795 241.214 102.379 241.222 103.045C241.214 103.72 241.366 104.314 241.676 104.83C241.994 105.337 242.43 105.739 242.983 106.034C243.544 106.322 244.184 106.466 244.903 106.466ZM261.474 116.818L261.327 118.068C261.221 119.023 261.031 119.992 260.759 120.977C260.493 121.97 260.213 122.883 259.918 123.716C259.622 124.549 259.384 125.205 259.202 125.682H256.429C256.535 125.22 256.679 124.591 256.861 123.795C257.05 123 257.232 122.106 257.406 121.114C257.58 120.121 257.698 119.114 257.759 118.091L257.838 116.818H261.474ZM266.139 120L276.037 100.409V100.25H264.548V96.7273H280.401V100.33L270.514 120H266.139ZM284.068 120V116.955L292.148 109.034C292.92 108.254 293.564 107.561 294.08 106.955C294.595 106.348 294.981 105.761 295.239 105.193C295.496 104.625 295.625 104.019 295.625 103.375C295.625 102.64 295.458 102.011 295.125 101.489C294.792 100.958 294.333 100.549 293.75 100.261C293.167 99.9735 292.504 99.8295 291.761 99.8295C290.996 99.8295 290.326 99.9886 289.75 100.307C289.174 100.617 288.727 101.061 288.409 101.636C288.098 102.212 287.943 102.898 287.943 103.693H283.932C283.932 102.216 284.269 100.932 284.943 99.8409C285.617 98.75 286.545 97.9053 287.727 97.3068C288.917 96.7083 290.28 96.4091 291.818 96.4091C293.379 96.4091 294.75 96.7008 295.932 97.2841C297.114 97.8674 298.03 98.6667 298.682 99.6818C299.341 100.697 299.67 101.856 299.67 103.159C299.67 104.03 299.504 104.886 299.17 105.727C298.837 106.568 298.25 107.5 297.409 108.523C296.576 109.545 295.405 110.784 293.898 112.239L289.886 116.318V116.477H300.023V120H284.068ZM311.33 108.364C311.33 111.197 310.951 113.807 310.193 116.193C309.443 118.572 308.322 120.773 306.83 122.795H302.955C303.538 122.045 304.076 121.129 304.568 120.045C305.068 118.962 305.5 117.773 305.864 116.477C306.235 115.182 306.523 113.841 306.727 112.455C306.939 111.068 307.045 109.705 307.045 108.364C307.045 106.568 306.864 104.75 306.5 102.909C306.144 101.068 305.655 99.3598 305.034 97.7841C304.42 96.2083 303.727 94.9205 302.955 93.9205H306.83C308.322 95.9432 309.443 98.1477 310.193 100.534C310.951 102.913 311.33 105.523 311.33 108.364ZM325.611 106.477V102.977H340.736V106.477H325.611ZM325.611 113.75V110.25H340.736V113.75H325.611ZM361.881 120V116.955L369.96 109.034C370.733 108.254 371.377 107.561 371.892 106.955C372.407 106.348 372.794 105.761 373.051 105.193C373.309 104.625 373.438 104.019 373.438 103.375C373.438 102.64 373.271 102.011 372.938 101.489C372.604 100.958 372.146 100.549 371.562 100.261C370.979 99.9735 370.316 99.8295 369.574 99.8295C368.809 99.8295 368.138 99.9886 367.562 100.307C366.987 100.617 366.54 101.061 366.222 101.636C365.911 102.212 365.756 102.898 365.756 103.693H361.744C361.744 102.216 362.081 100.932 362.756 99.8409C363.43 98.75 364.358 97.9053 365.54 97.3068C366.729 96.7083 368.093 96.4091 369.631 96.4091C371.191 96.4091 372.563 96.7008 373.744 97.2841C374.926 97.8674 375.843 98.6667 376.494 99.6818C377.153 100.697 377.483 101.856 377.483 103.159C377.483 104.03 377.316 104.886 376.983 105.727C376.65 106.568 376.063 107.5 375.222 108.523C374.388 109.545 373.218 110.784 371.71 112.239L367.699 116.318V116.477H377.835V120H361.881ZM403.773 116.455L390.443 103.148L393.011 100.568L406.33 113.886L403.773 116.455ZM393.011 116.455L390.443 113.886L403.773 100.568L406.33 103.148L393.011 116.455ZM419.162 120V116.955L427.241 109.034C428.014 108.254 428.658 107.561 429.173 106.955C429.688 106.348 430.075 105.761 430.332 105.193C430.59 104.625 430.719 104.019 430.719 103.375C430.719 102.64 430.552 102.011 430.219 101.489C429.885 100.958 429.427 100.549 428.844 100.261C428.26 99.9735 427.598 99.8295 426.855 99.8295C426.09 99.8295 425.42 99.9886 424.844 100.307C424.268 100.617 423.821 101.061 423.503 101.636C423.192 102.212 423.037 102.898 423.037 103.693H419.026C419.026 102.216 419.363 100.932 420.037 99.8409C420.711 98.75 421.639 97.9053 422.821 97.3068C424.01 96.7083 425.374 96.4091 426.912 96.4091C428.473 96.4091 429.844 96.7008 431.026 97.2841C432.207 97.8674 433.124 98.6667 433.776 99.6818C434.435 100.697 434.764 101.856 434.764 103.159C434.764 104.03 434.598 104.886 434.264 105.727C433.931 106.568 433.344 107.5 432.503 108.523C431.67 109.545 430.499 110.784 428.991 112.239L424.98 116.318V116.477H435.116V120H419.162ZM461.054 116.455L447.724 103.148L450.293 100.568L463.611 113.886L461.054 116.455ZM450.293 116.455L447.724 113.886L461.054 100.568L463.611 103.148L450.293 116.455ZM476.443 120V116.955L484.523 109.034C485.295 108.254 485.939 107.561 486.455 106.955C486.97 106.348 487.356 105.761 487.614 105.193C487.871 104.625 488 104.019 488 103.375C488 102.64 487.833 102.011 487.5 101.489C487.167 100.958 486.708 100.549 486.125 100.261C485.542 99.9735 484.879 99.8295 484.136 99.8295C483.371 99.8295 482.701 99.9886 482.125 100.307C481.549 100.617 481.102 101.061 480.784 101.636C480.473 102.212 480.318 102.898 480.318 103.693H476.307C476.307 102.216 476.644 100.932 477.318 99.8409C477.992 98.75 478.92 97.9053 480.102 97.3068C481.292 96.7083 482.655 96.4091 484.193 96.4091C485.754 96.4091 487.125 96.7008 488.307 97.2841C489.489 97.8674 490.405 98.6667 491.057 99.6818C491.716 100.697 492.045 101.856 492.045 103.159C492.045 104.03 491.879 104.886 491.545 105.727C491.212 106.568 490.625 107.5 489.784 108.523C488.951 109.545 487.78 110.784 486.273 112.239L482.261 116.318V116.477H492.398V120H476.443ZM518.335 116.455L505.006 103.148L507.574 100.568L520.892 113.886L518.335 116.455ZM507.574 116.455L505.006 113.886L518.335 100.568L520.892 103.148L507.574 116.455ZM542.077 120.318C540.44 120.318 538.986 120.038 537.713 119.477C536.448 118.917 535.448 118.136 534.713 117.136C533.978 116.136 533.588 114.981 533.543 113.67H537.815C537.853 114.299 538.062 114.848 538.44 115.318C538.819 115.78 539.323 116.14 539.952 116.398C540.58 116.655 541.285 116.784 542.065 116.784C542.899 116.784 543.637 116.64 544.281 116.352C544.925 116.057 545.429 115.648 545.793 115.125C546.156 114.602 546.334 114 546.327 113.318C546.334 112.614 546.152 111.992 545.781 111.455C545.41 110.917 544.872 110.496 544.168 110.193C543.471 109.89 542.63 109.739 541.645 109.739H539.588V106.489H541.645C542.455 106.489 543.164 106.348 543.77 106.068C544.384 105.788 544.865 105.394 545.213 104.886C545.562 104.371 545.732 103.777 545.724 103.102C545.732 102.443 545.584 101.871 545.281 101.386C544.986 100.894 544.565 100.511 544.02 100.239C543.482 99.9659 542.849 99.8295 542.122 99.8295C541.41 99.8295 540.751 99.9583 540.145 100.216C539.539 100.473 539.05 100.841 538.679 101.318C538.308 101.788 538.111 102.348 538.088 103H534.031C534.062 101.697 534.437 100.553 535.156 99.5682C535.884 98.5758 536.853 97.803 538.065 97.25C539.277 96.6894 540.637 96.4091 542.145 96.4091C543.698 96.4091 545.046 96.7008 546.19 97.2841C547.342 97.8598 548.232 98.6364 548.861 99.6136C549.49 100.591 549.804 101.67 549.804 102.852C549.812 104.163 549.425 105.261 548.645 106.148C547.872 107.034 546.857 107.614 545.599 107.886V108.068C547.236 108.295 548.49 108.902 549.361 109.886C550.24 110.864 550.675 112.08 550.668 113.534C550.668 114.837 550.296 116.004 549.554 117.034C548.819 118.057 547.804 118.86 546.509 119.443C545.221 120.027 543.743 120.318 542.077 120.318ZM563.642 106.477V102.977H578.767V106.477H563.642ZM563.642 113.75V110.25H578.767V113.75H563.642ZM601.44 96.7273V120H597.224V100.83H597.088L591.645 104.307V100.443L597.429 96.7273H601.44ZM615.622 120.318C613.933 120.318 612.433 120.034 611.122 119.466C609.819 118.898 608.796 118.121 608.054 117.136C607.319 116.144 606.955 115.019 606.963 113.761C606.955 112.784 607.168 111.886 607.599 111.068C608.031 110.25 608.615 109.568 609.349 109.023C610.092 108.47 610.918 108.117 611.827 107.966V107.807C610.63 107.542 609.66 106.932 608.918 105.977C608.183 105.015 607.819 103.905 607.827 102.648C607.819 101.451 608.152 100.383 608.827 99.4432C609.501 98.5038 610.425 97.7652 611.599 97.2273C612.774 96.6818 614.115 96.4091 615.622 96.4091C617.115 96.4091 618.444 96.6818 619.611 97.2273C620.785 97.7652 621.709 98.5038 622.384 99.4432C623.065 100.383 623.406 101.451 623.406 102.648C623.406 103.905 623.031 105.015 622.281 105.977C621.539 106.932 620.58 107.542 619.406 107.807V107.966C620.315 108.117 621.134 108.47 621.861 109.023C622.596 109.568 623.179 110.25 623.611 111.068C624.05 111.886 624.27 112.784 624.27 113.761C624.27 115.019 623.899 116.144 623.156 117.136C622.414 118.121 621.391 118.898 620.088 119.466C618.793 120.034 617.304 120.318 615.622 120.318ZM615.622 117.068C616.493 117.068 617.251 116.92 617.895 116.625C618.539 116.322 619.039 115.898 619.395 115.352C619.751 114.807 619.933 114.178 619.94 113.466C619.933 112.723 619.74 112.068 619.361 111.5C618.99 110.924 618.478 110.473 617.827 110.148C617.183 109.822 616.448 109.659 615.622 109.659C614.789 109.659 614.046 109.822 613.395 110.148C612.743 110.473 612.228 110.924 611.849 111.5C611.478 112.068 611.296 112.723 611.304 113.466C611.296 114.178 611.471 114.807 611.827 115.352C612.183 115.89 612.683 116.311 613.327 116.614C613.978 116.917 614.743 117.068 615.622 117.068ZM615.622 106.466C616.334 106.466 616.963 106.322 617.509 106.034C618.062 105.746 618.497 105.345 618.815 104.83C619.134 104.314 619.296 103.72 619.304 103.045C619.296 102.379 619.137 101.795 618.827 101.295C618.516 100.788 618.084 100.398 617.531 100.125C616.978 99.8447 616.342 99.7045 615.622 99.7045C614.887 99.7045 614.24 99.8447 613.679 100.125C613.126 100.398 612.694 100.788 612.384 101.295C612.08 101.795 611.933 102.379 611.94 103.045C611.933 103.72 612.084 104.314 612.395 104.83C612.713 105.337 613.149 105.739 613.702 106.034C614.262 106.322 614.902 106.466 615.622 106.466Z" fill="black"/>
</svg>
