<svg width="671" height="882" viewBox="0 0 671 882" fill="none" xmlns="http://www.w3.org/2000/svg">
<path d="M147.431 183.849L267.143 395.84L59.8852 518.181C2.68214 551.947 -16.9281 626.838 16.1123 685.348C49.1527 743.857 122.394 763.939 179.597 730.173L384.73 604.069L506.566 819.824C539.607 878.333 612.848 898.415 670.051 864.649C727.254 830.883 746.864 755.992 713.824 697.483L588.308 483.9L801.37 363.15C858.573 329.384 878.183 254.493 845.142 195.983C812.102 137.474 738.861 117.392 681.658 151.158L470.722 275.671L354.689 61.5075C321.648 2.99775 248.407 -17.084 191.204 16.6821C134.001 50.4482 114.391 125.339 147.431 183.849Z" fill="url(#paint0_linear_53_40)"/>
<defs>
<linearGradient id="paint0_linear_53_40" x1="872.065" y1="463.749" x2="1.59814" y2="431.514" gradientUnits="userSpaceOnUse">
<stop offset="0.06" stop-color="#101528"/>
<stop offset="0.505" stop-color="#152046"/>
<stop offset="1" stop-color="#63678A"/>
</linearGradient>
</defs>
</svg>
